<?xml version="1.0" encoding="utf-8"?>
<!-- Generator: Adobe Illustrator 16.0.0, SVG Export Plug-In . SVG Version: 6.00 Build 0)  -->
<!DOCTYPE svg PUBLIC "-//W3C//DTD SVG 1.1//EN" "http://www.w3.org/Graphics/SVG/1.1/DTD/svg11.dtd">
<svg version="1.1" id="Layer_1" xmlns="http://www.w3.org/2000/svg" xmlns:xlink="http://www.w3.org/1999/xlink" x="0px" y="0px"
	 width="408px" height="322.333px" viewBox="0 0 408 322.333" enable-background="new 0 0 408 322.333" xml:space="preserve">
<rect x="135" y="25.333" fill="#FFFFFF" stroke="#000000" stroke-width="1.5" stroke-miterlimit="10" width="136.5" height="26"/>
<g>
	<path d="M150.384,39.793c0-0.936,0.54-1.583,1.391-1.955v-0.036c-0.755-0.384-1.127-1.02-1.127-1.703
		c0-1.319,1.188-2.195,2.747-2.195c1.823,0,2.579,1.056,2.579,2.003c0,0.672-0.36,1.332-1.127,1.715v0.036
		c0.756,0.288,1.427,0.936,1.427,1.943c0,1.416-1.188,2.363-2.998,2.363C151.295,41.964,150.384,40.849,150.384,39.793z
		 M154.414,39.734c0-0.684-0.504-1.092-1.223-1.284c-0.6,0.168-0.948,0.6-0.948,1.164c-0.012,0.563,0.42,1.091,1.104,1.091
		C153.994,40.705,154.414,40.285,154.414,39.734z M152.363,36.04c0,0.528,0.479,0.864,1.104,1.056
		c0.419-0.12,0.792-0.504,0.792-0.996c0-0.479-0.276-0.959-0.948-0.959C152.687,35.14,152.363,35.548,152.363,36.04z"/>
	<path d="M161.758,39.758l-0.576,2.075h-1.895l2.47-8.083h2.399l2.507,8.083h-1.967l-0.624-2.075H161.758z M163.81,38.391
		l-0.504-1.715c-0.144-0.479-0.288-1.079-0.408-1.559h-0.024c-0.12,0.48-0.24,1.091-0.372,1.559l-0.479,1.715H163.81z"/>
	<path d="M174.584,38.738c-0.036-0.972-0.072-2.147-0.072-3.322h-0.036c-0.252,1.031-0.588,2.183-0.9,3.13l-0.983,3.154h-1.427
		l-0.863-3.13c-0.264-0.947-0.54-2.099-0.731-3.154h-0.024c-0.048,1.091-0.084,2.339-0.144,3.346l-0.144,3.07h-1.691l0.516-8.083
		h2.435l0.792,2.698c0.252,0.936,0.504,1.943,0.684,2.891h0.036c0.228-0.936,0.504-2.003,0.768-2.902l0.863-2.687h2.387l0.444,8.083
		h-1.787L174.584,38.738z"/>
	<path d="M180.383,39.95c0.492,0.252,1.247,0.503,2.027,0.503c0.839,0,1.283-0.348,1.283-0.875c0-0.503-0.384-0.792-1.355-1.139
		c-1.343-0.468-2.219-1.211-2.219-2.387c0-1.379,1.151-2.435,3.058-2.435c0.912,0,1.583,0.192,2.063,0.408l-0.408,1.475
		c-0.324-0.156-0.9-0.384-1.691-0.384s-1.175,0.36-1.175,0.78c0,0.516,0.456,0.743,1.5,1.139c1.427,0.528,2.099,1.271,2.099,2.411
		c0,1.355-1.043,2.507-3.262,2.507c-0.923,0-1.835-0.24-2.291-0.492L180.383,39.95z"/>
	<path d="M188.23,39.482c0.06,0.755,0.804,1.115,1.655,1.115c0.624,0,1.127-0.084,1.619-0.24l0.24,1.235
		c-0.6,0.24-1.332,0.36-2.123,0.36c-1.991,0-3.13-1.151-3.13-2.986c0-1.487,0.923-3.13,2.962-3.13c1.895,0,2.614,1.475,2.614,2.926
		c0,0.312-0.036,0.588-0.06,0.72H188.23z M190.377,38.234c0-0.444-0.192-1.187-1.032-1.187c-0.768,0-1.079,0.695-1.127,1.187
		H190.377z"/>
	<path d="M193.163,37.899c0-0.864-0.024-1.427-0.048-1.931h1.571l0.06,1.08h0.048c0.3-0.852,1.02-1.211,1.583-1.211
		c0.168,0,0.252,0,0.384,0.024v1.715c-0.132-0.024-0.288-0.048-0.492-0.048c-0.672,0-1.127,0.36-1.247,0.923
		c-0.024,0.12-0.036,0.264-0.036,0.408v2.975h-1.823V37.899z"/>
	<path d="M203.216,39.95c0,0.768,0.024,1.391,0.048,1.883h-1.583l-0.084-0.828h-0.036c-0.228,0.36-0.78,0.959-1.835,0.959
		c-1.188,0-2.063-0.744-2.063-2.555v-3.442h1.835v3.154c0,0.852,0.276,1.367,0.912,1.367c0.504,0,0.792-0.348,0.912-0.636
		c0.048-0.108,0.06-0.252,0.06-0.396v-3.49h1.835V39.95z"/>
	<path d="M204.683,37.839c0-0.732-0.024-1.355-0.048-1.871h1.535l0.084,0.792h0.036c0.251-0.372,0.768-0.923,1.775-0.923
		c0.755,0,1.355,0.384,1.607,0.995h0.024c0.216-0.3,0.48-0.54,0.756-0.708c0.324-0.192,0.684-0.288,1.115-0.288
		c1.127,0,1.979,0.792,1.979,2.542v3.454h-1.775v-3.19c0-0.852-0.276-1.343-0.864-1.343c-0.419,0-0.719,0.288-0.839,0.636
		c-0.048,0.132-0.072,0.324-0.072,0.468v3.43h-1.775v-3.286c0-0.744-0.264-1.248-0.839-1.248c-0.468,0-0.744,0.36-0.852,0.66
		c-0.06,0.144-0.072,0.312-0.072,0.456v3.418h-1.775V37.839z"/>
	<path d="M223.424,41.604c-0.336,0.168-1.092,0.348-2.075,0.348c-2.794,0-4.233-1.739-4.233-4.042c0-2.758,1.967-4.293,4.414-4.293
		c0.947,0,1.667,0.192,1.991,0.36l-0.372,1.451c-0.372-0.156-0.888-0.3-1.535-0.3c-1.451,0-2.579,0.875-2.579,2.674
		c0,1.619,0.959,2.639,2.59,2.639c0.552,0,1.164-0.12,1.523-0.264L223.424,41.604z"/>
	<path d="M230.131,38.834c0,2.147-1.523,3.13-3.094,3.13c-1.715,0-3.034-1.127-3.034-3.022c0-1.895,1.247-3.106,3.13-3.106
		C228.932,35.836,230.131,37.071,230.131,38.834z M225.886,38.894c0,1.007,0.42,1.763,1.199,1.763c0.708,0,1.164-0.708,1.164-1.763
		c0-0.875-0.336-1.763-1.164-1.763C226.209,37.131,225.886,38.031,225.886,38.894z"/>
	<path d="M231.262,37.899c0-0.864-0.024-1.427-0.048-1.931h1.571l0.06,1.08h0.048c0.3-0.852,1.02-1.211,1.583-1.211
		c0.168,0,0.252,0,0.384,0.024v1.715c-0.132-0.024-0.288-0.048-0.492-0.048c-0.671,0-1.127,0.36-1.248,0.923
		c-0.024,0.12-0.036,0.264-0.036,0.408v2.975h-1.823V37.899z"/>
	<path d="M238.113,34.289v1.679h1.307v1.343h-1.307v2.123c0,0.708,0.168,1.031,0.72,1.031c0.228,0,0.408-0.024,0.54-0.048
		l0.012,1.379c-0.24,0.096-0.672,0.156-1.188,0.156c-0.588,0-1.08-0.204-1.367-0.504c-0.336-0.348-0.504-0.912-0.504-1.739v-2.398
		h-0.779v-1.343h0.779v-1.271L238.113,34.289z"/>
	<path d="M242.361,34.336c0,0.504-0.384,0.912-0.983,0.912c-0.576,0-0.96-0.408-0.948-0.912c-0.012-0.527,0.372-0.923,0.959-0.923
		S242.349,33.809,242.361,34.336z M240.478,41.833v-5.865h1.823v5.865H240.478z"/>
	<path d="M243.754,40.237c0.335,0.204,1.031,0.444,1.571,0.444c0.552,0,0.78-0.192,0.78-0.492s-0.18-0.444-0.864-0.672
		c-1.211-0.408-1.679-1.067-1.667-1.763c0-1.091,0.936-1.919,2.387-1.919c0.684,0,1.295,0.156,1.655,0.335l-0.324,1.26
		c-0.264-0.144-0.768-0.336-1.271-0.336c-0.444,0-0.696,0.18-0.696,0.479c0,0.276,0.228,0.42,0.948,0.672
		c1.115,0.384,1.583,0.947,1.595,1.811c0,1.091-0.864,1.895-2.543,1.895c-0.768,0-1.451-0.168-1.895-0.408L243.754,40.237z"/>
	<path d="M254.767,38.834c0,2.147-1.523,3.13-3.094,3.13c-1.715,0-3.034-1.127-3.034-3.022c0-1.895,1.247-3.106,3.13-3.106
		C253.568,35.836,254.767,37.071,254.767,38.834z M250.521,38.894c0,1.007,0.42,1.763,1.199,1.763c0.708,0,1.164-0.708,1.164-1.763
		c0-0.875-0.336-1.763-1.164-1.763C250.845,37.131,250.521,38.031,250.521,38.894z"/>
	<path d="M255.898,33.317h1.823v8.515h-1.823V33.317z"/>
</g>
<rect x="142" y="169.333" fill="#FFFFFF" stroke="#000000" stroke-width="1.5" stroke-miterlimit="10" width="136.5" height="26"/>
<g>
	<path d="M154.674,183.758l-0.576,2.075h-1.895l2.47-8.083h2.399l2.507,8.083h-1.967l-0.624-2.075H154.674z M156.726,182.391
		l-0.504-1.715c-0.144-0.479-0.288-1.079-0.408-1.559h-0.024c-0.12,0.48-0.24,1.091-0.372,1.559l-0.479,1.715H156.726z"/>
	<path d="M166.301,185.604c-0.336,0.168-1.092,0.348-2.075,0.348c-2.794,0-4.233-1.739-4.233-4.042c0-2.758,1.967-4.293,4.414-4.293
		c0.947,0,1.667,0.192,1.991,0.36l-0.372,1.451c-0.372-0.156-0.888-0.3-1.535-0.3c-1.451,0-2.579,0.875-2.579,2.674
		c0,1.619,0.959,2.639,2.59,2.639c0.552,0,1.164-0.12,1.523-0.264L166.301,185.604z"/>
	<path d="M169.23,179.284h-2.171v-1.535h6.213v1.535h-2.207v6.548h-1.835V179.284z"/>
	<path d="M176.082,177.749v3.106h3.01v-3.106h1.823v8.083h-1.823v-3.382h-3.01v3.382h-1.835v-8.083H176.082z"/>
	<path d="M184.999,183.95c0.492,0.252,1.247,0.503,2.027,0.503c0.839,0,1.283-0.348,1.283-0.875c0-0.503-0.384-0.792-1.355-1.139
		c-1.343-0.468-2.219-1.211-2.219-2.387c0-1.379,1.151-2.435,3.058-2.435c0.912,0,1.583,0.192,2.063,0.408l-0.408,1.475
		c-0.324-0.156-0.9-0.384-1.691-0.384s-1.175,0.36-1.175,0.78c0,0.516,0.456,0.743,1.499,1.139c1.427,0.528,2.099,1.271,2.099,2.411
		c0,1.355-1.043,2.507-3.262,2.507c-0.923,0-1.835-0.24-2.291-0.492L184.999,183.95z"/>
	<path d="M193.338,178.289v1.679h1.307v1.343h-1.307v2.123c0,0.708,0.168,1.031,0.72,1.031c0.228,0,0.408-0.024,0.54-0.048
		l0.012,1.379c-0.24,0.096-0.672,0.156-1.188,0.156c-0.588,0-1.08-0.204-1.367-0.504c-0.336-0.348-0.504-0.912-0.504-1.739v-2.398
		h-0.779v-1.343h0.779v-1.271L193.338,178.289z"/>
	<path d="M197.586,178.336c0,0.504-0.384,0.912-0.983,0.912c-0.576,0-0.96-0.408-0.948-0.912c-0.012-0.527,0.372-0.923,0.959-0.923
		S197.574,177.809,197.586,178.336z M195.703,185.833v-5.865h1.823v5.865H195.703z"/>
	<path d="M198.991,181.839c0-0.732-0.024-1.355-0.048-1.871h1.535l0.084,0.792h0.036c0.251-0.372,0.768-0.923,1.775-0.923
		c0.755,0,1.355,0.384,1.607,0.995h0.024c0.216-0.3,0.48-0.54,0.756-0.708c0.324-0.192,0.684-0.288,1.115-0.288
		c1.127,0,1.979,0.792,1.979,2.542v3.454h-1.775v-3.19c0-0.852-0.276-1.343-0.864-1.343c-0.419,0-0.719,0.288-0.839,0.636
		c-0.048,0.132-0.072,0.324-0.072,0.468v3.43h-1.775v-3.286c0-0.744-0.264-1.248-0.839-1.248c-0.468,0-0.744,0.36-0.852,0.66
		c-0.06,0.144-0.072,0.312-0.072,0.456v3.418h-1.775V181.839z"/>
	<path d="M214.84,183.95c0,0.768,0.024,1.391,0.048,1.883h-1.583l-0.084-0.828h-0.036c-0.228,0.36-0.78,0.959-1.835,0.959
		c-1.188,0-2.063-0.744-2.063-2.555v-3.442h1.835v3.154c0,0.852,0.276,1.367,0.912,1.367c0.504,0,0.792-0.348,0.912-0.636
		c0.048-0.108,0.06-0.252,0.06-0.396v-3.49h1.835V183.95z"/>
	<path d="M216.307,177.317h1.823v8.515h-1.823V177.317z"/>
	<path d="M222.941,185.833l-0.108-0.588h-0.036c-0.384,0.468-0.983,0.72-1.679,0.72c-1.187,0-1.895-0.863-1.895-1.799
		c0-1.523,1.367-2.255,3.442-2.243v-0.084c0-0.312-0.168-0.756-1.067-0.756c-0.6,0-1.235,0.204-1.619,0.444l-0.336-1.175
		c0.408-0.228,1.211-0.516,2.279-0.516c1.955,0,2.579,1.151,2.579,2.53v2.039c0,0.564,0.024,1.104,0.084,1.427H222.941z
		 M222.725,183.062c-0.959-0.012-1.703,0.216-1.703,0.923c0,0.468,0.312,0.696,0.719,0.696c0.456,0,0.828-0.3,0.948-0.672
		c0.024-0.096,0.036-0.204,0.036-0.312V183.062z"/>
	<path d="M227.886,178.289v1.679h1.307v1.343h-1.307v2.123c0,0.708,0.168,1.031,0.72,1.031c0.228,0,0.408-0.024,0.54-0.048
		l0.012,1.379c-0.24,0.096-0.672,0.156-1.188,0.156c-0.588,0-1.08-0.204-1.367-0.504c-0.336-0.348-0.504-0.912-0.504-1.739v-2.398
		h-0.779v-1.343h0.779v-1.271L227.886,178.289z"/>
	<path d="M232.133,178.336c0,0.504-0.384,0.912-0.984,0.912c-0.575,0-0.959-0.408-0.947-0.912c-0.012-0.527,0.372-0.923,0.959-0.923
		C231.75,177.413,232.121,177.809,232.133,178.336z M230.25,185.833v-5.865h1.823v5.865H230.25z"/>
	<path d="M239.331,182.834c0,2.147-1.523,3.13-3.094,3.13c-1.715,0-3.034-1.127-3.034-3.022c0-1.895,1.247-3.106,3.13-3.106
		C238.132,179.836,239.331,181.071,239.331,182.834z M235.085,182.894c0,1.007,0.42,1.763,1.199,1.763
		c0.708,0,1.164-0.708,1.164-1.763c0-0.875-0.336-1.763-1.164-1.763C235.409,181.131,235.085,182.031,235.085,182.894z"/>
	<path d="M240.462,181.839c0-0.732-0.024-1.355-0.048-1.871h1.583l0.084,0.804h0.036c0.24-0.372,0.839-0.936,1.811-0.936
		c1.199,0,2.099,0.792,2.099,2.519v3.478h-1.823v-3.25c0-0.756-0.264-1.271-0.924-1.271c-0.503,0-0.803,0.348-0.923,0.684
		c-0.048,0.108-0.072,0.288-0.072,0.456v3.382h-1.823V181.839z"/>
	<path d="M251.069,179.284h-2.171v-1.535h6.213v1.535h-2.207v6.548h-1.835V179.284z"/>
	<path d="M256.458,183.482c0.06,0.755,0.804,1.115,1.655,1.115c0.624,0,1.127-0.084,1.619-0.24l0.24,1.235
		c-0.6,0.24-1.331,0.36-2.123,0.36c-1.991,0-3.13-1.151-3.13-2.986c0-1.487,0.923-3.13,2.962-3.13c1.895,0,2.615,1.475,2.615,2.926
		c0,0.312-0.036,0.588-0.06,0.72H256.458z M258.604,182.234c0-0.444-0.192-1.187-1.032-1.187c-0.768,0-1.079,0.695-1.127,1.187
		H258.604z"/>
	<path d="M261.378,184.237c0.335,0.204,1.031,0.444,1.571,0.444c0.552,0,0.78-0.192,0.78-0.492s-0.18-0.444-0.864-0.672
		c-1.211-0.408-1.679-1.067-1.667-1.763c0-1.091,0.936-1.919,2.387-1.919c0.684,0,1.295,0.156,1.655,0.335l-0.324,1.26
		c-0.264-0.144-0.768-0.336-1.271-0.336c-0.444,0-0.696,0.18-0.696,0.479c0,0.276,0.228,0.42,0.948,0.672
		c1.115,0.384,1.583,0.947,1.595,1.811c0,1.091-0.864,1.895-2.543,1.895c-0.768,0-1.451-0.168-1.895-0.408L261.378,184.237z"/>
	<path d="M268.637,178.289v1.679h1.307v1.343h-1.307v2.123c0,0.708,0.168,1.031,0.72,1.031c0.228,0,0.408-0.024,0.54-0.048
		l0.012,1.379c-0.24,0.096-0.672,0.156-1.188,0.156c-0.588,0-1.08-0.204-1.367-0.504c-0.336-0.348-0.504-0.912-0.504-1.739v-2.398
		h-0.779v-1.343h0.779v-1.271L268.637,178.289z"/>
</g>
<rect x="30" y="126.333" fill="#EF4136" stroke="#000000" stroke-width="1.5" stroke-miterlimit="10" width="128" height="26.5"/>
<g>
	<path fill="#FFFFFF" d="M43.719,141.29l-0.839,2.542H41.8l2.747-8.083h1.259l2.758,8.083h-1.115l-0.864-2.542H43.719z
		 M46.369,140.474l-0.792-2.327c-0.18-0.527-0.3-1.007-0.419-1.475h-0.024c-0.12,0.48-0.251,0.972-0.408,1.463l-0.792,2.338H46.369z
		"/>
	<path fill="#FFFFFF" d="M54.588,135.317v7.016c0,0.516,0.012,1.103,0.048,1.499h-0.947l-0.048-1.007h-0.024
		c-0.324,0.647-1.032,1.139-1.979,1.139c-1.403,0-2.483-1.188-2.483-2.95c-0.012-1.931,1.188-3.118,2.603-3.118
		c0.888,0,1.487,0.419,1.751,0.887h0.024v-3.466H54.588z M53.533,140.391c0-0.132-0.012-0.312-0.048-0.444
		c-0.156-0.672-0.731-1.224-1.523-1.224c-1.091,0-1.739,0.959-1.739,2.243c0,1.175,0.576,2.146,1.715,2.146
		c0.708,0,1.355-0.468,1.547-1.259c0.036-0.144,0.048-0.288,0.048-0.456V140.391z"/>
	<path fill="#FFFFFF" d="M56.343,139.839c0-0.684-0.012-1.271-0.048-1.811h0.923l0.036,1.139h0.048
		c0.264-0.779,0.899-1.271,1.607-1.271c0.12,0,0.204,0.012,0.3,0.036v0.996c-0.108-0.024-0.216-0.036-0.36-0.036
		c-0.744,0-1.271,0.564-1.416,1.355c-0.024,0.144-0.048,0.312-0.048,0.492v3.094h-1.043V139.839z"/>
	<path fill="#FFFFFF" d="M60.735,141.122c0.024,1.427,0.936,2.015,1.991,2.015c0.755,0,1.211-0.132,1.607-0.3l0.18,0.756
		c-0.372,0.168-1.007,0.36-1.931,0.36c-1.787,0-2.854-1.176-2.854-2.927s1.032-3.13,2.723-3.13c1.895,0,2.399,1.667,2.399,2.734
		c0,0.216-0.024,0.384-0.036,0.492H60.735z M63.83,140.366c0.012-0.671-0.276-1.715-1.463-1.715c-1.067,0-1.535,0.983-1.619,1.715
		H63.83z"/>
	<path fill="#FFFFFF" d="M66.159,139.599c0-0.6-0.012-1.091-0.048-1.571h0.936l0.06,0.959h0.024
		c0.288-0.552,0.959-1.091,1.919-1.091c0.803,0,2.051,0.479,2.051,2.47v3.466h-1.056v-3.346c0-0.936-0.348-1.715-1.343-1.715
		c-0.695,0-1.235,0.492-1.415,1.079c-0.048,0.132-0.072,0.312-0.072,0.492v3.49h-1.056V139.599z"/>
	<path fill="#FFFFFF" d="M76.033,143.833l-0.084-0.731h-0.036c-0.324,0.456-0.947,0.863-1.775,0.863
		c-1.175,0-1.775-0.828-1.775-1.667c0-1.403,1.247-2.171,3.49-2.159v-0.12c0-0.479-0.132-1.343-1.319-1.343
		c-0.54,0-1.104,0.168-1.511,0.432l-0.24-0.695c0.48-0.312,1.175-0.516,1.907-0.516c1.775,0,2.207,1.211,2.207,2.375v2.171
		c0,0.503,0.024,0.995,0.096,1.391H76.033z M75.877,140.87c-1.151-0.024-2.458,0.18-2.458,1.307c0,0.684,0.456,1.008,0.996,1.008
		c0.755,0,1.235-0.48,1.403-0.972c0.036-0.108,0.06-0.228,0.06-0.336V140.87z"/>
	<path fill="#FFFFFF" d="M78.603,135.317h1.056v8.515h-1.056V135.317z"/>
	<path fill="#FFFFFF" d="M85.059,135.749v8.083h-1.043v-8.083H85.059z"/>
	<path fill="#FFFFFF" d="M86.967,139.599c0-0.6-0.012-1.091-0.048-1.571h0.936l0.06,0.959h0.024
		c0.288-0.552,0.959-1.091,1.919-1.091c0.803,0,2.051,0.479,2.051,2.47v3.466h-1.056v-3.346c0-0.936-0.348-1.715-1.343-1.715
		c-0.695,0-1.235,0.492-1.415,1.079c-0.048,0.132-0.072,0.312-0.072,0.492v3.49h-1.056V139.599z"/>
	<path fill="#FFFFFF" d="M93.483,142.753c0.312,0.204,0.864,0.42,1.392,0.42c0.768,0,1.127-0.384,1.127-0.863
		c0-0.504-0.3-0.78-1.079-1.068c-1.043-0.372-1.535-0.947-1.535-1.643c0-0.935,0.755-1.703,2.003-1.703
		c0.587,0,1.103,0.167,1.427,0.359l-0.264,0.768c-0.228-0.144-0.647-0.335-1.187-0.335c-0.624,0-0.972,0.36-0.972,0.792
		c0,0.479,0.348,0.695,1.104,0.983c1.007,0.384,1.523,0.888,1.523,1.751c0,1.02-0.792,1.739-2.171,1.739
		c-0.635,0-1.223-0.156-1.631-0.396L93.483,142.753z"/>
	<path fill="#FFFFFF" d="M103.236,142.25c0,0.6,0.012,1.127,0.048,1.583h-0.936l-0.06-0.947h-0.024
		c-0.276,0.468-0.887,1.079-1.919,1.079c-0.911,0-2.003-0.503-2.003-2.542v-3.394h1.056v3.214c0,1.104,0.336,1.847,1.295,1.847
		c0.708,0,1.199-0.492,1.391-0.959c0.06-0.156,0.096-0.348,0.096-0.54v-3.562h1.056V142.25z"/>
	<path fill="#FFFFFF" d="M112.259,136.349c-0.264-0.168-0.696-0.312-1.175-0.312c-1.116,0-1.451,0.78-1.451,1.703v0.288h3.382v5.805
		h-1.055v-5.001h-2.315v5.001h-1.055v-5.001h-2.447v5.001h-1.043v-5.001h-0.815v-0.803h0.815v-0.216
		c0-0.732,0.192-1.439,0.696-1.931c0.335-0.348,0.839-0.563,1.487-0.563c0.396,0,0.804,0.144,1.02,0.251l-0.288,0.78
		c-0.18-0.096-0.456-0.204-0.732-0.204c-0.335,0-0.575,0.12-0.755,0.312c-0.288,0.312-0.384,0.839-0.384,1.343v0.228h2.447v-0.312
		c0-1.535,0.912-2.531,2.542-2.531c0.528,0,1.127,0.156,1.439,0.372L112.259,136.349z"/>
	<path fill="#FFFFFF" d="M118.908,143.617c-0.276,0.144-0.888,0.336-1.667,0.336c-1.751,0-2.891-1.188-2.891-2.962
		c0-1.787,1.224-3.083,3.119-3.083c0.624,0,1.175,0.156,1.463,0.3l-0.24,0.815c-0.252-0.144-0.647-0.275-1.223-0.275
		c-1.332,0-2.051,0.983-2.051,2.194c0,1.343,0.864,2.171,2.015,2.171c0.6,0,0.996-0.156,1.295-0.288L118.908,143.617z"/>
	<path fill="#FFFFFF" d="M121.322,136.396c0.012,0.36-0.252,0.648-0.671,0.648c-0.372,0-0.636-0.288-0.636-0.648
		c0-0.372,0.276-0.66,0.66-0.66C121.07,135.737,121.322,136.025,121.322,136.396z M120.146,143.833v-5.805h1.056v5.805H120.146z"/>
	<path fill="#FFFFFF" d="M123.542,141.122c0.024,1.427,0.935,2.015,1.991,2.015c0.755,0,1.211-0.132,1.607-0.3l0.18,0.756
		c-0.372,0.168-1.007,0.36-1.931,0.36c-1.787,0-2.854-1.176-2.854-2.927s1.032-3.13,2.723-3.13c1.895,0,2.399,1.667,2.399,2.734
		c0,0.216-0.024,0.384-0.036,0.492H123.542z M126.637,140.366c0.012-0.671-0.276-1.715-1.463-1.715
		c-1.067,0-1.535,0.983-1.619,1.715H126.637z"/>
	<path fill="#FFFFFF" d="M128.966,139.599c0-0.6-0.012-1.091-0.048-1.571h0.936l0.06,0.959h0.024
		c0.288-0.552,0.959-1.091,1.919-1.091c0.803,0,2.051,0.479,2.051,2.47v3.466h-1.056v-3.346c0-0.936-0.348-1.715-1.343-1.715
		c-0.695,0-1.235,0.492-1.415,1.079c-0.048,0.132-0.072,0.312-0.072,0.492v3.49h-1.056V139.599z"/>
	<path fill="#FFFFFF" d="M139.764,143.617c-0.276,0.144-0.888,0.336-1.667,0.336c-1.751,0-2.891-1.188-2.891-2.962
		c0-1.787,1.224-3.083,3.119-3.083c0.624,0,1.175,0.156,1.463,0.3l-0.24,0.815c-0.252-0.144-0.647-0.275-1.223-0.275
		c-1.332,0-2.051,0.983-2.051,2.194c0,1.343,0.864,2.171,2.015,2.171c0.6,0,0.996-0.156,1.295-0.288L139.764,143.617z"/>
	<path fill="#FFFFFF" d="M141.602,138.028l1.271,3.43c0.132,0.384,0.276,0.839,0.372,1.187h0.024
		c0.108-0.348,0.228-0.792,0.372-1.211l1.151-3.406h1.115l-1.583,4.138c-0.756,1.991-1.271,3.01-1.991,3.634
		c-0.516,0.456-1.031,0.636-1.295,0.684l-0.264-0.887c0.264-0.084,0.612-0.252,0.924-0.516c0.288-0.228,0.647-0.635,0.887-1.175
		c0.048-0.108,0.084-0.192,0.084-0.251c0-0.06-0.024-0.144-0.072-0.276l-2.147-5.349H141.602z"/>
</g>
<rect x="284" y="126.333" fill="#39B54A" stroke="#000000" stroke-width="1.5" stroke-miterlimit="10" width="57" height="26.5"/>
<g>
	<path fill="#FFFFFF" d="M294.912,143.833v-8.083h1.139l2.591,4.09c0.6,0.947,1.067,1.799,1.451,2.626l0.024-0.012
		c-0.096-1.079-0.12-2.062-0.12-3.322v-3.382h0.983v8.083h-1.055l-2.566-4.102c-0.564-0.9-1.104-1.823-1.511-2.699l-0.036,0.012
		c0.06,1.019,0.084,1.991,0.084,3.334v3.454H294.912z"/>
	<path fill="#FFFFFF" d="M308.024,140.882c0,2.146-1.487,3.082-2.89,3.082c-1.571,0-2.783-1.151-2.783-2.986
		c0-1.943,1.271-3.082,2.878-3.082C306.897,137.896,308.024,139.107,308.024,140.882z M303.419,140.942
		c0,1.271,0.732,2.231,1.763,2.231c1.007,0,1.763-0.947,1.763-2.255c0-0.983-0.492-2.23-1.739-2.23
		C303.959,138.688,303.419,139.839,303.419,140.942z"/>
	<path fill="#FFFFFF" d="M309.359,139.839c0-0.684-0.012-1.271-0.048-1.811h0.923l0.036,1.139h0.048
		c0.264-0.779,0.899-1.271,1.607-1.271c0.12,0,0.204,0.012,0.3,0.036v0.996c-0.108-0.024-0.216-0.036-0.359-0.036
		c-0.744,0-1.271,0.564-1.416,1.355c-0.024,0.144-0.048,0.312-0.048,0.492v3.094h-1.043V139.839z"/>
	<path fill="#FFFFFF" d="M313.331,139.599c0-0.6-0.012-1.091-0.048-1.571h0.923l0.048,0.936h0.036
		c0.324-0.552,0.864-1.067,1.823-1.067c0.792,0,1.391,0.479,1.643,1.163h0.024c0.18-0.324,0.408-0.576,0.647-0.755
		c0.348-0.264,0.731-0.408,1.283-0.408c0.768,0,1.907,0.503,1.907,2.519v3.418h-1.032v-3.286c0-1.115-0.408-1.787-1.259-1.787
		c-0.6,0-1.067,0.444-1.247,0.959c-0.048,0.144-0.084,0.336-0.084,0.528v3.586h-1.032v-3.478c0-0.923-0.408-1.595-1.211-1.595
		c-0.66,0-1.14,0.528-1.308,1.056c-0.06,0.156-0.084,0.335-0.084,0.516v3.502h-1.031V139.599z"/>
	<path fill="#FFFFFF" d="M326.553,143.833l-0.084-0.731h-0.035c-0.324,0.456-0.947,0.863-1.775,0.863
		c-1.176,0-1.775-0.828-1.775-1.667c0-1.403,1.248-2.171,3.49-2.159v-0.12c0-0.479-0.132-1.343-1.319-1.343
		c-0.54,0-1.103,0.168-1.511,0.432l-0.24-0.695c0.48-0.312,1.176-0.516,1.907-0.516c1.774,0,2.206,1.211,2.206,2.375v2.171
		c0,0.503,0.024,0.995,0.097,1.391H326.553z M326.397,140.87c-1.151-0.024-2.459,0.18-2.459,1.307c0,0.684,0.456,1.008,0.995,1.008
		c0.756,0,1.236-0.48,1.404-0.972c0.035-0.108,0.06-0.228,0.06-0.336V140.87z"/>
	<path fill="#FFFFFF" d="M329.123,135.317h1.055v8.515h-1.055V135.317z"/>
</g>
<rect x="94.25" y="80.833" fill="#FFFFFF" stroke="#000000" stroke-width="1.5" stroke-miterlimit="10" width="51" height="22"/>
<g>
	<path d="M107.33,91.744l4.797-2.229v1.059l-3.628,1.589v0.02l3.628,1.589v1.06l-4.797-2.229V91.744z"/>
	<path d="M117.089,89.686h-0.02l-1.239,0.589l-0.25-1.139l1.719-0.8h1.26v6.497h-1.469V89.686z"/>
	<path d="M125.497,91.554c0,2.009-0.81,3.388-2.469,3.388c-1.679,0-2.419-1.509-2.429-3.348c0-1.879,0.8-3.368,2.479-3.368
		C124.817,88.226,125.497,89.775,125.497,91.554z M122.129,91.594c-0.01,1.489,0.35,2.199,0.939,2.199
		c0.589,0,0.909-0.739,0.909-2.219c0-1.439-0.31-2.199-0.919-2.199C122.499,89.375,122.119,90.085,122.129,91.594z"/>
	<path d="M131.047,91.554c0,2.009-0.81,3.388-2.469,3.388c-1.679,0-2.419-1.509-2.429-3.348c0-1.879,0.8-3.368,2.479-3.368
		C130.367,88.226,131.047,89.775,131.047,91.554z M127.679,91.594c-0.01,1.489,0.35,2.199,0.939,2.199
		c0.589,0,0.909-0.739,0.909-2.219c0-1.439-0.31-2.199-0.919-2.199C128.048,89.375,127.668,90.085,127.679,91.594z"/>
</g>
<rect x="178.25" y="80.833" fill="#FFFFFF" stroke="#000000" stroke-width="1.5" stroke-miterlimit="10" width="65" height="22"/>
<g>
	<path d="M195.109,89.686h-0.02l-1.239,0.589l-0.25-1.139l1.719-0.8h1.26v6.497h-1.469V89.686z"/>
	<path d="M203.517,91.554c0,2.009-0.81,3.388-2.469,3.388c-1.679,0-2.419-1.509-2.429-3.348c0-1.879,0.799-3.368,2.479-3.368
		C202.837,88.226,203.517,89.775,203.517,91.554z M200.149,91.594c-0.01,1.489,0.35,2.199,0.939,2.199
		c0.589,0,0.909-0.739,0.909-2.219c0-1.439-0.31-2.199-0.919-2.199C200.519,89.375,200.139,90.085,200.149,91.594z"/>
	<path d="M209.067,91.554c0,2.009-0.81,3.388-2.469,3.388c-1.679,0-2.419-1.509-2.429-3.348c0-1.879,0.799-3.368,2.479-3.368
		C208.387,88.226,209.067,89.775,209.067,91.554z M205.699,91.594c-0.01,1.489,0.35,2.199,0.939,2.199
		c0.589,0,0.909-0.739,0.909-2.219c0-1.439-0.31-2.199-0.919-2.199C206.068,89.375,205.688,90.085,205.699,91.594z"/>
	<path d="M212.318,91.704v1.01h-2.619v-1.01H212.318z"/>
	<path d="M217.376,89.585h-2.519l-0.14,1c0.14-0.02,0.26-0.02,0.42-0.02c0.62,0,1.25,0.14,1.709,0.47
		c0.49,0.33,0.79,0.87,0.79,1.629c0,1.209-1.039,2.279-2.788,2.279c-0.79,0-1.449-0.18-1.809-0.37l0.27-1.14
		c0.29,0.14,0.88,0.32,1.469,0.32c0.63,0,1.299-0.3,1.299-0.989c0-0.669-0.53-1.08-1.829-1.08c-0.359,0-0.609,0.02-0.879,0.06
		l0.43-3.408h3.578V89.585z"/>
	<path d="M223.386,91.554c0,2.009-0.81,3.388-2.469,3.388c-1.679,0-2.419-1.509-2.429-3.348c0-1.879,0.799-3.368,2.479-3.368
		C222.707,88.226,223.386,89.775,223.386,91.554z M220.018,91.594c-0.01,1.489,0.35,2.199,0.939,2.199
		c0.589,0,0.909-0.739,0.909-2.219c0-1.439-0.31-2.199-0.919-2.199C220.388,89.375,220.008,90.085,220.018,91.594z"/>
	<path d="M228.936,91.554c0,2.009-0.81,3.388-2.469,3.388c-1.679,0-2.419-1.509-2.429-3.348c0-1.879,0.799-3.368,2.479-3.368
		C228.256,88.226,228.936,89.775,228.936,91.554z M225.568,91.594c-0.01,1.489,0.35,2.199,0.939,2.199
		c0.589,0,0.909-0.739,0.909-2.219c0-1.439-0.31-2.199-0.919-2.199C225.938,89.375,225.558,90.085,225.568,91.594z"/>
</g>
<rect x="272.25" y="80.833" fill="#FFFFFF" stroke="#000000" stroke-width="1.5" stroke-miterlimit="10" width="49.5" height="22"/>
<g>
	<path d="M290.127,92.634l-4.797,2.199v-1.06l3.708-1.589v-0.02l-3.708-1.589v-1.059l4.797,2.199V92.634z"/>
	<path d="M295.467,89.585h-2.519l-0.14,1c0.14-0.02,0.26-0.02,0.42-0.02c0.62,0,1.25,0.14,1.709,0.47
		c0.49,0.33,0.79,0.87,0.79,1.629c0,1.209-1.039,2.279-2.788,2.279c-0.79,0-1.449-0.18-1.809-0.37l0.27-1.14
		c0.29,0.14,0.88,0.32,1.469,0.32c0.63,0,1.299-0.3,1.299-0.989c0-0.669-0.53-1.08-1.829-1.08c-0.359,0-0.609,0.02-0.879,0.06
		l0.43-3.408h3.578V89.585z"/>
	<path d="M301.477,91.554c0,2.009-0.81,3.388-2.469,3.388c-1.679,0-2.419-1.509-2.429-3.348c0-1.879,0.799-3.368,2.479-3.368
		C300.797,88.226,301.477,89.775,301.477,91.554z M298.109,91.594c-0.01,1.489,0.35,2.199,0.939,2.199
		c0.589,0,0.909-0.739,0.909-2.219c0-1.439-0.31-2.199-0.919-2.199C298.479,89.375,298.099,90.085,298.109,91.594z"/>
	<path d="M307.027,91.554c0,2.009-0.81,3.388-2.469,3.388c-1.679,0-2.419-1.509-2.429-3.348c0-1.879,0.799-3.368,2.479-3.368
		C306.347,88.226,307.027,89.775,307.027,91.554z M303.659,91.594c-0.01,1.489,0.35,2.199,0.939,2.199
		c0.589,0,0.909-0.739,0.909-2.219c0-1.439-0.31-2.199-0.919-2.199C304.028,89.375,303.648,90.085,303.659,91.594z"/>
</g>
<g>
	<g>
		<polyline fill="none" stroke="#000000" stroke-width="1.5" stroke-miterlimit="10" points="134.5,37.833 121.5,37.833 
			121.5,75.037 		"/>
		<g>
			<polygon points="121.5,80.333 118.451,72.871 121.5,74.641 124.548,72.871 			"/>
		</g>
	</g>
</g>
<g>
	<g>
		<line fill="none" stroke="#000000" stroke-width="1.5" stroke-miterlimit="10" x1="212.5" y1="50.833" x2="212.5" y2="74.537"/>
		<g>
			<polygon points="212.5,79.833 209.451,72.371 212.5,74.141 215.548,72.371 			"/>
		</g>
	</g>
</g>
<g>
	<g>
		<line fill="none" stroke="#000000" stroke-width="1.5" stroke-miterlimit="10" x1="298.5" y1="103.333" x2="298.5" y2="120.037"/>
		<g>
			<polygon points="298.5,125.333 295.451,117.871 298.5,119.641 301.548,117.871 			"/>
		</g>
	</g>
</g>
<g>
	<g>
		<line fill="none" stroke="#000000" stroke-width="1.5" stroke-miterlimit="10" x1="121.5" y1="103.333" x2="121.5" y2="120.037"/>
		<g>
			<polygon points="121.5,125.333 118.451,117.871 121.5,119.641 124.548,117.871 			"/>
		</g>
	</g>
</g>
<rect x="43" y="271.833" fill="#EF4136" stroke="#000000" stroke-width="1.5" stroke-miterlimit="10" width="128" height="26.5"/>
<g>
	<path fill="#FFFFFF" d="M56.719,286.79l-0.839,2.543H54.8l2.747-8.084h1.259l2.758,8.084h-1.115l-0.864-2.543H56.719z
		 M59.369,285.974l-0.792-2.327c-0.18-0.527-0.3-1.007-0.419-1.475h-0.024c-0.12,0.48-0.251,0.972-0.408,1.463l-0.792,2.339H59.369z
		"/>
	<path fill="#FFFFFF" d="M67.588,280.817v7.017c0,0.516,0.012,1.103,0.048,1.499h-0.947l-0.048-1.008h-0.024
		c-0.324,0.648-1.032,1.14-1.979,1.14c-1.403,0-2.483-1.188-2.483-2.95c-0.012-1.932,1.188-3.118,2.603-3.118
		c0.888,0,1.487,0.419,1.751,0.888h0.024v-3.467H67.588z M66.533,285.891c0-0.133-0.012-0.312-0.048-0.444
		c-0.156-0.672-0.731-1.224-1.523-1.224c-1.091,0-1.739,0.959-1.739,2.243c0,1.175,0.576,2.146,1.715,2.146
		c0.708,0,1.355-0.468,1.547-1.259c0.036-0.145,0.048-0.288,0.048-0.456V285.891z"/>
	<path fill="#FFFFFF" d="M69.343,285.338c0-0.684-0.012-1.271-0.048-1.811h0.923l0.036,1.139h0.048
		c0.264-0.779,0.899-1.271,1.607-1.271c0.12,0,0.204,0.012,0.3,0.036v0.995c-0.108-0.024-0.216-0.036-0.36-0.036
		c-0.744,0-1.271,0.564-1.416,1.355c-0.024,0.145-0.048,0.312-0.048,0.492v3.094h-1.043V285.338z"/>
	<path fill="#FFFFFF" d="M73.735,286.622c0.024,1.428,0.936,2.016,1.991,2.016c0.755,0,1.211-0.133,1.607-0.301l0.18,0.756
		c-0.372,0.168-1.007,0.36-1.931,0.36c-1.787,0-2.854-1.176-2.854-2.927s1.032-3.13,2.723-3.13c1.895,0,2.399,1.667,2.399,2.734
		c0,0.216-0.024,0.384-0.036,0.491H73.735z M76.83,285.866c0.012-0.671-0.276-1.715-1.463-1.715c-1.067,0-1.535,0.984-1.619,1.715
		H76.83z"/>
	<path fill="#FFFFFF" d="M79.159,285.098c0-0.6-0.012-1.091-0.048-1.57h0.936l0.06,0.959h0.024c0.288-0.551,0.959-1.091,1.919-1.091
		c0.803,0,2.051,0.479,2.051,2.47v3.467h-1.056v-3.346c0-0.936-0.348-1.715-1.343-1.715c-0.695,0-1.235,0.491-1.415,1.078
		c-0.048,0.133-0.072,0.312-0.072,0.492v3.49h-1.056V285.098z"/>
	<path fill="#FFFFFF" d="M89.033,289.333l-0.084-0.731h-0.036c-0.324,0.456-0.947,0.863-1.775,0.863
		c-1.175,0-1.775-0.827-1.775-1.667c0-1.403,1.247-2.171,3.49-2.158v-0.121c0-0.479-0.132-1.343-1.319-1.343
		c-0.54,0-1.104,0.168-1.511,0.432l-0.24-0.695c0.48-0.312,1.175-0.516,1.907-0.516c1.775,0,2.207,1.211,2.207,2.374v2.172
		c0,0.503,0.024,0.994,0.096,1.391H89.033z M88.877,286.37c-1.151-0.023-2.458,0.181-2.458,1.308c0,0.684,0.456,1.008,0.996,1.008
		c0.755,0,1.235-0.479,1.403-0.972c0.036-0.107,0.06-0.229,0.06-0.336V286.37z"/>
	<path fill="#FFFFFF" d="M91.603,280.817h1.056v8.516h-1.056V280.817z"/>
	<path fill="#FFFFFF" d="M98.059,281.249v8.084h-1.043v-8.084H98.059z"/>
	<path fill="#FFFFFF" d="M99.967,285.098c0-0.6-0.012-1.091-0.048-1.57h0.936l0.06,0.959h0.024c0.288-0.551,0.959-1.091,1.919-1.091
		c0.803,0,2.051,0.479,2.051,2.47v3.467h-1.056v-3.346c0-0.936-0.348-1.715-1.343-1.715c-0.695,0-1.235,0.491-1.415,1.078
		c-0.048,0.133-0.072,0.312-0.072,0.492v3.49h-1.056V285.098z"/>
	<path fill="#FFFFFF" d="M106.483,288.252c0.312,0.205,0.864,0.42,1.392,0.42c0.768,0,1.127-0.383,1.127-0.863
		c0-0.504-0.3-0.779-1.079-1.067c-1.043-0.372-1.535-0.947-1.535-1.644c0-0.935,0.755-1.702,2.003-1.702
		c0.587,0,1.103,0.167,1.427,0.359l-0.264,0.768c-0.228-0.144-0.647-0.335-1.187-0.335c-0.624,0-0.972,0.359-0.972,0.791
		c0,0.479,0.348,0.695,1.104,0.983c1.007,0.384,1.523,0.888,1.523,1.751c0,1.02-0.792,1.739-2.171,1.739
		c-0.635,0-1.223-0.156-1.631-0.396L106.483,288.252z"/>
	<path fill="#FFFFFF" d="M116.236,287.75c0,0.6,0.012,1.128,0.048,1.583h-0.936l-0.06-0.947h-0.024
		c-0.276,0.468-0.887,1.079-1.919,1.079c-0.911,0-2.003-0.503-2.003-2.542v-3.395h1.056v3.214c0,1.104,0.336,1.847,1.295,1.847
		c0.708,0,1.199-0.491,1.391-0.959c0.06-0.156,0.096-0.348,0.096-0.539v-3.562h1.056V287.75z"/>
	<path fill="#FFFFFF" d="M125.259,281.848c-0.264-0.168-0.696-0.312-1.175-0.312c-1.116,0-1.451,0.78-1.451,1.703v0.288h3.382v5.805
		h-1.055v-5.002h-2.315v5.002h-1.055v-5.002h-2.447v5.002h-1.043v-5.002h-0.815v-0.803h0.815v-0.216
		c0-0.731,0.192-1.439,0.696-1.931c0.335-0.348,0.839-0.564,1.487-0.564c0.396,0,0.804,0.145,1.02,0.252l-0.288,0.779
		c-0.18-0.096-0.456-0.203-0.732-0.203c-0.335,0-0.575,0.119-0.755,0.312c-0.288,0.312-0.384,0.839-0.384,1.343v0.229h2.447v-0.312
		c0-1.535,0.912-2.53,2.542-2.53c0.528,0,1.127,0.156,1.439,0.372L125.259,281.848z"/>
	<path fill="#FFFFFF" d="M131.908,289.117c-0.276,0.144-0.888,0.336-1.667,0.336c-1.751,0-2.891-1.188-2.891-2.962
		c0-1.787,1.224-3.083,3.119-3.083c0.624,0,1.175,0.155,1.463,0.3l-0.24,0.815c-0.252-0.144-0.647-0.275-1.223-0.275
		c-1.332,0-2.051,0.983-2.051,2.194c0,1.344,0.864,2.171,2.015,2.171c0.6,0,0.996-0.155,1.295-0.288L131.908,289.117z"/>
	<path fill="#FFFFFF" d="M134.322,281.897c0.012,0.359-0.252,0.647-0.671,0.647c-0.372,0-0.636-0.288-0.636-0.647
		c0-0.372,0.276-0.66,0.66-0.66C134.07,281.237,134.322,281.525,134.322,281.897z M133.146,289.333v-5.805h1.056v5.805H133.146z"/>
	<path fill="#FFFFFF" d="M136.542,286.622c0.024,1.428,0.935,2.016,1.991,2.016c0.755,0,1.211-0.133,1.607-0.301l0.18,0.756
		c-0.372,0.168-1.007,0.36-1.931,0.36c-1.787,0-2.854-1.176-2.854-2.927s1.032-3.13,2.723-3.13c1.895,0,2.399,1.667,2.399,2.734
		c0,0.216-0.024,0.384-0.036,0.491H136.542z M139.637,285.866c0.012-0.671-0.276-1.715-1.463-1.715
		c-1.067,0-1.535,0.984-1.619,1.715H139.637z"/>
	<path fill="#FFFFFF" d="M141.966,285.098c0-0.6-0.012-1.091-0.048-1.57h0.936l0.06,0.959h0.024
		c0.288-0.551,0.959-1.091,1.919-1.091c0.803,0,2.051,0.479,2.051,2.47v3.467h-1.056v-3.346c0-0.936-0.348-1.715-1.343-1.715
		c-0.695,0-1.235,0.491-1.415,1.078c-0.048,0.133-0.072,0.312-0.072,0.492v3.49h-1.056V285.098z"/>
	<path fill="#FFFFFF" d="M152.764,289.117c-0.276,0.144-0.888,0.336-1.667,0.336c-1.751,0-2.891-1.188-2.891-2.962
		c0-1.787,1.224-3.083,3.119-3.083c0.624,0,1.175,0.155,1.463,0.3l-0.24,0.815c-0.252-0.144-0.647-0.275-1.223-0.275
		c-1.332,0-2.051,0.983-2.051,2.194c0,1.344,0.864,2.171,2.015,2.171c0.6,0,0.996-0.155,1.295-0.288L152.764,289.117z"/>
	<path fill="#FFFFFF" d="M154.602,283.528l1.271,3.43c0.132,0.385,0.276,0.84,0.372,1.188h0.024
		c0.108-0.348,0.228-0.791,0.372-1.211l1.151-3.406h1.115l-1.583,4.138c-0.756,1.991-1.271,3.011-1.991,3.634
		c-0.516,0.456-1.031,0.636-1.295,0.684l-0.264-0.887c0.264-0.084,0.612-0.252,0.924-0.517c0.288-0.228,0.647-0.636,0.887-1.175
		c0.048-0.108,0.084-0.192,0.084-0.252c0-0.061-0.024-0.145-0.072-0.275l-2.147-5.35H154.602z"/>
</g>
<rect x="46.75" y="226.333" fill="#FFFFFF" stroke="#000000" stroke-width="1.5" stroke-miterlimit="10" width="109" height="22"/>
<g>
	<path d="M53.33,237.245l4.797-2.229v1.059l-3.628,1.59v0.02l3.628,1.589v1.06l-4.797-2.229V237.245z"/>
	<path d="M61.15,240.333v-0.92l0.839-0.76c1.419-1.269,2.109-1.998,2.129-2.758c0-0.529-0.32-0.949-1.069-0.949
		c-0.56,0-1.049,0.279-1.389,0.539l-0.43-1.089c0.49-0.37,1.25-0.67,2.129-0.67c1.469,0,2.279,0.859,2.279,2.039
		c0,1.089-0.79,1.959-1.729,2.798l-0.6,0.5v0.02h2.449v1.25H61.15z"/>
	<path d="M71.037,235.085h-2.519l-0.14,0.999c0.14-0.02,0.26-0.02,0.42-0.02c0.62,0,1.25,0.14,1.709,0.47
		c0.49,0.329,0.79,0.87,0.79,1.629c0,1.21-1.039,2.278-2.788,2.278c-0.79,0-1.449-0.18-1.809-0.369l0.27-1.14
		c0.29,0.14,0.88,0.319,1.469,0.319c0.63,0,1.299-0.299,1.299-0.988c0-0.67-0.53-1.08-1.829-1.08c-0.359,0-0.609,0.02-0.879,0.061
		l0.43-3.408h3.578V235.085z"/>
	<path d="M77.047,237.054c0,2.009-0.81,3.388-2.469,3.388c-1.679,0-2.419-1.509-2.429-3.348c0-1.879,0.8-3.368,2.479-3.368
		C76.367,233.726,77.047,235.276,77.047,237.054z M73.679,237.094c-0.01,1.489,0.35,2.199,0.939,2.199
		c0.589,0,0.909-0.74,0.909-2.219c0-1.439-0.31-2.199-0.919-2.199C74.048,234.875,73.668,235.584,73.679,237.094z"/>
	<path d="M84.967,240.113c-0.32,0.159-0.959,0.319-1.779,0.319c-1.899,0-3.328-1.199-3.328-3.408c0-2.108,1.429-3.537,3.518-3.537
		c0.839,0,1.369,0.18,1.599,0.299l-0.21,0.71c-0.33-0.159-0.799-0.28-1.359-0.28c-1.579,0-2.628,1.01-2.628,2.779
		c0,1.648,0.95,2.708,2.588,2.708c0.53,0,1.07-0.11,1.419-0.28L84.967,240.113z"/>
	<path d="M90.297,237.874c0,1.789-1.24,2.568-2.409,2.568c-1.31,0-2.319-0.959-2.319-2.488c0-1.619,1.059-2.568,2.398-2.568
		C89.357,235.385,90.297,236.395,90.297,237.874z M86.459,237.924c0,1.059,0.609,1.858,1.469,1.858c0.84,0,1.469-0.79,1.469-1.879
		c0-0.819-0.41-1.858-1.449-1.858C86.909,236.045,86.459,237.004,86.459,237.924z"/>
	<path d="M91.409,237.004c0-0.57-0.01-1.06-0.04-1.51h0.77l0.03,0.95h0.04c0.22-0.649,0.75-1.06,1.339-1.06
		c0.1,0,0.169,0.01,0.25,0.029v0.83c-0.09-0.02-0.18-0.029-0.3-0.029c-0.62,0-1.06,0.469-1.179,1.129
		c-0.02,0.119-0.04,0.26-0.04,0.41v2.578h-0.87V237.004z"/>
	<path d="M95.979,234.106v1.389h1.259v0.67h-1.259v2.609c0,0.6,0.17,0.939,0.66,0.939c0.23,0,0.4-0.03,0.51-0.061l0.04,0.66
		c-0.17,0.069-0.44,0.119-0.78,0.119c-0.41,0-0.74-0.129-0.949-0.369c-0.25-0.26-0.34-0.689-0.34-1.26v-2.639h-0.75v-0.67h0.75
		v-1.158L95.979,234.106z"/>
	<path d="M99.208,234.135c0.01,0.301-0.21,0.541-0.56,0.541c-0.31,0-0.53-0.24-0.53-0.541c0-0.309,0.23-0.549,0.55-0.549
		C98.999,233.586,99.208,233.827,99.208,234.135z M98.229,240.333v-4.838h0.879v4.838H98.229z"/>
	<path d="M100.449,239.433c0.26,0.17,0.719,0.35,1.159,0.35c0.64,0,0.939-0.319,0.939-0.72c0-0.42-0.25-0.649-0.899-0.889
		c-0.87-0.311-1.279-0.79-1.279-1.369c0-0.78,0.629-1.42,1.669-1.42c0.49,0,0.919,0.141,1.189,0.3l-0.22,0.64
		c-0.19-0.12-0.54-0.279-0.99-0.279c-0.52,0-0.81,0.299-0.81,0.659c0,0.399,0.29,0.579,0.919,0.819c0.84,0.32,1.27,0.74,1.27,1.459
		c0,0.85-0.66,1.449-1.809,1.449c-0.53,0-1.02-0.129-1.359-0.33L100.449,239.433z"/>
	<path d="M108.907,237.874c0,1.789-1.24,2.568-2.409,2.568c-1.31,0-2.319-0.959-2.319-2.488c0-1.619,1.059-2.568,2.398-2.568
		C107.967,235.385,108.907,236.395,108.907,237.874z M105.069,237.924c0,1.059,0.609,1.858,1.469,1.858
		c0.84,0,1.469-0.79,1.469-1.879c0-0.819-0.41-1.858-1.449-1.858C105.519,236.045,105.069,237.004,105.069,237.924z"/>
	<path d="M110.019,233.237h0.879v7.096h-0.879V233.237z"/>
	<path d="M115.398,233.596v6.736h-0.869v-6.736H115.398z"/>
	<path d="M116.989,236.805c0-0.5-0.01-0.91-0.04-1.311h0.78l0.05,0.801h0.02c0.24-0.461,0.8-0.91,1.599-0.91
		c0.67,0,1.709,0.4,1.709,2.059v2.889h-0.879v-2.789c0-0.779-0.29-1.429-1.119-1.429c-0.58,0-1.03,0.409-1.18,0.899
		c-0.04,0.11-0.06,0.26-0.06,0.41v2.908h-0.879V236.805z"/>
	<path d="M125.987,240.153c-0.23,0.119-0.74,0.279-1.389,0.279c-1.459,0-2.409-0.989-2.409-2.469c0-1.488,1.02-2.568,2.599-2.568
		c0.52,0,0.979,0.131,1.219,0.25l-0.2,0.68c-0.209-0.12-0.54-0.23-1.019-0.23c-1.109,0-1.709,0.82-1.709,1.83
		c0,1.119,0.719,1.809,1.679,1.809c0.5,0,0.83-0.13,1.08-0.24L125.987,240.153z"/>
	<path d="M127.019,237.004c0-0.57-0.01-1.06-0.04-1.51h0.77l0.03,0.95h0.04c0.22-0.649,0.75-1.06,1.339-1.06
		c0.1,0,0.169,0.01,0.25,0.029v0.83c-0.09-0.02-0.18-0.029-0.3-0.029c-0.62,0-1.06,0.469-1.179,1.129
		c-0.02,0.119-0.04,0.26-0.04,0.41v2.578h-0.87V237.004z"/>
	<path d="M130.678,238.074c0.02,1.189,0.78,1.679,1.659,1.679c0.63,0,1.009-0.109,1.339-0.25l0.15,0.631
		c-0.31,0.139-0.84,0.299-1.609,0.299c-1.489,0-2.378-0.979-2.378-2.438c0-1.459,0.859-2.608,2.269-2.608
		c1.579,0,1.999,1.389,1.999,2.279c0,0.18-0.02,0.319-0.03,0.409H130.678z M133.257,237.444c0.01-0.56-0.23-1.429-1.219-1.429
		c-0.89,0-1.279,0.819-1.349,1.429H133.257z"/>
	<path d="M137.877,240.333l-0.07-0.609h-0.03c-0.27,0.379-0.79,0.719-1.479,0.719c-0.979,0-1.479-0.689-1.479-1.389
		c0-1.17,1.04-1.809,2.909-1.799v-0.1c0-0.4-0.11-1.12-1.1-1.12c-0.45,0-0.919,0.14-1.259,0.36l-0.2-0.58
		c0.4-0.26,0.979-0.43,1.589-0.43c1.479,0,1.839,1.01,1.839,1.979v1.81c0,0.419,0.02,0.829,0.08,1.159H137.877z M137.747,237.864
		c-0.959-0.02-2.049,0.15-2.049,1.09c0,0.569,0.379,0.84,0.83,0.84c0.629,0,1.029-0.4,1.169-0.811c0.03-0.09,0.05-0.189,0.05-0.279
		V237.864z"/>
	<path d="M139.898,239.433c0.26,0.17,0.719,0.35,1.159,0.35c0.64,0,0.939-0.319,0.939-0.72c0-0.42-0.25-0.649-0.899-0.889
		c-0.87-0.311-1.279-0.79-1.279-1.369c0-0.78,0.629-1.42,1.669-1.42c0.49,0,0.919,0.141,1.189,0.3l-0.22,0.64
		c-0.19-0.12-0.54-0.279-0.99-0.279c-0.52,0-0.81,0.299-0.81,0.659c0,0.399,0.29,0.579,0.919,0.819c0.84,0.32,1.27,0.74,1.27,1.459
		c0,0.85-0.66,1.449-1.809,1.449c-0.53,0-1.02-0.129-1.359-0.33L139.898,239.433z"/>
	<path d="M144.468,238.074c0.02,1.189,0.78,1.679,1.659,1.679c0.63,0,1.009-0.109,1.339-0.25l0.15,0.631
		c-0.31,0.139-0.84,0.299-1.609,0.299c-1.489,0-2.378-0.979-2.378-2.438c0-1.459,0.859-2.608,2.269-2.608
		c1.579,0,1.999,1.389,1.999,2.279c0,0.18-0.02,0.319-0.03,0.409H144.468z M147.046,237.444c0.01-0.56-0.23-1.429-1.219-1.429
		c-0.89,0-1.279,0.819-1.349,1.429H147.046z"/>
</g>
<rect x="250.25" y="226.333" fill="#FFFFFF" stroke="#000000" stroke-width="1.5" stroke-miterlimit="10" width="109" height="22"/>
<g>
	<path d="M261.627,238.133l-4.797,2.199v-1.06l3.708-1.589v-0.02l-3.708-1.59v-1.059l4.797,2.198V238.133z"/>
	<path d="M264.65,240.333v-0.92l0.839-0.76c1.419-1.269,2.109-1.998,2.129-2.758c0-0.529-0.32-0.949-1.069-0.949
		c-0.56,0-1.049,0.279-1.389,0.539l-0.43-1.089c0.49-0.37,1.25-0.67,2.129-0.67c1.469,0,2.279,0.859,2.279,2.039
		c0,1.089-0.79,1.959-1.729,2.798l-0.6,0.5v0.02h2.449v1.25H264.65z"/>
	<path d="M274.537,235.085h-2.519l-0.14,0.999c0.14-0.02,0.26-0.02,0.42-0.02c0.62,0,1.25,0.14,1.709,0.47
		c0.49,0.329,0.79,0.87,0.79,1.629c0,1.21-1.039,2.278-2.788,2.278c-0.79,0-1.449-0.18-1.809-0.369l0.27-1.14
		c0.29,0.14,0.88,0.319,1.469,0.319c0.63,0,1.299-0.299,1.299-0.988c0-0.67-0.53-1.08-1.829-1.08c-0.359,0-0.609,0.02-0.879,0.061
		l0.43-3.408h3.578V235.085z"/>
	<path d="M280.547,237.054c0,2.009-0.81,3.388-2.469,3.388c-1.679,0-2.419-1.509-2.429-3.348c0-1.879,0.8-3.368,2.479-3.368
		C279.867,233.726,280.547,235.276,280.547,237.054z M277.179,237.094c-0.01,1.489,0.35,2.199,0.939,2.199
		c0.589,0,0.909-0.74,0.909-2.219c0-1.439-0.31-2.199-0.919-2.199C277.548,234.875,277.168,235.584,277.179,237.094z"/>
	<path d="M288.467,240.113c-0.32,0.159-0.959,0.319-1.779,0.319c-1.899,0-3.328-1.199-3.328-3.408c0-2.108,1.429-3.537,3.518-3.537
		c0.839,0,1.369,0.18,1.599,0.299l-0.21,0.71c-0.33-0.159-0.799-0.28-1.359-0.28c-1.579,0-2.628,1.01-2.628,2.779
		c0,1.648,0.95,2.708,2.588,2.708c0.53,0,1.07-0.11,1.419-0.28L288.467,240.113z"/>
	<path d="M293.797,237.874c0,1.789-1.24,2.568-2.409,2.568c-1.31,0-2.319-0.959-2.319-2.488c0-1.619,1.059-2.568,2.398-2.568
		C292.857,235.385,293.797,236.395,293.797,237.874z M289.959,237.924c0,1.059,0.609,1.858,1.469,1.858
		c0.84,0,1.469-0.79,1.469-1.879c0-0.819-0.41-1.858-1.449-1.858C290.409,236.045,289.959,237.004,289.959,237.924z"/>
	<path d="M294.909,237.004c0-0.57-0.01-1.06-0.04-1.51h0.77l0.03,0.95h0.04c0.22-0.649,0.75-1.06,1.339-1.06
		c0.1,0,0.169,0.01,0.25,0.029v0.83c-0.09-0.02-0.18-0.029-0.3-0.029c-0.62,0-1.06,0.469-1.179,1.129
		c-0.02,0.119-0.04,0.26-0.04,0.41v2.578h-0.87V237.004z"/>
	<path d="M299.479,234.106v1.389h1.259v0.67h-1.259v2.609c0,0.6,0.17,0.939,0.66,0.939c0.23,0,0.4-0.03,0.51-0.061l0.04,0.66
		c-0.17,0.069-0.44,0.119-0.78,0.119c-0.41,0-0.74-0.129-0.949-0.369c-0.25-0.26-0.34-0.689-0.34-1.26v-2.639h-0.75v-0.67h0.75
		v-1.158L299.479,234.106z"/>
	<path d="M302.708,234.135c0.01,0.301-0.21,0.541-0.56,0.541c-0.31,0-0.53-0.24-0.53-0.541c0-0.309,0.23-0.549,0.55-0.549
		C302.499,233.586,302.708,233.827,302.708,234.135z M301.729,240.333v-4.838h0.879v4.838H301.729z"/>
	<path d="M303.949,239.433c0.26,0.17,0.719,0.35,1.159,0.35c0.64,0,0.939-0.319,0.939-0.72c0-0.42-0.25-0.649-0.899-0.889
		c-0.87-0.311-1.279-0.79-1.279-1.369c0-0.78,0.629-1.42,1.669-1.42c0.49,0,0.919,0.141,1.189,0.3l-0.22,0.64
		c-0.19-0.12-0.54-0.279-0.99-0.279c-0.52,0-0.81,0.299-0.81,0.659c0,0.399,0.29,0.579,0.919,0.819c0.84,0.32,1.27,0.74,1.27,1.459
		c0,0.85-0.66,1.449-1.809,1.449c-0.53,0-1.02-0.129-1.359-0.33L303.949,239.433z"/>
	<path d="M312.407,237.874c0,1.789-1.24,2.568-2.409,2.568c-1.31,0-2.319-0.959-2.319-2.488c0-1.619,1.059-2.568,2.398-2.568
		C311.467,235.385,312.407,236.395,312.407,237.874z M308.569,237.924c0,1.059,0.609,1.858,1.469,1.858
		c0.84,0,1.469-0.79,1.469-1.879c0-0.819-0.41-1.858-1.449-1.858C309.019,236.045,308.569,237.004,308.569,237.924z"/>
	<path d="M313.519,233.237h0.879v7.096h-0.879V233.237z"/>
	<path d="M318.898,233.596v6.736h-0.869v-6.736H318.898z"/>
	<path d="M320.489,236.805c0-0.5-0.01-0.91-0.04-1.311h0.78l0.05,0.801h0.02c0.24-0.461,0.8-0.91,1.599-0.91
		c0.67,0,1.709,0.4,1.709,2.059v2.889h-0.88v-2.789c0-0.779-0.289-1.429-1.119-1.429c-0.58,0-1.03,0.409-1.18,0.899
		c-0.04,0.11-0.06,0.26-0.06,0.41v2.908h-0.879V236.805z"/>
	<path d="M329.486,240.153c-0.229,0.119-0.739,0.279-1.389,0.279c-1.459,0-2.408-0.989-2.408-2.469c0-1.488,1.02-2.568,2.598-2.568
		c0.52,0,0.98,0.131,1.22,0.25l-0.2,0.68c-0.209-0.12-0.539-0.23-1.02-0.23c-1.109,0-1.709,0.82-1.709,1.83
		c0,1.119,0.72,1.809,1.68,1.809c0.5,0,0.829-0.13,1.079-0.24L329.486,240.153z"/>
	<path d="M330.519,237.004c0-0.57-0.01-1.06-0.04-1.51h0.77l0.03,0.95h0.04c0.22-0.649,0.75-1.06,1.34-1.06
		c0.1,0,0.169,0.01,0.249,0.029v0.83c-0.09-0.02-0.18-0.029-0.3-0.029c-0.619,0-1.06,0.469-1.18,1.129
		c-0.02,0.119-0.039,0.26-0.039,0.41v2.578h-0.87V237.004z"/>
	<path d="M334.178,238.074c0.021,1.189,0.78,1.679,1.66,1.679c0.629,0,1.009-0.109,1.339-0.25l0.149,0.631
		c-0.31,0.139-0.84,0.299-1.609,0.299c-1.488,0-2.378-0.979-2.378-2.438c0-1.459,0.859-2.608,2.269-2.608
		c1.579,0,1.999,1.389,1.999,2.279c0,0.18-0.021,0.319-0.03,0.409H334.178z M336.757,237.444c0.011-0.56-0.229-1.429-1.22-1.429
		c-0.889,0-1.279,0.819-1.349,1.429H336.757z"/>
	<path d="M341.377,240.333l-0.07-0.609h-0.029c-0.271,0.379-0.79,0.719-1.479,0.719c-0.979,0-1.479-0.689-1.479-1.389
		c0-1.17,1.039-1.809,2.908-1.799v-0.1c0-0.4-0.109-1.12-1.1-1.12c-0.449,0-0.919,0.14-1.259,0.36l-0.2-0.58
		c0.4-0.26,0.98-0.43,1.59-0.43c1.479,0,1.839,1.01,1.839,1.979v1.81c0,0.419,0.021,0.829,0.079,1.159H341.377z M341.247,237.864
		c-0.96-0.02-2.049,0.15-2.049,1.09c0,0.569,0.38,0.84,0.829,0.84c0.63,0,1.029-0.4,1.17-0.811c0.029-0.09,0.05-0.189,0.05-0.279
		V237.864z"/>
	<path d="M343.398,239.433c0.26,0.17,0.719,0.35,1.159,0.35c0.64,0,0.939-0.319,0.939-0.72c0-0.42-0.25-0.649-0.899-0.889
		c-0.869-0.311-1.279-0.79-1.279-1.369c0-0.78,0.629-1.42,1.669-1.42c0.489,0,0.919,0.141,1.189,0.3l-0.22,0.64
		c-0.189-0.12-0.54-0.279-0.99-0.279c-0.52,0-0.809,0.299-0.809,0.659c0,0.399,0.289,0.579,0.919,0.819
		c0.84,0.32,1.27,0.74,1.27,1.459c0,0.85-0.659,1.449-1.81,1.449c-0.529,0-1.02-0.129-1.359-0.33L343.398,239.433z"/>
	<path d="M347.968,238.074c0.021,1.189,0.78,1.679,1.659,1.679c0.63,0,1.01-0.109,1.34-0.25l0.149,0.631
		c-0.31,0.139-0.84,0.299-1.609,0.299c-1.489,0-2.378-0.979-2.378-2.438c0-1.459,0.859-2.608,2.268-2.608c1.58,0,2,1.389,2,2.279
		c0,0.18-0.021,0.319-0.03,0.409H347.968z M350.547,237.444c0.01-0.56-0.23-1.429-1.22-1.429c-0.89,0-1.279,0.819-1.349,1.429
		H350.547z"/>
</g>
<g>
	<g>
		<polyline fill="none" stroke="#000000" stroke-width="1.5" stroke-miterlimit="10" points="141,183.333 107.5,183.333 
			107.5,220.538 		"/>
		<g>
			<polygon points="107.5,225.833 104.451,218.371 107.5,220.141 110.548,218.371 			"/>
		</g>
	</g>
</g>
<g>
	<g>
		<line fill="none" stroke="#000000" stroke-width="1.5" stroke-miterlimit="10" x1="107.5" y1="247.833" x2="107.5" y2="264.538"/>
		<g>
			<polygon points="107.5,269.833 104.451,262.371 107.5,264.141 110.548,262.371 			"/>
		</g>
	</g>
</g>
<g>
	<g>
		<line fill="none" stroke="#000000" stroke-width="1.5" stroke-miterlimit="10" x1="212.5" y1="102.833" x2="212.5" y2="164.037"/>
		<g>
			<polygon points="212.5,169.333 209.451,161.871 212.5,163.641 215.548,161.871 			"/>
		</g>
	</g>
</g>
<g>
	<g>
		<polyline fill="none" stroke="#000000" stroke-width="1.5" stroke-miterlimit="10" points="271.5,37.333 298,37.333 298,75.037 		
			"/>
		<g>
			<polygon points="298,80.333 294.951,72.871 298,74.641 301.048,72.871 			"/>
		</g>
	</g>
</g>
<rect x="291" y="271.833" fill="#39B54A" stroke="#000000" stroke-width="1.5" stroke-miterlimit="10" width="57" height="26.5"/>
<g>
	<path fill="#FFFFFF" d="M301.912,289.333v-8.084h1.139l2.591,4.09c0.6,0.947,1.067,1.799,1.451,2.627l0.024-0.012
		c-0.096-1.08-0.12-2.062-0.12-3.322v-3.383h0.983v8.084h-1.055l-2.566-4.102c-0.564-0.9-1.104-1.823-1.511-2.699l-0.036,0.013
		c0.06,1.019,0.084,1.991,0.084,3.334v3.454H301.912z"/>
	<path fill="#FFFFFF" d="M315.024,286.382c0,2.146-1.487,3.082-2.89,3.082c-1.571,0-2.783-1.151-2.783-2.986
		c0-1.942,1.271-3.082,2.878-3.082C313.897,283.396,315.024,284.607,315.024,286.382z M310.419,286.442
		c0,1.271,0.732,2.23,1.763,2.23c1.007,0,1.763-0.947,1.763-2.254c0-0.984-0.492-2.23-1.739-2.23
		C310.959,284.188,310.419,285.338,310.419,286.442z"/>
	<path fill="#FFFFFF" d="M316.359,285.338c0-0.684-0.012-1.271-0.048-1.811h0.923l0.036,1.139h0.048
		c0.264-0.779,0.899-1.271,1.607-1.271c0.12,0,0.204,0.012,0.3,0.036v0.995c-0.108-0.024-0.216-0.036-0.359-0.036
		c-0.744,0-1.271,0.564-1.416,1.355c-0.024,0.145-0.048,0.312-0.048,0.492v3.094h-1.043V285.338z"/>
	<path fill="#FFFFFF" d="M320.331,285.098c0-0.6-0.012-1.091-0.048-1.57h0.923l0.048,0.936h0.036
		c0.324-0.552,0.864-1.067,1.823-1.067c0.792,0,1.392,0.479,1.644,1.163h0.024c0.18-0.324,0.407-0.576,0.646-0.756
		c0.348-0.264,0.732-0.407,1.283-0.407c0.768,0,1.908,0.503,1.908,2.519v3.418h-1.032v-3.286c0-1.115-0.407-1.787-1.259-1.787
		c-0.6,0-1.068,0.444-1.248,0.96c-0.047,0.144-0.084,0.336-0.084,0.527v3.586h-1.031v-3.479c0-0.923-0.408-1.595-1.211-1.595
		c-0.66,0-1.14,0.528-1.308,1.056c-0.06,0.156-0.084,0.336-0.084,0.516v3.502h-1.031V285.098z"/>
	<path fill="#FFFFFF" d="M333.553,289.333l-0.084-0.731h-0.035c-0.324,0.456-0.947,0.863-1.775,0.863
		c-1.176,0-1.775-0.827-1.775-1.667c0-1.403,1.248-2.171,3.49-2.158v-0.121c0-0.479-0.132-1.343-1.319-1.343
		c-0.54,0-1.103,0.168-1.511,0.432l-0.24-0.695c0.48-0.312,1.176-0.516,1.907-0.516c1.774,0,2.206,1.211,2.206,2.374v2.172
		c0,0.503,0.024,0.994,0.097,1.391H333.553z M333.397,286.37c-1.151-0.023-2.459,0.181-2.459,1.308c0,0.684,0.456,1.008,0.995,1.008
		c0.756,0,1.236-0.479,1.404-0.972c0.035-0.107,0.06-0.229,0.06-0.336V286.37z"/>
	<path fill="#FFFFFF" d="M336.123,280.817h1.055v8.516h-1.055V280.817z"/>
</g>
<g>
	<g>
		<line fill="none" stroke="#000000" stroke-width="1.5" stroke-miterlimit="10" x1="305.5" y1="248.833" x2="305.5" y2="265.538"/>
		<g>
			<polygon points="305.5,270.833 302.451,263.371 305.5,265.141 308.548,263.371 			"/>
		</g>
	</g>
</g>
<g>
	<g>
		<polyline fill="none" stroke="#000000" stroke-width="1.5" stroke-miterlimit="10" points="278.5,182.833 305,182.833 
			305,220.538 		"/>
		<g>
			<polygon points="305,225.833 301.951,218.371 305,220.141 308.048,218.371 			"/>
		</g>
	</g>
</g>
</svg>
