<?xml version="1.0" encoding="utf-8"?>
<!-- Generator: Adobe Illustrator 16.0.0, SVG Export Plug-In . SVG Version: 6.00 Build 0)  -->
<!DOCTYPE svg PUBLIC "-//W3C//DTD SVG 1.1//EN" "http://www.w3.org/Graphics/SVG/1.1/DTD/svg11.dtd">
<svg version="1.1" id="Layer_1" xmlns="http://www.w3.org/2000/svg" xmlns:xlink="http://www.w3.org/1999/xlink" x="0px" y="0px"
	 width="416px" height="209px" viewBox="0 0 416 209" enable-background="new 0 0 416 209" xml:space="preserve">
<rect x="24.667" y="93.333" fill="#FFFFFF" stroke="#000000" stroke-width="1.5" stroke-miterlimit="10" width="107.833" height="26"/>
<g>
	<path d="M42.293,101.75v3.106h3.01v-3.106h1.823v8.083h-1.823v-3.382h-3.01v3.382h-1.835v-8.083H42.293z"/>
	<path d="M50.033,103.968l0.875,2.878c0.096,0.348,0.216,0.779,0.288,1.091h0.036c0.084-0.312,0.18-0.755,0.264-1.091l0.72-2.878
		h1.955l-1.368,3.862c-0.839,2.327-1.403,3.262-2.062,3.85c-0.636,0.551-1.308,0.744-1.763,0.803l-0.384-1.547
		c0.228-0.036,0.516-0.144,0.792-0.312c0.276-0.144,0.576-0.432,0.755-0.731c0.06-0.084,0.096-0.18,0.096-0.264
		c0-0.06-0.012-0.156-0.084-0.3l-2.147-5.361H50.033z"/>
	<path d="M54.942,105.935c0-0.768-0.024-1.427-0.048-1.967h1.583l0.084,0.815h0.024c0.432-0.624,1.104-0.947,1.955-0.947
		c1.283,0,2.435,1.115,2.435,2.986c0,2.135-1.355,3.142-2.663,3.142c-0.708,0-1.259-0.288-1.523-0.671h-0.024v2.914h-1.823V105.935z
		 M56.765,107.314c0,0.144,0.012,0.276,0.036,0.384c0.12,0.492,0.54,0.863,1.067,0.863c0.792,0,1.259-0.66,1.259-1.655
		c0-0.936-0.42-1.643-1.235-1.643c-0.516,0-0.972,0.384-1.091,0.923c-0.024,0.096-0.036,0.216-0.036,0.324V107.314z"/>
	<path d="M67.947,106.834c0,2.147-1.523,3.13-3.094,3.13c-1.715,0-3.034-1.127-3.034-3.022c0-1.895,1.247-3.106,3.13-3.106
		C66.748,103.836,67.947,105.072,67.947,106.834z M63.701,106.895c0,1.007,0.42,1.763,1.199,1.763c0.708,0,1.164-0.708,1.164-1.763
		c0-0.875-0.336-1.763-1.164-1.763C64.025,105.132,63.701,106.031,63.701,106.895z"/>
	<path d="M71.117,102.289v1.679h1.307v1.343h-1.307v2.123c0,0.708,0.168,1.031,0.72,1.031c0.228,0,0.408-0.024,0.54-0.048
		l0.012,1.379c-0.24,0.096-0.672,0.156-1.188,0.156c-0.588,0-1.08-0.204-1.367-0.504c-0.336-0.348-0.504-0.912-0.504-1.739v-2.398
		H68.55v-1.343h0.779v-1.271L71.117,102.289z"/>
	<path d="M73.481,101.318h1.823v3.346h0.024c0.192-0.252,0.432-0.444,0.72-0.6c0.264-0.144,0.611-0.228,0.947-0.228
		c1.164,0,2.051,0.803,2.051,2.566v3.43h-1.823v-3.226c0-0.768-0.264-1.295-0.948-1.295c-0.479,0-0.779,0.312-0.911,0.636
		c-0.048,0.12-0.06,0.276-0.06,0.408v3.478h-1.823V101.318z"/>
	<path d="M83.848,109.833l-0.108-0.588h-0.036c-0.384,0.468-0.983,0.72-1.679,0.72c-1.187,0-1.895-0.863-1.895-1.799
		c0-1.523,1.367-2.255,3.442-2.243v-0.084c0-0.312-0.168-0.756-1.067-0.756c-0.6,0-1.235,0.204-1.619,0.444l-0.336-1.175
		c0.408-0.228,1.211-0.516,2.279-0.516c1.955,0,2.579,1.151,2.579,2.53v2.039c0,0.564,0.024,1.104,0.084,1.427H83.848z
		 M83.632,107.062c-0.959-0.012-1.703,0.216-1.703,0.923c0,0.468,0.312,0.696,0.719,0.696c0.456,0,0.828-0.3,0.948-0.672
		c0.024-0.096,0.036-0.204,0.036-0.312V107.062z"/>
	<path d="M86.85,101.318h1.823v8.515H86.85V101.318z"/>
	<path d="M93.484,109.833l-0.108-0.588H93.34c-0.384,0.468-0.983,0.72-1.679,0.72c-1.188,0-1.895-0.863-1.895-1.799
		c0-1.523,1.367-2.255,3.442-2.243v-0.084c0-0.312-0.168-0.756-1.067-0.756c-0.6,0-1.235,0.204-1.619,0.444l-0.336-1.175
		c0.408-0.228,1.211-0.516,2.279-0.516c1.955,0,2.579,1.151,2.579,2.53v2.039c0,0.564,0.024,1.104,0.084,1.427H93.484z
		 M93.268,107.062c-0.959-0.012-1.703,0.216-1.703,0.923c0,0.468,0.312,0.696,0.719,0.696c0.456,0,0.828-0.3,0.948-0.672
		c0.024-0.096,0.036-0.204,0.036-0.312V107.062z"/>
	<path d="M96.485,105.839c0-0.732-0.024-1.355-0.048-1.871h1.535l0.084,0.792h0.036c0.251-0.372,0.768-0.923,1.775-0.923
		c0.755,0,1.355,0.384,1.607,0.995h0.024c0.216-0.3,0.48-0.54,0.756-0.708c0.324-0.192,0.684-0.288,1.115-0.288
		c1.127,0,1.979,0.792,1.979,2.542v3.454h-1.775v-3.19c0-0.852-0.276-1.343-0.864-1.343c-0.419,0-0.719,0.288-0.839,0.636
		c-0.048,0.132-0.072,0.324-0.072,0.468v3.43h-1.775v-3.286c0-0.744-0.264-1.248-0.839-1.248c-0.468,0-0.744,0.36-0.852,0.66
		c-0.06,0.144-0.072,0.312-0.072,0.456v3.418h-1.775V105.839z"/>
	<path d="M112.334,107.95c0,0.768,0.024,1.391,0.048,1.883h-1.583l-0.084-0.828h-0.036c-0.228,0.36-0.78,0.959-1.835,0.959
		c-1.188,0-2.063-0.744-2.063-2.555v-3.442h1.835v3.154c0,0.852,0.276,1.367,0.912,1.367c0.504,0,0.792-0.348,0.912-0.636
		c0.048-0.108,0.06-0.252,0.06-0.396v-3.49h1.835V107.95z"/>
	<path d="M113.79,108.238c0.336,0.204,1.031,0.444,1.571,0.444c0.552,0,0.78-0.192,0.78-0.492s-0.18-0.444-0.863-0.672
		c-1.211-0.408-1.679-1.067-1.667-1.763c0-1.091,0.936-1.919,2.387-1.919c0.684,0,1.295,0.156,1.655,0.335l-0.324,1.26
		c-0.264-0.144-0.768-0.336-1.271-0.336c-0.444,0-0.696,0.18-0.696,0.479c0,0.276,0.228,0.42,0.948,0.672
		c1.115,0.384,1.583,0.947,1.595,1.811c0,1.091-0.864,1.895-2.543,1.895c-0.768,0-1.451-0.168-1.895-0.408L113.79,108.238z"/>
</g>
<rect x="187.333" y="93.333" fill="#FFFFFF" stroke="#000000" stroke-width="1.5" stroke-miterlimit="10" width="76.5" height="26"/>
<g>
	<path d="M203.125,101.857c0.564-0.096,1.355-0.168,2.471-0.168c1.127,0,1.931,0.216,2.471,0.647
		c0.516,0.408,0.863,1.08,0.863,1.871s-0.264,1.463-0.744,1.919c-0.624,0.588-1.547,0.852-2.626,0.852
		c-0.24,0-0.456-0.012-0.624-0.036v2.891h-1.811V101.857z M204.936,105.527c0.156,0.036,0.348,0.048,0.612,0.048
		c0.971,0,1.571-0.492,1.571-1.319c0-0.743-0.516-1.187-1.427-1.187c-0.372,0-0.624,0.036-0.756,0.072V105.527z"/>
	<path d="M211.812,102.337c0,0.504-0.384,0.912-0.984,0.912c-0.575,0-0.959-0.408-0.947-0.912c-0.012-0.527,0.372-0.923,0.959-0.923
		C211.428,101.414,211.8,101.81,211.812,102.337z M209.929,109.833v-5.865h1.823v5.865H209.929z"/>
	<path d="M215.255,102.289v1.679h1.307v1.343h-1.307v2.123c0,0.708,0.168,1.031,0.72,1.031c0.228,0,0.408-0.024,0.54-0.048
		l0.012,1.379c-0.24,0.096-0.672,0.156-1.188,0.156c-0.588,0-1.08-0.204-1.367-0.504c-0.336-0.348-0.504-0.912-0.504-1.739v-2.398
		h-0.779v-1.343h0.779v-1.271L215.255,102.289z"/>
	<path d="M223.149,107.95c0,0.768,0.024,1.391,0.048,1.883h-1.583l-0.084-0.828h-0.036c-0.228,0.36-0.78,0.959-1.835,0.959
		c-1.188,0-2.063-0.744-2.063-2.555v-3.442h1.835v3.154c0,0.852,0.276,1.367,0.912,1.367c0.504,0,0.792-0.348,0.912-0.636
		c0.048-0.108,0.06-0.252,0.06-0.396v-3.49h1.835V107.95z"/>
	<path d="M226.5,102.337c0,0.504-0.384,0.912-0.984,0.912c-0.575,0-0.959-0.408-0.947-0.912c-0.012-0.527,0.372-0.923,0.959-0.923
		C226.116,101.414,226.487,101.81,226.5,102.337z M224.616,109.833v-5.865h1.823v5.865H224.616z"/>
	<path d="M229.943,102.289v1.679h1.307v1.343h-1.307v2.123c0,0.708,0.168,1.031,0.72,1.031c0.228,0,0.408-0.024,0.54-0.048
		l0.012,1.379c-0.24,0.096-0.672,0.156-1.188,0.156c-0.588,0-1.08-0.204-1.367-0.504c-0.336-0.348-0.504-0.912-0.504-1.739v-2.398
		h-0.779v-1.343h0.779v-1.271L229.943,102.289z"/>
	<path d="M235.642,109.833l-0.108-0.588h-0.036c-0.384,0.468-0.983,0.72-1.679,0.72c-1.187,0-1.895-0.863-1.895-1.799
		c0-1.523,1.367-2.255,3.442-2.243v-0.084c0-0.312-0.168-0.756-1.067-0.756c-0.6,0-1.235,0.204-1.619,0.444l-0.336-1.175
		c0.408-0.228,1.211-0.516,2.279-0.516c1.955,0,2.579,1.151,2.579,2.53v2.039c0,0.564,0.024,1.104,0.084,1.427H235.642z
		 M235.426,107.062c-0.959-0.012-1.703,0.216-1.703,0.923c0,0.468,0.312,0.696,0.719,0.696c0.456,0,0.828-0.3,0.948-0.672
		c0.024-0.096,0.036-0.204,0.036-0.312V107.062z"/>
	<path d="M238.644,105.899c0-0.864-0.024-1.427-0.048-1.931h1.571l0.06,1.08h0.048c0.3-0.852,1.02-1.211,1.583-1.211
		c0.168,0,0.252,0,0.384,0.024v1.715c-0.132-0.024-0.288-0.048-0.492-0.048c-0.671,0-1.127,0.36-1.248,0.923
		c-0.024,0.12-0.036,0.264-0.036,0.408v2.975h-1.823V105.899z"/>
	<path d="M244.787,103.968l0.875,2.878c0.096,0.348,0.216,0.779,0.288,1.091h0.036c0.084-0.312,0.18-0.755,0.264-1.091l0.72-2.878
		h1.955l-1.368,3.862c-0.839,2.327-1.403,3.262-2.062,3.85c-0.636,0.551-1.308,0.744-1.763,0.803l-0.384-1.547
		c0.228-0.036,0.516-0.144,0.792-0.312c0.276-0.144,0.576-0.432,0.755-0.731c0.06-0.084,0.096-0.18,0.096-0.264
		c0-0.06-0.012-0.156-0.084-0.3l-2.147-5.361H244.787z"/>
</g>
<rect x="288" y="62" fill="#FFFFFF" stroke="#000000" stroke-width="1.5" stroke-miterlimit="10" width="89.166" height="26"/>
<g>
	<path d="M303.791,70.416h1.836v6.548h3.214V78.5h-5.05V70.416z"/>
	<path d="M311.158,76.149c0.061,0.755,0.805,1.115,1.656,1.115c0.623,0,1.127-0.084,1.619-0.24l0.239,1.235
		c-0.6,0.24-1.331,0.36-2.123,0.36c-1.991,0-3.13-1.151-3.13-2.986c0-1.487,0.924-3.13,2.962-3.13c1.896,0,2.614,1.475,2.614,2.926
		c0,0.312-0.035,0.588-0.06,0.72H311.158z M313.306,74.901c0-0.444-0.192-1.187-1.032-1.187c-0.768,0-1.078,0.695-1.127,1.187
		H313.306z"/>
	<path d="M317.387,72.635l0.876,2.878c0.096,0.348,0.216,0.779,0.288,1.091h0.035c0.084-0.312,0.18-0.755,0.264-1.091l0.721-2.878
		h1.954l-1.367,3.862c-0.839,2.327-1.403,3.262-2.062,3.85c-0.636,0.551-1.308,0.744-1.763,0.803l-0.385-1.547
		c0.229-0.036,0.516-0.144,0.792-0.312c0.276-0.144,0.575-0.432,0.756-0.731c0.06-0.084,0.096-0.18,0.096-0.264
		c0-0.06-0.013-0.156-0.084-0.3l-2.147-5.361H317.387z"/>
	<path d="M327.801,69.984v6.764c0,0.66,0.023,1.355,0.047,1.751h-1.619l-0.084-0.863h-0.023c-0.371,0.659-1.079,0.995-1.835,0.995
		c-1.392,0-2.507-1.188-2.507-3.01c-0.012-1.979,1.224-3.118,2.627-3.118c0.72,0,1.283,0.252,1.547,0.66h0.023v-3.178H327.801z
		 M325.977,75.117c0-0.096-0.012-0.228-0.023-0.324c-0.107-0.492-0.504-0.899-1.067-0.899c-0.827,0-1.259,0.744-1.259,1.667
		c0,0.996,0.491,1.619,1.247,1.619c0.527,0,0.947-0.36,1.056-0.875c0.035-0.132,0.047-0.264,0.047-0.42V75.117z"/>
	<path d="M331.15,71.003c0,0.504-0.383,0.912-0.983,0.912c-0.575,0-0.959-0.408-0.947-0.912c-0.012-0.527,0.372-0.923,0.96-0.923
		S331.139,70.476,331.15,71.003z M329.268,78.5v-5.865h1.823V78.5H329.268z"/>
	<path d="M338.156,72.635c-0.023,0.372-0.048,0.863-0.048,1.739v3.274c0,1.127-0.228,2.051-0.888,2.639
		c-0.647,0.552-1.523,0.72-2.387,0.72c-0.768,0-1.583-0.156-2.111-0.456l0.36-1.379c0.372,0.216,1.02,0.443,1.703,0.443
		c0.863,0,1.522-0.468,1.522-1.547v-0.384h-0.023c-0.348,0.492-0.911,0.768-1.583,0.768c-1.451,0-2.482-1.175-2.482-2.867
		c0-1.883,1.224-3.082,2.662-3.082c0.804,0,1.308,0.348,1.607,0.828h0.024l0.06-0.696H338.156z M336.285,75.021
		c0-0.12-0.012-0.24-0.035-0.336c-0.133-0.479-0.48-0.804-0.984-0.804c-0.659,0-1.199,0.6-1.199,1.667
		c0,0.875,0.432,1.559,1.199,1.559c0.468,0,0.84-0.312,0.959-0.744c0.049-0.132,0.061-0.324,0.061-0.48V75.021z"/>
	<path d="M347.996,78.271c-0.336,0.168-1.092,0.348-2.075,0.348c-2.794,0-4.233-1.739-4.233-4.042c0-2.758,1.967-4.293,4.414-4.293
		c0.947,0,1.666,0.192,1.99,0.36l-0.371,1.451c-0.373-0.156-0.889-0.3-1.535-0.3c-1.451,0-2.579,0.875-2.579,2.674
		c0,1.619,0.96,2.639,2.591,2.639c0.551,0,1.163-0.12,1.523-0.264L347.996,78.271z"/>
	<path d="M350.314,76.149c0.061,0.755,0.804,1.115,1.655,1.115c0.624,0,1.128-0.084,1.619-0.24l0.239,1.235
		c-0.6,0.24-1.331,0.36-2.123,0.36c-1.99,0-3.129-1.151-3.129-2.986c0-1.487,0.923-3.13,2.962-3.13c1.895,0,2.614,1.475,2.614,2.926
		c0,0.312-0.036,0.588-0.061,0.72H350.314z M352.461,74.901c0-0.444-0.191-1.187-1.031-1.187c-0.768,0-1.079,0.695-1.127,1.187
		H352.461z"/>
	<path d="M355.247,69.984h1.823V78.5h-1.823V69.984z"/>
	<path d="M358.547,69.984h1.823V78.5h-1.823V69.984z"/>
	<path d="M361.835,76.904c0.336,0.204,1.031,0.444,1.571,0.444c0.551,0,0.779-0.192,0.779-0.492s-0.18-0.444-0.863-0.672
		c-1.211-0.408-1.68-1.067-1.668-1.763c0-1.091,0.936-1.919,2.387-1.919c0.684,0,1.296,0.156,1.656,0.335l-0.324,1.26
		c-0.264-0.144-0.768-0.336-1.271-0.336c-0.443,0-0.695,0.18-0.695,0.479c0,0.276,0.228,0.42,0.947,0.672
		c1.115,0.384,1.583,0.947,1.596,1.811c0,1.091-0.864,1.895-2.543,1.895c-0.768,0-1.451-0.168-1.895-0.408L361.835,76.904z"/>
</g>
<rect x="288" y="122" fill="#FFFFFF" stroke="#000000" stroke-width="1.5" stroke-miterlimit="10" width="89.166" height="26"/>
<g>
	<path d="M303.852,136.617c0.492,0.252,1.247,0.503,2.027,0.503c0.839,0,1.283-0.348,1.283-0.875c0-0.503-0.385-0.792-1.355-1.139
		c-1.344-0.468-2.219-1.211-2.219-2.387c0-1.379,1.151-2.435,3.059-2.435c0.911,0,1.582,0.192,2.062,0.408l-0.408,1.475
		c-0.324-0.156-0.899-0.384-1.691-0.384c-0.791,0-1.175,0.36-1.175,0.78c0,0.516,0.456,0.743,1.499,1.139
		c1.428,0.528,2.1,1.271,2.1,2.411c0,1.355-1.044,2.507-3.263,2.507c-0.923,0-1.835-0.24-2.291-0.492L303.852,136.617z"/>
	<path d="M311.699,136.149c0.06,0.755,0.803,1.115,1.654,1.115c0.624,0,1.128-0.084,1.619-0.24l0.24,1.235
		c-0.6,0.24-1.331,0.36-2.123,0.36c-1.99,0-3.13-1.151-3.13-2.986c0-1.487,0.923-3.13,2.962-3.13c1.895,0,2.615,1.475,2.615,2.926
		c0,0.312-0.037,0.588-0.061,0.72H311.699z M313.846,134.901c0-0.444-0.191-1.187-1.031-1.187c-0.768,0-1.08,0.695-1.127,1.187
		H313.846z"/>
	<path d="M316.631,134.566c0-0.864-0.023-1.427-0.047-1.931h1.57l0.061,1.08h0.048c0.3-0.852,1.02-1.211,1.583-1.211
		c0.168,0,0.252,0,0.384,0.024v1.715c-0.132-0.024-0.288-0.048-0.491-0.048c-0.672,0-1.128,0.36-1.248,0.923
		c-0.023,0.12-0.035,0.264-0.035,0.408v2.975h-1.824V134.566z"/>
	<path d="M323.482,130.956v1.679h1.307v1.343h-1.307v2.123c0,0.708,0.168,1.031,0.719,1.031c0.229,0,0.408-0.024,0.54-0.048
		l0.013,1.379c-0.24,0.096-0.672,0.156-1.188,0.156c-0.588,0-1.08-0.204-1.367-0.504c-0.336-0.348-0.504-0.912-0.504-1.739v-2.398
		h-0.779v-1.343h0.779v-1.271L323.482,130.956z"/>
	<path d="M331.58,135.501c0,2.147-1.523,3.13-3.094,3.13c-1.716,0-3.035-1.127-3.035-3.022c0-1.895,1.248-3.106,3.131-3.106
		C330.381,132.503,331.58,133.738,331.58,135.501z M327.334,135.561c0,1.007,0.42,1.763,1.199,1.763
		c0.708,0,1.164-0.708,1.164-1.763c0-0.875-0.336-1.763-1.164-1.763C327.658,133.798,327.334,134.698,327.334,135.561z"/>
	<path d="M332.711,129.984h1.823v8.515h-1.823V129.984z"/>
	<path d="M337.895,131.003c0,0.504-0.385,0.912-0.984,0.912c-0.575,0-0.959-0.408-0.947-0.912c-0.012-0.527,0.372-0.923,0.959-0.923
		C337.51,130.08,337.882,130.476,337.895,131.003z M336.011,138.5v-5.865h1.823v5.865H336.011z"/>
	<path d="M347.72,138.271c-0.336,0.168-1.092,0.348-2.075,0.348c-2.795,0-4.233-1.739-4.233-4.042c0-2.758,1.967-4.293,4.413-4.293
		c0.947,0,1.668,0.192,1.991,0.36l-0.372,1.451c-0.371-0.156-0.887-0.3-1.535-0.3c-1.451,0-2.578,0.875-2.578,2.674
		c0,1.619,0.959,2.639,2.59,2.639c0.553,0,1.164-0.12,1.523-0.264L347.72,138.271z"/>
	<path d="M350.038,136.149c0.06,0.755,0.804,1.115,1.655,1.115c0.623,0,1.127-0.084,1.619-0.24l0.24,1.235
		c-0.6,0.24-1.332,0.36-2.123,0.36c-1.991,0-3.131-1.151-3.131-2.986c0-1.487,0.924-3.13,2.963-3.13
		c1.895,0,2.614,1.475,2.614,2.926c0,0.312-0.036,0.588-0.06,0.72H350.038z M352.186,134.901c0-0.444-0.192-1.187-1.032-1.187
		c-0.768,0-1.079,0.695-1.127,1.187H352.186z"/>
	<path d="M354.971,129.984h1.823v8.515h-1.823V129.984z"/>
	<path d="M358.271,129.984h1.823v8.515h-1.823V129.984z"/>
	<path d="M361.559,136.904c0.336,0.204,1.031,0.444,1.57,0.444c0.553,0,0.78-0.192,0.78-0.492s-0.18-0.444-0.863-0.672
		c-1.212-0.408-1.679-1.067-1.667-1.763c0-1.091,0.936-1.919,2.387-1.919c0.684,0,1.295,0.156,1.654,0.335l-0.323,1.26
		c-0.265-0.144-0.768-0.336-1.271-0.336c-0.444,0-0.696,0.18-0.696,0.479c0,0.276,0.229,0.42,0.948,0.672
		c1.115,0.384,1.583,0.947,1.595,1.811c0,1.091-0.863,1.895-2.543,1.895c-0.768,0-1.451-0.168-1.895-0.408L361.559,136.904z"/>
</g>
<g>
	<path fill="#00A651" d="M152.003,96.492c-0.517,0.176-1.496,0.418-2.475,0.418c-1.354,0-2.333-0.341-3.015-1.001
		c-0.682-0.638-1.056-1.606-1.045-2.695c0.011-2.464,1.804-3.873,4.235-3.873c0.957,0,1.694,0.187,2.057,0.363l-0.352,1.342
		c-0.407-0.176-0.913-0.319-1.727-0.319c-1.397,0-2.453,0.792-2.453,2.398c0,1.529,0.957,2.431,2.332,2.431
		c0.385,0,0.693-0.044,0.825-0.11v-1.551h-1.144v-1.309h2.761V96.492z"/>
	<path fill="#00A651" d="M153.289,93.169c0-0.671-0.022-1.243-0.044-1.716h1.452l0.077,0.737h0.033
		c0.22-0.341,0.77-0.858,1.661-0.858c1.1,0,1.925,0.726,1.925,2.311v3.19h-1.672v-2.981c0-0.693-0.242-1.166-0.847-1.166
		c-0.462,0-0.737,0.319-0.847,0.627c-0.044,0.099-0.066,0.264-0.066,0.418v3.103h-1.672V93.169z"/>
	<path fill="#00A651" d="M159.79,89.517c0.539-0.088,1.342-0.154,2.233-0.154c1.1,0,1.87,0.165,2.398,0.583
		c0.44,0.352,0.682,0.869,0.682,1.551c0,0.946-0.671,1.595-1.31,1.827v0.033c0.517,0.209,0.803,0.704,0.99,1.386
		c0.231,0.836,0.462,1.804,0.605,2.09h-1.716c-0.121-0.209-0.297-0.814-0.517-1.727c-0.198-0.924-0.517-1.177-1.199-1.188h-0.506
		v2.916h-1.661V89.517z M161.451,92.708h0.66c0.836,0,1.331-0.418,1.331-1.067c0-0.682-0.462-1.023-1.232-1.034
		c-0.407,0-0.638,0.033-0.759,0.055V92.708z"/>
	<path fill="#00A651" d="M167.996,89.418v2.85h2.762v-2.85h1.672v7.415h-1.672V93.73h-2.762v3.103h-1.683v-7.415H167.996z"/>
</g>
<g>
	<path fill="#00A651" d="M256.142,61.084h1.683v6.007h2.949V68.5h-4.632V61.084z"/>
	<path fill="#00A651" d="M263.446,61.084v2.85h2.762v-2.85h1.672V68.5h-1.672v-3.103h-2.762V68.5h-1.683v-7.415H263.446z"/>
</g>
<g>
	<path fill="#ED1C24" d="M244.906,25.826h-1.991v-1.408h5.699v1.408h-2.024v6.007h-1.683V25.826z"/>
	<path fill="#ED1C24" d="M249.845,29.677c0.055,0.693,0.737,1.023,1.518,1.023c0.572,0,1.034-0.077,1.485-0.22l0.22,1.133
		c-0.55,0.22-1.221,0.33-1.947,0.33c-1.826,0-2.871-1.056-2.871-2.739c0-1.364,0.847-2.872,2.717-2.872
		c1.738,0,2.398,1.354,2.398,2.685c0,0.286-0.033,0.539-0.055,0.66H249.845z M251.814,28.533c0-0.407-0.176-1.089-0.946-1.089
		c-0.704,0-0.99,0.638-1.034,1.089H251.814z"/>
	<path fill="#ED1C24" d="M254.354,30.37c0.308,0.187,0.946,0.407,1.441,0.407c0.506,0,0.715-0.176,0.715-0.451
		s-0.165-0.407-0.792-0.616c-1.111-0.374-1.541-0.979-1.529-1.617c0-1.001,0.858-1.76,2.189-1.76c0.627,0,1.188,0.143,1.518,0.308
		l-0.297,1.155c-0.242-0.132-0.704-0.308-1.167-0.308c-0.407,0-0.638,0.165-0.638,0.44c0,0.253,0.209,0.385,0.869,0.616
		c1.023,0.352,1.453,0.869,1.463,1.661c0,1.001-0.792,1.738-2.333,1.738c-0.704,0-1.331-0.154-1.738-0.374L254.354,30.37z"/>
	<path fill="#ED1C24" d="M261.01,24.913v1.54h1.199v1.232h-1.199v1.947c0,0.649,0.154,0.946,0.66,0.946
		c0.209,0,0.374-0.022,0.495-0.044l0.011,1.265c-0.22,0.088-0.616,0.143-1.089,0.143c-0.539,0-0.99-0.187-1.254-0.462
		c-0.308-0.319-0.462-0.836-0.462-1.595v-2.2h-0.715v-1.232h0.715v-1.166L261.01,24.913z"/>
	<path fill="#ED1C24" d="M268.435,29.083c0,1.969-1.397,2.872-2.838,2.872c-1.573,0-2.783-1.034-2.783-2.772s1.144-2.85,2.871-2.85
		C267.335,26.332,268.435,27.465,268.435,29.083z M264.541,29.138c0,0.924,0.385,1.617,1.1,1.617c0.649,0,1.067-0.649,1.067-1.617
		c0-0.803-0.308-1.617-1.067-1.617C264.837,27.521,264.541,28.346,264.541,29.138z"/>
	<path fill="#ED1C24" d="M269.458,30.37c0.308,0.187,0.946,0.407,1.441,0.407c0.506,0,0.715-0.176,0.715-0.451
		s-0.165-0.407-0.792-0.616c-1.111-0.374-1.541-0.979-1.529-1.617c0-1.001,0.858-1.76,2.189-1.76c0.627,0,1.188,0.143,1.518,0.308
		l-0.297,1.155c-0.242-0.132-0.704-0.308-1.167-0.308c-0.407,0-0.638,0.165-0.638,0.44c0,0.253,0.209,0.385,0.869,0.616
		c1.023,0.352,1.453,0.869,1.463,1.661c0,1.001-0.792,1.738-2.333,1.738c-0.704,0-1.331-0.154-1.738-0.374L269.458,30.37z"/>
	<path fill="#ED1C24" d="M276.113,24.913v1.54h1.199v1.232h-1.199v1.947c0,0.649,0.154,0.946,0.66,0.946
		c0.209,0,0.374-0.022,0.495-0.044l0.011,1.265c-0.22,0.088-0.616,0.143-1.089,0.143c-0.539,0-0.99-0.187-1.254-0.462
		c-0.308-0.319-0.462-0.836-0.462-1.595v-2.2h-0.715v-1.232h0.715v-1.166L276.113,24.913z"/>
	<path fill="#ED1C24" d="M279.512,29.677c0.055,0.693,0.737,1.023,1.518,1.023c0.572,0,1.034-0.077,1.485-0.22l0.22,1.133
		c-0.55,0.22-1.221,0.33-1.947,0.33c-1.826,0-2.871-1.056-2.871-2.739c0-1.364,0.847-2.872,2.717-2.872
		c1.738,0,2.398,1.354,2.398,2.685c0,0.286-0.033,0.539-0.055,0.66H279.512z M281.481,28.533c0-0.407-0.176-1.089-0.946-1.089
		c-0.704,0-0.99,0.638-1.034,1.089H281.481z"/>
	<path fill="#ED1C24" d="M284.032,28.225c0-0.792-0.022-1.309-0.044-1.771h1.441l0.055,0.99h0.044
		c0.275-0.781,0.935-1.111,1.452-1.111c0.154,0,0.231,0,0.352,0.022v1.573c-0.121-0.022-0.264-0.044-0.451-0.044
		c-0.616,0-1.034,0.33-1.144,0.847c-0.022,0.11-0.033,0.242-0.033,0.374v2.729h-1.672V28.225z"/>
	<path fill="#ED1C24" d="M293.438,29.083c0,1.969-1.396,2.872-2.838,2.872c-1.573,0-2.783-1.034-2.783-2.772s1.144-2.85,2.871-2.85
		C292.338,26.332,293.438,27.465,293.438,29.083z M289.543,29.138c0,0.924,0.385,1.617,1.1,1.617c0.649,0,1.067-0.649,1.067-1.617
		c0-0.803-0.309-1.617-1.067-1.617C289.84,27.521,289.543,28.346,289.543,29.138z"/>
	<path fill="#ED1C24" d="M294.471,28.169c0-0.671-0.021-1.243-0.043-1.716h1.451l0.078,0.737h0.033
		c0.219-0.341,0.77-0.858,1.66-0.858c1.101,0,1.926,0.726,1.926,2.311v3.19h-1.672v-2.981c0-0.693-0.242-1.166-0.848-1.166
		c-0.462,0-0.736,0.319-0.848,0.627c-0.043,0.099-0.065,0.264-0.065,0.418v3.103h-1.673V28.169z"/>
	<path fill="#ED1C24" d="M302.205,29.677c0.055,0.693,0.736,1.023,1.518,1.023c0.572,0,1.034-0.077,1.485-0.22l0.22,1.133
		c-0.55,0.22-1.221,0.33-1.947,0.33c-1.826,0-2.871-1.056-2.871-2.739c0-1.364,0.847-2.872,2.717-2.872
		c1.738,0,2.398,1.354,2.398,2.685c0,0.286-0.033,0.539-0.055,0.66H302.205z M304.174,28.533c0-0.407-0.176-1.089-0.946-1.089
		c-0.704,0-0.99,0.638-1.034,1.089H304.174z"/>
</g>
<g>
	<path fill="#ED1C24" d="M245.159,180.751v7.415h-1.683v-7.415H245.159z"/>
	<path fill="#ED1C24" d="M246.588,184.502c0-0.671-0.022-1.243-0.044-1.716h1.452l0.077,0.737h0.033
		c0.22-0.341,0.77-0.858,1.661-0.858c1.1,0,1.925,0.726,1.925,2.311v3.19h-1.672v-2.981c0-0.693-0.242-1.166-0.847-1.166
		c-0.462,0-0.737,0.319-0.847,0.627c-0.044,0.099-0.066,0.264-0.066,0.418v3.103h-1.672V184.502z"/>
	<path fill="#ED1C24" d="M253.034,180.355h1.672v3.069h0.022c0.176-0.231,0.396-0.407,0.66-0.55
		c0.242-0.132,0.561-0.209,0.869-0.209c1.067,0,1.881,0.737,1.881,2.354v3.146h-1.672v-2.959c0-0.704-0.242-1.188-0.869-1.188
		c-0.44,0-0.715,0.286-0.836,0.583c-0.044,0.11-0.055,0.253-0.055,0.374v3.19h-1.672V180.355z"/>
	<path fill="#ED1C24" d="M261.208,181.29c0,0.462-0.352,0.836-0.902,0.836c-0.528,0-0.88-0.374-0.869-0.836
		c-0.011-0.484,0.341-0.847,0.88-0.847S261.196,180.806,261.208,181.29z M259.48,188.166v-5.38h1.672v5.38H259.48z"/>
	<path fill="#ED1C24" d="M262.45,188.166c0.022-0.352,0.044-1.001,0.044-1.606v-6.205h1.672v3.069h0.022
		c0.319-0.462,0.88-0.759,1.628-0.759c1.287,0,2.233,1.067,2.222,2.718c0,1.936-1.232,2.904-2.464,2.904
		c-0.627,0-1.232-0.231-1.617-0.869h-0.022l-0.066,0.748H262.45z M264.167,185.878c0,0.11,0.011,0.209,0.033,0.297
		c0.11,0.451,0.495,0.792,0.979,0.792c0.715,0,1.155-0.55,1.155-1.518c0-0.836-0.374-1.496-1.155-1.496
		c-0.451,0-0.869,0.341-0.979,0.825c-0.022,0.099-0.033,0.198-0.033,0.308V185.878z"/>
	<path fill="#ED1C24" d="M270.799,181.29c0,0.462-0.352,0.836-0.902,0.836c-0.528,0-0.88-0.374-0.869-0.836
		c-0.011-0.484,0.341-0.847,0.88-0.847S270.788,180.806,270.799,181.29z M269.072,188.166v-5.38h1.672v5.38H269.072z"/>
	<path fill="#ED1C24" d="M272.086,184.502c0-0.671-0.022-1.243-0.044-1.716h1.452l0.077,0.737h0.033
		c0.22-0.341,0.77-0.858,1.661-0.858c1.1,0,1.925,0.726,1.925,2.311v3.19h-1.672v-2.981c0-0.693-0.242-1.166-0.847-1.166
		c-0.462,0-0.737,0.319-0.847,0.627c-0.044,0.099-0.066,0.264-0.066,0.418v3.103h-1.672V184.502z"/>
</g>
<g>
	<path fill="#00A651" d="M256.142,145.751h4.533v1.375h-2.85v1.694h2.663v1.364h-2.663v2.981h-1.683V145.751z"/>
	<path fill="#00A651" d="M261.994,151.439c0.451,0.231,1.144,0.462,1.859,0.462c0.77,0,1.177-0.319,1.177-0.803
		c0-0.462-0.352-0.726-1.243-1.045c-1.232-0.429-2.035-1.111-2.035-2.189c0-1.265,1.056-2.233,2.806-2.233
		c0.836,0,1.452,0.176,1.892,0.374l-0.374,1.354c-0.297-0.143-0.825-0.353-1.551-0.353s-1.078,0.33-1.078,0.715
		c0,0.473,0.418,0.682,1.375,1.045c1.309,0.484,1.925,1.166,1.925,2.211c0,1.243-0.957,2.299-2.992,2.299
		c-0.847,0-1.684-0.22-2.102-0.451L261.994,151.439z"/>
	<path fill="#00A651" d="M269.562,145.751v2.85h2.762v-2.85h1.672v7.415h-1.672v-3.103h-2.762v3.103h-1.683v-7.415H269.562z"/>
</g>
<g>
	<g>
		
			<line fill="none" stroke="#000000" stroke-width="1.5" stroke-miterlimit="10" x1="132.333" y1="106.667" x2="181.038" y2="106.667"/>
		<g>
			<polygon points="186.333,106.667 178.872,109.716 180.642,106.667 178.872,103.619 			"/>
		</g>
	</g>
</g>
<g>
	<g>
		<polyline fill="none" stroke="#000000" stroke-width="1.5" stroke-miterlimit="10" points="333.832,148.5 333.832,172 
			225.333,172 225.333,126.833 239.144,126.833 		"/>
		<g>
			<rect x="238.619" y="123.421" width="1.05" height="6.825"/>
		</g>
	</g>
</g>
<g>
	<g>
		<polyline fill="none" stroke="#000000" stroke-width="1.5" stroke-miterlimit="10" points="333.832,62.667 333.832,39.167 
			225.333,39.167 225.333,84.333 239.144,84.333 		"/>
		<g>
			<rect x="238.619" y="80.92" width="1.05" height="6.825"/>
		</g>
	</g>
</g>
<g>
	<g>
		<polyline fill="none" stroke="#000000" stroke-width="1.5" stroke-miterlimit="10" points="244.25,92.083 244.25,75.583 
			281.955,75.583 		"/>
		<g>
			<polygon points="287.25,75.583 279.788,78.632 281.559,75.583 279.788,72.535 			"/>
		</g>
	</g>
</g>
<g>
	<g>
		<polyline fill="none" stroke="#000000" stroke-width="1.5" stroke-miterlimit="10" points="244.25,119.583 244.25,136.083 
			281.955,136.083 		"/>
		<g>
			<polygon points="287.25,136.083 279.788,139.132 281.559,136.083 279.788,133.035 			"/>
		</g>
	</g>
</g>
</svg>
