<?xml version="1.0" encoding="UTF-8" standalone="no"?>
<!-- Created with Inkscape (http://www.inkscape.org/) -->
<svg
   xmlns:dc="http://purl.org/dc/elements/1.1/"
   xmlns:cc="http://creativecommons.org/ns#"
   xmlns:rdf="http://www.w3.org/1999/02/22-rdf-syntax-ns#"
   xmlns:svg="http://www.w3.org/2000/svg"
   xmlns="http://www.w3.org/2000/svg"
   xmlns:sodipodi="http://sodipodi.sourceforge.net/DTD/sodipodi-0.dtd"
   xmlns:inkscape="http://www.inkscape.org/namespaces/inkscape"
   width="789.43542"
   height="1158.9869"
   id="svg2"
   sodipodi:version="0.32"
   inkscape:version="0.46"
   version="1.0"
   sodipodi:docname="ECGcolor.svg"
   inkscape:output_extension="org.inkscape.output.svg.inkscape">
  <defs
     id="defs4">
    <inkscape:perspective
       sodipodi:type="inkscape:persp3d"
       inkscape:vp_x="0 : 526.18109 : 1"
       inkscape:vp_y="0 : 1000 : 0"
       inkscape:vp_z="744.09448 : 526.18109 : 1"
       inkscape:persp3d-origin="372.04724 : 350.78739 : 1"
       id="perspective10" />
    <inkscape:perspective
       id="perspective2390"
       inkscape:persp3d-origin="372.04724 : 350.78739 : 1"
       inkscape:vp_z="744.09448 : 526.18109 : 1"
       inkscape:vp_y="0 : 1000 : 0"
       inkscape:vp_x="0 : 526.18109 : 1"
       sodipodi:type="inkscape:persp3d" />
  </defs>
  <sodipodi:namedview
     id="base"
     pagecolor="#ffffff"
     bordercolor="#666666"
     borderopacity="1.0"
     gridtolerance="10000"
     guidetolerance="10"
     objecttolerance="10"
     inkscape:pageopacity="0.0"
     inkscape:pageshadow="2"
     inkscape:zoom="0.5"
     inkscape:cx="730.92022"
     inkscape:cy="284.70448"
     inkscape:document-units="px"
     inkscape:current-layer="layer1"
     showgrid="false"
     inkscape:window-width="1024"
     inkscape:window-height="712"
     inkscape:window-x="0"
     inkscape:window-y="22" />
  <metadata
     id="metadata7">
    <rdf:RDF>
      <cc:Work
         rdf:about="">
        <dc:format>image/svg+xml</dc:format>
        <dc:type
           rdf:resource="http://purl.org/dc/dcmitype/StillImage" />
      </cc:Work>
    </rdf:RDF>
  </metadata>
  <g
     inkscape:label="Layer 1"
     inkscape:groupmode="layer"
     id="layer1"
     transform="translate(81.073143,246.86169)">
    <path
       style="fill:#000000"
       d="M 252.38462,908.45878 C 243.16798,898.67678 232.79426,884.26068 231.62794,879.61368 C 230.96312,876.96484 231.44484,872.54654 232.69842,869.79522 C 235.3861,863.89642 234.14948,861.09258 228.86016,861.09258 C 222.53654,861.09258 218.97598,851.59384 221.07932,840.33516 C 222.06954,835.03484 222.7101,823.36194 222.5028,814.3954 C 222.2955,805.42884 223.36362,793.4169 224.87638,787.7022 C 227.2649,778.67912 227.17868,773.15222 224.22108,745.7022 C 222.34792,728.3169 219.04686,708.24258 216.88542,701.09258 C 210.49924,679.96736 210.44126,678.67454 214.72144,652.8448 C 221.78462,610.22046 221.95086,600.93328 216.07752,577.09258 C 212.0824,560.87594 210.41974,546.98142 208.77802,516.09258 C 207.11118,484.73124 205.40998,470.69342 200.90088,451.09258 C 197.73776,437.34258 194.87458,423.84258 194.53828,421.09258 C 194.17936,418.15748 190.85688,427.24304 186.49316,443.09258 C 179.5869,468.177 179.05548,472.07018 179.00292,497.96666 C 178.9378,530.06348 176.4721,553.57632 170.86816,575.53958 C 165.99276,594.6475 165.67918,623.11438 170.11996,643.46182 C 174.9238,665.47274 174.52818,693.4947 169.2216,707.09258 C 165.79424,715.87506 164.92866,722.36272 164.92784,739.27458 C 164.9273,750.92466 163.93552,767.82264 162.7239,776.82562 C 160.91358,790.27748 161.06938,795.59144 163.59822,806.64362 C 167.28122,822.73992 169.40088,847.22296 167.37728,850.29318 C 166.57954,851.5035 163.90184,853.56016 161.42684,854.86354 C 157.73456,856.80796 156.92484,858.92588 156.91568,866.66294 C 156.89714,882.33384 153.86266,889.33922 143.08482,898.59258 C 133.1387,907.13178 128.2926,908.92038 125.84258,904.95618 C 125.11638,903.78118 123.26328,903.30298 121.72454,903.89338 C 120.1858,904.48398 118.92684,904.20778 118.92684,903.27978 C 118.92684,902.35178 116.45184,901.06498 113.42684,900.42018 C 104.35808,898.48718 94.926835,891.58938 94.926835,886.88994 C 94.926835,884.54614 97.982535,878.4579 101.71728,873.36054 C 105.45202,868.26316 110.87892,858.2462 113.77706,851.10062 C 116.67522,843.95506 121.25934,834.76472 123.96402,830.67768 C 128.3279,824.08338 128.74462,821.83054 127.66496,810.66962 C 126.9958,803.75226 124.34838,791.34258 121.78182,783.09258 C 102.34224,720.60566 96.187015,676.5275 100.71966,632.26398 C 102.081,618.96972 103.0929,607.19258 102.96832,606.09258 C 102.84376,604.99258 102.4428,590.59258 102.0773,574.09258 C 101.48098,547.17124 100.67268,541.32178 94.200715,517.09258 C 69.888915,426.07574 69.079775,394.20062 88.920755,309.09258 C 95.054815,282.78048 98.738675,257.15224 100.36958,229.44412 L 101.3495,212.79566 L 93.638175,216.7469 C 89.396935,218.92008 81.996095,223.72546 77.191835,227.42552 C 69.391475,233.43306 68.062895,235.70412 64.775235,248.65008 C 60.108835,267.02508 48.345535,292.19586 35.515595,311.25894 C 17.109335,338.6075 9.0410753,355.37972 6.0168553,372.58066 C 4.4738953,381.35656 1.0067753,393.8369 -1.6878647,400.31472 C -4.3825047,406.79254 -7.1971647,417.49258 -7.9426447,424.09258 C -9.8996247,441.4183 -12.777465,449.44076 -16.764505,448.68504 C -19.209545,448.2216 -20.334165,445.19126 -21.073165,437.07524 C -21.986185,427.04788 -22.217685,426.61448 -23.734825,432.09258 C -24.648725,435.39258 -27.254125,442.41308 -29.524605,447.6937 C -32.809745,455.33418 -34.512505,457.16892 -37.862945,456.67826 C -40.178565,456.33914 -43.061625,457.33112 -44.269745,458.88268 C -47.817145,463.43846 -51.063425,459.49986 -51.199925,450.47454 C -51.306445,443.43144 -51.615625,442.81136 -53.135485,446.59258 C -55.208805,451.75074 -58.667085,452.47792 -60.343865,448.10832 C -61.362765,445.4531 -54.958905,389.0213 -51.907085,373.76216 L -50.716965,367.81158 L -62.626865,368.67306 C -73.343925,369.44826 -74.864105,369.06722 -77.804965,364.86856 C -79.602465,362.30226 -81.073145,359.605 -81.073145,358.87466 C -81.073145,358.14432 -76.798145,356.92176 -71.573145,356.15788 C -66.348145,355.394 -53.790685,350.73264 -43.667665,345.79932 C -25.615345,337.00174 -25.186725,336.62796 -21.330085,326.32016 C -19.167425,320.53996 -15.521385,305.52412 -13.227765,292.95164 C -7.5465047,261.80982 -1.3431247,244.22488 16.097775,209.82146 L 30.946655,180.531 L 32.931555,138.99382 C 34.023255,116.14838 35.900735,90.39974 37.103735,81.77462 C 38.306735,73.1495 38.720375,59.79258 38.022935,52.09258 C 37.053615,41.39084 37.693015,34.46126 40.736975,22.67884 C 49.432975,-10.98124 63.767115,-28.91042 88.482315,-37.04116 C 96.009035,-39.51728 107.15532,-45.36272 113.80528,-50.32128 C 120.33842,-55.19272 131.93178,-62.89034 139.56832,-67.42714 C 154.45292,-76.26992 160.9229,-84.3039 160.89356,-93.90742 C 160.86156,-104.3863 153.5352,-123.99138 147.33384,-130.19272 C 140.44718,-137.0794 133.5243,-161.80762 137.23222,-166.27538 C 138.73862,-168.09048 138.19568,-171.22446 135.31244,-177.35684 C 133.08746,-182.08914 130.88718,-191.85974 130.38516,-199.23696 L 129.47808,-212.56648 L 135.87732,-211.52804 C 141.30188,-210.64774 143.0115,-211.44648 147.1017,-216.77204 C 159.77456,-233.27242 164.63812,-237.88604 173.91228,-242.2048 C 190.24144,-249.8089 218.5193,-247.80764 228.5631,-238.33708 C 231.51316,-235.5554 237.07684,-231.96998 240.92684,-230.36948 C 252.2484,-225.66294 255.3378,-220.686 256.38978,-205.45894 C 257.06826,-195.63792 256.38272,-189.42988 253.89946,-182.90742 C 252.01486,-177.95742 250.22472,-168.05742 249.92136,-160.90742 C 249.29738,-146.20056 244.3957,-132.16306 238.42362,-127.98006 C 233.23324,-124.34458 226.91916,-105.71056 228.2411,-97.92958 C 231.00114,-81.68408 233.87324,-78.79078 260.92684,-65.00274 C 270.27684,-60.23744 281.52684,-53.95644 285.92684,-51.04496 C 290.32684,-48.13348 298.42684,-44.61448 303.92684,-43.22498 C 328.4291,-37.0348 340.05082,-20.1822 348.05742,20.76852 C 351.81998,40.01254 351.68084,52.29862 347.55568,65.07142 C 344.38986,74.87382 344.39322,77.05004 347.61072,100.80108 C 352.89734,139.82598 355.38672,157.09258 355.7264,157.09258 C 355.89722,157.09258 370.8622,154.0003 388.9819,150.22086 C 466.52238,134.0473 527.57234,125.49658 540.5524,128.99176 C 559.54384,134.10562 577.1123,156.45242 580.1512,179.36086 L 581.49848,189.51708 L 639.05268,188.0552 L 696.60688,186.59334 L 697.76878,195.34296 C 699.13406,205.62426 706.55244,286.9488 708.23618,310.09258 C 709.243,323.93182 703.95622,400.68222 701.84848,402.82546 C 701.45206,403.22856 651.36946,403.67856 590.55378,403.82546 L 479.97982,404.09258 L 478.6023,395.09258 C 473.04438,358.77988 471.3176,307.37042 474.1254,261.80628 L 475.37552,241.51998 L 466.65118,240.21994 C 450.49988,237.81318 431.1069,232.72004 429.25044,230.39748 C 428.23716,229.12978 426.40672,219.54258 425.1828,209.09258 C 422.677,187.6979 423.78906,184.52022 436.9065,175.59258 C 447.62284,168.2991 448.92684,169.30256 448.92684,184.84258 L 448.92684,198.59258 L 455.17684,199.84258 C 458.61434,200.53008 464.91434,201.09258 469.17684,201.09258 C 476.11018,201.09258 476.92684,200.5657 476.92684,196.09258 C 476.92684,193.34258 478.05184,190.9529 479.42684,190.78216 C 486.61044,189.8902 499.6366,189.56006 536.42684,189.33754 L 576.92684,189.09258 L 576.92684,182.11404 C 576.92684,164.8135 563.01748,142.39784 547.6728,134.9696 C 539.44838,130.98822 536.5962,130.666 519.9415,131.83672 C 490.39856,133.91338 398.62692,149.9087 362.527,159.27324 L 355.12718,161.19282 L 356.14548,171.6427 C 357.83782,189.00944 360.64814,198.51926 369.76712,217.7368 C 381.74152,242.97188 388.20782,259.68396 394.02654,280.43494 C 396.74978,290.14664 400.88706,304.84258 403.2205,313.09258 C 408.07954,330.27198 414.81596,344.63532 420.21066,349.31886 C 422.25456,351.09332 428.08382,354.09552 433.1646,355.99042 C 438.78948,358.08826 446.54374,363.6292 452.99152,370.15806 L 463.58068,380.88042 L 458.59058,383.15408 C 454.65376,384.9478 452.01584,384.76562 446.09306,382.29092 L 438.58564,379.15412 L 439.8176,386.62336 C 440.49516,390.73142 441.38204,396.79258 441.78844,400.09258 C 442.19484,403.39258 444.41724,411.68918 446.7271,418.52948 C 451.29608,432.05986 452.1252,442.11588 448.83924,444.14672 C 445.41268,446.26444 441.58454,441.58494 438.90014,431.99722 C 435.25142,418.96526 434.21682,422.50194 436.80258,439.16756 C 439.12286,454.1222 437.43768,460.48404 431.73562,458.29596 C 430.33294,457.75768 428.79284,458.39172 428.3132,459.70494 C 426.13652,465.6644 419.64372,456.65622 413.35622,438.95346 C 407.33744,422.00738 402.70838,411.99666 405.55956,422.09258 C 406.18086,424.29258 407.29636,431.26758 408.03846,437.59258 C 409.10348,446.66986 408.80852,449.09258 406.63838,449.09258 C 402.2714,449.09258 399.387,442.69192 396.14582,425.80878 C 393.31096,411.04224 391.20594,404.20798 381.14064,377.09258 C 378.89488,371.04258 377.02804,364.66962 376.99214,362.93046 C 376.95622,361.19128 369.2112,348.14156 359.78098,333.9311 C 336.11016,298.26132 322.52478,268.35738 316.8219,239.37022 L 314.37734,226.94476 L 301.03576,219.01866 C 293.69788,214.65932 287.15716,211.09258 286.50082,211.09258 C 285.84448,211.09258 285.73266,214.46758 286.25236,218.59258 C 286.77206,222.71758 286.40278,229.69258 285.43176,234.09258 C 284.1196,240.03836 284.6057,245.68746 287.32484,256.09258 C 289.33706,263.79258 291.77398,280.44258 292.74022,293.09258 C 293.70648,305.74258 295.54464,318.76004 296.82504,322.02026 C 300.04498,330.21904 304.9008,363.65736 304.91504,377.73014 C 304.92154,384.1308 307.12776,398.0808 309.8178,408.73014 C 330.95594,492.41244 332.34258,580.40698 313.68382,654.0647 C 307.22844,679.54816 296.64392,708.18126 287.05798,726.09258 C 281.69126,736.1203 277.1979,749.73954 271.22146,774.09258 C 266.63232,792.79258 262.5487,811.24258 262.14676,815.09258 C 261.37838,822.4527 265.57048,831.48248 277.98684,849.21202 C 290.1787,866.621 294.92684,876.8913 294.92684,885.85358 C 294.92684,895.78218 292.6181,898.47518 277.92684,905.68238 C 262.06356,913.46478 257.5623,913.95398 252.38462,908.45878 z"
       id="path2608"
       inkscape:export-xdpi="90"
       inkscape:export-ydpi="90" />
    <path
       style="fill:#ffccaa"
       d="M 262.92684,905.96118 C 262.92684,904.23878 261.99518,901.08878 260.85648,898.96118 C 259.57184,896.56078 259.5207,895.09258 260.7217,895.09258 C 262.73676,895.09258 266.05282,902.86058 265.27086,905.74918 C 265.02418,906.66038 266.42088,907.07778 268.3746,906.67678 C 271.04114,906.12958 271.8408,904.22038 271.58174,899.02018 C 271.2605,892.57158 271.4334,892.36098 274.08174,895.97478 C 275.64654,898.10998 276.95546,900.80998 276.99044,901.97478 C 277.02544,903.13958 278.28024,902.47578 279.7789,900.49958 C 281.27756,898.52358 282.00718,895.00778 281.40024,892.68678 C 280.6476,889.80876 281.0328,888.922 282.6118,889.89788 C 283.88506,890.68478 284.92684,893.18578 284.92684,895.45558 C 284.92684,898.97238 285.38922,899.19858 288.05542,896.98578 C 290.04126,895.33778 290.75784,892.69158 290.0173,889.74098 C 289.37564,887.18436 289.70496,885.09258 290.74912,885.09258 C 296.45066,885.09258 282.01448,858.10762 259.98826,827.59258 C 255.89994,821.92862 244.16916,821.28442 241.77844,826.59258 C 240.91146,828.51758 239.4958,838.64258 238.63254,849.09258 C 237.76928,859.54258 236.50122,871.3191 235.81462,875.26262 C 234.70684,881.62522 235.48594,883.49528 242.73274,891.86838 C 247.22432,897.05798 251.8371,903.05638 252.9834,905.19818 C 255.48102,909.86518 262.92684,910.43638 262.92684,905.96118 z"
       id="path2606"
       inkscape:export-filename="C:\Documents and Settings\Maen\My Documents\My Pictures\path2608s.png"
       inkscape:export-xdpi="90"
       inkscape:export-ydpi="90" />
    <path
       style="fill:#ffccaa"
       d="M 142.42636,894.92118 C 152.21078,885.56394 152.37264,885.02168 153.63016,857.3827 C 154.91584,829.12544 151.57258,821.09258 138.52628,821.09258 C 132.8515,821.09258 123.14574,834.98964 116.65242,852.41238 C 114.25822,858.83648 109.2905,868.047 105.61308,872.88018 C 101.93564,877.71336 98.926835,883.51038 98.926835,885.76244 C 98.926835,889.7952 98.972655,889.79842 101.95752,885.97484 C 104.8363,882.28716 104.92568,882.36824 103.7407,887.59258 C 102.409,893.46398 106.11356,895.53918 108.2036,890.09258 C 110.08026,885.20208 112.45138,886.67816 111.41634,892.09258 C 110.8584,895.01118 111.39012,897.09258 112.6937,897.09258 C 113.92192,897.09258 114.92684,895.79578 114.92684,894.21058 C 114.92684,892.62558 115.86292,890.75018 117.00702,890.04304 C 118.35588,889.2094 118.6312,890.57418 117.7902,893.92498 C 116.71936,898.19158 117.19064,899.09258 120.4932,899.09258 C 123.0919,899.09258 124.93284,897.34098 125.74812,894.09258 C 126.43834,891.34258 127.9822,889.09258 129.17892,889.09258 C 130.46676,889.09258 130.76672,890.52098 129.91392,892.59258 C 124.4226,905.93138 129.85608,906.94238 142.42636,894.92118 z"
       id="path2604"
       inkscape:export-filename="C:\Documents and Settings\Maen\My Documents\My Pictures\path2608s.png"
       inkscape:export-xdpi="90"
       inkscape:export-ydpi="90" />
    <path
       style="fill:#ffccaa"
       d="M 236.22856,848.42552 C 234.02552,828.22188 240.54318,817.31584 253.29602,819.86642 C 258.91826,820.99086 259.1491,820.75884 258.5517,814.58392 C 257.90166,807.86514 250.92684,803.62254 250.92684,809.94594 C 250.92684,811.67658 249.35184,813.0803 247.42684,813.06528 C 240.90236,813.01436 234.92684,810.63716 234.92684,808.09248 C 234.92684,806.699 232.6317,805.12014 229.82654,804.5839 L 224.72626,803.60892 L 225.3081,817.85076 C 225.6281,825.68376 225.15676,836.68682 224.26068,842.30202 C 222.45822,853.59672 225.41766,859.09258 233.30214,859.09258 C 237.0558,859.09258 237.29618,858.21636 236.22856,848.42552 z"
       id="path2602"
       inkscape:export-filename="C:\Documents and Settings\Maen\My Documents\My Pictures\path2608s.png"
       inkscape:export-xdpi="90"
       inkscape:export-ydpi="90" />
    <path
       style="fill:#ffccaa"
       d="M 162.57492,850.5166 C 165.69442,846.75786 165.07604,823.89774 161.49496,810.59258 C 158.63136,799.95318 154.92684,795.13754 154.92684,802.05448 C 154.92684,803.68352 152.45184,805.55868 149.42684,806.22152 C 146.40184,806.88436 142.71856,807.80522 141.24176,808.26788 C 139.76496,808.73054 138.085,807.30538 137.5085,805.10084 C 135.49442,797.399 130.92684,800.54776 130.92684,809.63804 L 130.92684,818.18348 L 138.91674,818.18348 C 150.99016,818.18348 155.52806,823.80704 156.56238,840.05068 C 157.39682,853.15522 158.61918,855.28298 162.57492,850.5166 z"
       id="path2600"
       inkscape:export-filename="C:\Documents and Settings\Maen\My Documents\My Pictures\path2608s.png"
       inkscape:export-xdpi="90"
       inkscape:export-ydpi="90" />
    <path
       style="fill:#000000"
       d="M 260.92684,801.47446 C 260.92684,798.53208 257.84524,797.26454 244.42684,794.68758 C 235.35184,792.94474 227.81364,791.6479 227.6753,791.80568 C 227.53694,791.96348 226.835,794.01142 226.1154,796.35666 C 224.92554,800.23452 225.85408,800.8 236.36694,802.59994 C 255.4859,805.87336 260.92684,805.62404 260.92684,801.47446 z"
       id="path2598"
       inkscape:export-filename="C:\Documents and Settings\Maen\My Documents\My Pictures\path2608s.png"
       inkscape:export-xdpi="90"
       inkscape:export-ydpi="90" />
    <path
       style="fill:#000000"
       d="M 249.4685,799.88424 C 250.1331,799.21966 251.85808,799.14862 253.30184,799.72636 C 254.8973,800.3648 254.4234,800.83872 252.0935,800.93468 C 249.98518,801.02152 248.80392,800.54882 249.4685,799.88424 z"
       id="path2596"
       inkscape:export-filename="C:\Documents and Settings\Maen\My Documents\My Pictures\path2608s.png"
       inkscape:export-xdpi="90"
       inkscape:export-ydpi="90" />
    <path
       style="fill:#000000"
       d="M 231.92684,797.09258 C 231.247,795.99258 231.64388,795.09258 232.8088,795.09258 C 233.97372,795.09258 234.92684,795.99258 234.92684,797.09258 C 234.92684,798.19258 234.52996,799.09258 234.04488,799.09258 C 233.5598,799.09258 232.60668,798.19258 231.92684,797.09258 z"
       id="path2594"
       inkscape:export-filename="C:\Documents and Settings\Maen\My Documents\My Pictures\path2608s.png"
       inkscape:export-xdpi="90"
       inkscape:export-ydpi="90" />
    <path
       style="fill:#000000"
       d="M 239.4685,797.88424 C 240.1331,797.21966 241.85808,797.14862 243.30184,797.72636 C 244.8973,798.3648 244.4234,798.83872 242.0935,798.93468 C 239.98518,799.02152 238.80392,798.54882 239.4685,797.88424 z"
       id="path2592"
       inkscape:export-filename="C:\Documents and Settings\Maen\My Documents\My Pictures\path2608s.png"
       inkscape:export-xdpi="90"
       inkscape:export-ydpi="90" />
    <path
       style="fill:#000000"
       d="M 156.42684,795.99846 C 157.80184,795.56928 158.92684,793.47522 158.92684,791.345 C 158.92684,787.82364 157.79162,787.56016 146.42684,788.44388 C 130.16796,789.70814 128.92684,790.18226 128.92684,795.12912 C 128.92684,799.03528 129.69548,799.21396 141.42684,798.035 C 148.30184,797.3441 155.05184,796.42766 156.42684,795.99846 z"
       id="path2590"
       inkscape:export-filename="C:\Documents and Settings\Maen\My Documents\My Pictures\path2608s.png"
       inkscape:export-xdpi="90"
       inkscape:export-ydpi="90" />
    <path
       style="fill:#000000"
       d="M 130.92684,793.09258 C 130.92684,791.99258 131.82684,791.09258 132.92684,791.09258 C 134.02684,791.09258 134.92684,791.99258 134.92684,793.09258 C 134.92684,794.19258 134.02684,795.09258 132.92684,795.09258 C 131.82684,795.09258 130.92684,794.19258 130.92684,793.09258 z"
       id="path2588"
       inkscape:export-filename="C:\Documents and Settings\Maen\My Documents\My Pictures\path2608s.png"
       inkscape:export-xdpi="90"
       inkscape:export-ydpi="90" />
    <path
       style="fill:#000000"
       d="M 139.92684,793.09258 C 140.60668,791.99258 142.0098,791.09258 143.04488,791.09258 C 144.07996,791.09258 144.92684,791.99258 144.92684,793.09258 C 144.92684,794.19258 143.52372,795.09258 141.8088,795.09258 C 140.09388,795.09258 139.247,794.19258 139.92684,793.09258 z"
       id="path2586"
       inkscape:export-filename="C:\Documents and Settings\Maen\My Documents\My Pictures\path2608s.png"
       inkscape:export-xdpi="90"
       inkscape:export-ydpi="90" />
    <path
       style="fill:#ffccaa"
       d="M 264.73328,787.59258 C 271.7529,760.74016 274.46394,748.79424 273.1899,750.32948 C 256.7671,770.11906 254.43154,774.77362 254.79908,786.98054 C 254.9338,791.455 257.79554,794.98546 261.34976,795.06196 C 262.13236,795.0788 263.65494,791.71758 264.73328,787.59258 z"
       id="path2584"
       inkscape:export-filename="C:\Documents and Settings\Maen\My Documents\My Pictures\path2608s.png"
       inkscape:export-xdpi="90"
       inkscape:export-ydpi="90" />
    <path
       style="fill:#000000"
       d="M 250.13518,787.63424 C 249.47058,786.96966 248.9979,788.15092 249.08474,790.25924 C 249.1807,792.58914 249.65462,793.06304 250.29306,791.46758 C 250.8708,790.02384 250.79976,788.29882 250.13518,787.63424 z"
       id="path2582"
       inkscape:export-filename="C:\Documents and Settings\Maen\My Documents\My Pictures\path2608s.png"
       inkscape:export-xdpi="90"
       inkscape:export-ydpi="90" />
    <path
       style="fill:#ffccaa"
       d="M 243.66892,776.56256 C 244.3044,774.62106 247.07722,772.176 249.83072,771.12912 C 255.16322,769.10172 271.78662,748.08966 275.96714,738.09258 C 284.52812,717.62038 288.5747,655.5669 283.04258,629.59258 C 279.90054,614.84014 277.11982,613.86452 269.78878,624.94246 C 262.10058,636.56014 259.63946,636.64412 248.4967,625.66892 C 235.32186,612.69216 235.95718,608.4464 251.27824,607.08082 C 270.39556,605.37686 280.80128,591.30208 280.88292,567.03752 C 280.90708,559.85722 284.0037,539.15722 287.7643,521.03752 C 291.5249,502.9178 295.60808,476.7036 296.83804,462.78372 C 298.068,448.86386 299.93592,432.21386 300.989,425.78372 C 304.77216,402.68344 303.63192,394.83048 290.9994,356.98376 C 277.83336,317.53866 260.39886,273.34466 242.9134,235.09258 C 231.991,211.19814 231.18582,210.04262 224.70624,208.96288 C 220.97756,208.34154 215.8099,206.68568 213.22252,205.28316 C 208.93722,202.96028 207.99852,203.32812 202.68372,209.41286 C 190.87558,222.93164 168.24614,258.7538 156.77076,282.09258 C 118.89446,359.12594 102.28578,465.7168 111.7396,571.09258 C 117.83212,639.00198 138.0803,762.53176 144.10688,768.55834 C 145.65786,770.10932 146.92684,772.664 146.92684,774.23544 C 146.92684,775.80686 147.82684,777.09258 148.92684,777.09258 C 150.02684,777.09258 150.92684,778.95858 150.92684,781.23922 C 150.92684,787.60242 157.34534,785.17922 159.26158,778.09258 C 160.15392,774.79258 161.42616,759.49258 162.08878,744.09258 C 162.92602,724.63458 164.4579,712.58184 167.1102,704.58462 C 171.95178,689.98622 171.8942,674.46118 166.88584,644.09258 C 161.70116,612.6549 161.892,599.70694 167.90794,574.74316 C 173.39564,551.9714 176.84646,517.49168 176.89518,484.94504 C 176.9204,468.10468 177.9631,460.36508 182.01464,446.94504 C 187.86976,427.55102 192.926,402.9356 192.9265,393.8226 C 192.92674,389.2873 191.4973,386.61594 187.75978,384.16704 C 181.51986,380.07848 177.9071,371.75852 176.07018,357.24664 C 174.3758,343.86096 172.61572,340.3322 162.27684,329.59258 C 157.77628,324.91758 155.098,321.09258 156.32508,321.09258 C 157.55218,321.09258 162.6375,325.632 167.62578,331.18018 C 175.71838,340.1811 176.96812,342.89088 179.22716,356.33518 C 181.96352,372.62014 186.9827,383.09258 192.05128,383.09258 C 198.42458,383.09258 206.51534,372.26668 207.87636,361.91774 C 209.58592,348.9187 211.56392,344.48488 220.33432,333.9927 C 230.44884,321.8925 231.32504,324.50792 221.35274,337.0326 C 215.2182,344.73728 212.9561,349.65436 211.88,357.62346 C 210.2451,369.73066 208.35898,374.03186 201.42072,381.47522 C 196.5498,386.70074 196.43332,387.48878 197.4294,408.47522 C 198.12308,423.09036 200.47528,438.17424 204.69114,455.0424 C 209.54728,474.47246 210.94174,484.42802 210.9942,500.0424 C 211.09222,529.22706 214.10754,558.23794 219.02894,577.34594 C 224.26002,597.65636 224.22822,613.09022 218.88784,645.82088 C 213.80988,676.9431 213.89598,681.42404 219.92684,699.89908 C 222.67684,708.32348 224.9341,719.01336 224.94298,723.65438 C 224.95186,728.29538 226.32546,742.43568 227.99544,755.07726 C 229.66542,767.71882 230.502,780.47386 229.85454,783.4218 C 228.86602,787.92248 229.41866,788.88674 233.30208,789.43712 C 237.82334,790.07792 240.21892,787.10284 243.66892,776.56256 z"
       id="path2580"
       inkscape:export-filename="C:\Documents and Settings\Maen\My Documents\My Pictures\path2608s.png"
       inkscape:export-xdpi="90"
       inkscape:export-ydpi="90" />
    <path
       style="fill:#ffccaa"
       d="M 134.04998,779.06942 C 134.14182,775.23216 134.89484,770.59088 135.72336,768.75546 C 136.5656,766.8897 134.09228,748.3716 130.11378,726.75546 C 117.7265,659.45264 107.49688,585.43588 106.66522,557.09258 C 106.43966,549.40544 106.14426,550.13482 104.6401,562.09258 C 103.50804,571.09228 103.65388,581.45004 105.04844,591.09258 C 106.59274,601.77068 106.60398,609.83822 105.08744,619.09258 C 102.36366,635.71362 102.3129,682.38906 104.9976,701.6913 C 107.07624,716.63616 120.49656,771.17456 124.6948,781.7381 C 127.9402,789.9041 133.83088,788.2237 134.04998,779.06942 z"
       id="path2578"
       inkscape:export-filename="C:\Documents and Settings\Maen\My Documents\My Pictures\path2608s.png"
       inkscape:export-xdpi="90"
       inkscape:export-ydpi="90" />
    <path
       style="fill:#000000"
       d="M 140.13518,781.63424 C 138.10214,779.60122 136.42468,782.66202 138.09274,785.361 C 139.3528,787.39984 139.8239,787.40142 140.50134,785.36908 C 140.96454,783.9795 140.79976,782.29882 140.13518,781.63424 z"
       id="path2576"
       inkscape:export-filename="C:\Documents and Settings\Maen\My Documents\My Pictures\path2608s.png"
       inkscape:export-xdpi="90"
       inkscape:export-ydpi="90" />
    <path
       style="fill:#000000"
       d="M 147.92684,783.09258 C 147.247,781.99258 146.29388,781.09258 145.8088,781.09258 C 145.32372,781.09258 144.92684,781.99258 144.92684,783.09258 C 144.92684,784.19258 145.87996,785.09258 147.04488,785.09258 C 148.2098,785.09258 148.60668,784.19258 147.92684,783.09258 z"
       id="path2574"
       inkscape:export-filename="C:\Documents and Settings\Maen\My Documents\My Pictures\path2608s.png"
       inkscape:export-xdpi="90"
       inkscape:export-ydpi="90" />
    <path
       style="fill:#ffffff"
       d="M 302.95906,679.37862 C 311.1957,654.63592 317.38062,626.90982 320.86866,599.09258 C 323.98124,574.26968 323.46536,512.11616 319.90926,483.50338 C 316.77854,458.31326 309.94776,420.20084 307.26294,412.94308 C 306.3211,410.39706 304.4385,421.05046 302.21888,441.48676 C 297.50034,484.93076 293.5963,511.0483 288.85104,530.91598 C 286.69272,539.95248 284.92684,552.93756 284.92684,559.77174 C 284.92684,566.60592 284.00298,579.56544 282.87382,588.5707 C 281.11354,602.60918 281.39872,607.77982 284.87382,624.8324 C 289.73534,648.68828 290.09718,676.17136 285.91504,703.91832 C 284.27154,714.82248 282.97012,724.27248 283.02304,724.91832 C 283.34682,728.87068 296.43966,698.96284 302.95906,679.37862 z"
       id="path2572"
       inkscape:export-filename="C:\Documents and Settings\Maen\My Documents\My Pictures\path2608s.png"
       inkscape:export-xdpi="90"
       inkscape:export-ydpi="90" />
    <path
       style="fill:#ffccaa"
       d="M 262.77842,628.59258 C 263.88354,627.21758 267.52218,622.82018 270.8643,618.82056 C 274.97794,613.89764 277.3657,608.4061 278.256,601.82056 L 279.57116,592.09258 L 274.01076,598.66442 C 266.95926,606.99862 259.05848,611.09258 250.02616,611.09258 C 240.98332,611.09258 241.06886,613.71092 250.42684,623.35762 C 258.6289,631.81276 259.79358,632.30638 262.77842,628.59258 z"
       id="path2570"
       inkscape:export-filename="C:\Documents and Settings\Maen\My Documents\My Pictures\path2608s.png"
       inkscape:export-xdpi="90"
       inkscape:export-ydpi="90" />
    <path
       style="fill:#ffccaa"
       d="M 105.64328,502.09258 C 107.14854,456.73098 111.02272,421.02234 118.12012,387.09258 C 131.57834,322.75422 161.11706,256.441 195.178,214.10082 C 202.7548,204.6823 206.92684,197.649 206.92684,194.29436 C 206.92684,189.28286 206.49746,189.09258 195.18882,189.09258 C 171.11444,189.09258 123.83048,200.13484 109.16352,209.18212 L 102.4002,213.35406 L 103.45306,226.4704 C 104.03212,233.68438 103.68888,242.40056 102.69028,245.83966 C 101.69168,249.27876 99.942735,260.64258 98.803735,271.09258 C 97.664735,281.54258 94.035655,300.89258 90.739135,314.09258 C 79.197755,360.30668 74.820635,410.321 79.799435,439.09258 C 84.909355,468.62186 102.42788,542.47314 103.89794,540.68254 C 104.16434,540.35806 104.94974,522.99258 105.64328,502.09258 z"
       id="path2568"
       inkscape:export-filename="C:\Documents and Settings\Maen\My Documents\My Pictures\path2608s.png"
       inkscape:export-xdpi="90"
       inkscape:export-ydpi="90" />
    <path
       style="fill:#000000"
       d="M 188.92684,198.09258 C 188.92684,196.44258 190.27684,195.09258 191.92684,195.09258 C 193.57684,195.09258 194.92684,196.44258 194.92684,198.09258 C 194.92684,199.74258 193.57684,201.09258 191.92684,201.09258 C 190.27684,201.09258 188.92684,199.74258 188.92684,198.09258 z"
       id="path2566"
       inkscape:export-filename="C:\Documents and Settings\Maen\My Documents\My Pictures\path2608s.png"
       inkscape:export-xdpi="90"
       inkscape:export-ydpi="90" />
    <path
       style="fill:#ffccaa"
       d="M -39.844745,435.76416 C -36.203085,420.70062 -35.695745,415.93428 -37.604905,414.72162 C -40.861245,412.65324 -42.595505,412.7017 -43.953485,414.89894 C -45.719645,417.75666 -47.782625,458.25432 -46.081125,456.66576 C -45.240565,455.881 -42.434205,446.47528 -39.844745,435.76416 z"
       id="path2564"
       inkscape:export-filename="C:\Documents and Settings\Maen\My Documents\My Pictures\path2608s.png"
       inkscape:export-xdpi="90"
       inkscape:export-ydpi="90" />
    <path
       style="fill:#ffccaa"
       d="M 424.01368,446.59258 C 418.09486,422.24348 416.21902,416.69542 413.56026,415.67516 C 412.017,415.08296 410.3479,415.00486 409.85116,415.5016 C 409.08512,416.26762 417.3985,442.49034 421.92714,453.59258 C 425.0262,461.19016 426.423,456.50414 424.01368,446.59258 z"
       id="path2562"
       inkscape:export-filename="C:\Documents and Settings\Maen\My Documents\My Pictures\path2608s.png"
       inkscape:export-xdpi="90"
       inkscape:export-ydpi="90" />
    <path
       style="fill:#ffccaa"
       d="M 434.92684,451.81926 C 434.92684,450.01892 433.86046,440.53648 432.5571,430.74716 C 430.72074,416.95462 429.5585,413.1897 427.39352,414.02048 C 425.85692,414.61014 423.7733,415.09258 422.76326,415.09258 C 419.71532,415.09258 420.66094,422.04438 426.01386,438.98934 C 430.67626,453.74848 434.92684,459.86702 434.92684,451.81926 z"
       id="path2560"
       inkscape:export-filename="C:\Documents and Settings\Maen\My Documents\My Pictures\path2608s.png"
       inkscape:export-xdpi="90"
       inkscape:export-ydpi="90" />
    <path
       style="fill:#ffccaa"
       d="M -27.680525,432.97782 C -24.164585,422.59094 -20.564585,414.09258 -19.680525,414.09258 C -18.796485,414.09258 -17.623165,421.29258 -17.073165,430.09258 C -15.931345,448.36148 -13.894785,446.3443 -11.080705,424.15724 C -10.099565,416.42168 -6.9863647,404.86898 -4.1624647,398.4846 C -1.3385447,392.1002 1.8643153,380.58436 2.9550353,372.89384 C 4.0457353,365.20332 6.7098153,355.43832 8.8751953,351.19382 C 12.181035,344.71384 12.348935,343.29878 9.9224353,342.36764 C 8.3330353,341.75772 6.2128353,342.7236 5.2108753,344.51402 C 3.6184153,347.35958 2.5854953,347.43648 -2.9952447,345.12486 C -7.5009847,343.25852 -9.1115447,341.45542 -8.4686847,338.9971 C -7.8728447,336.7186 -9.2359047,334.74922 -12.409585,333.3032 C -19.411165,330.11306 -20.315225,330.43432 -23.073165,337.09258 C -24.554985,340.67004 -27.037125,343.09258 -29.220785,343.09258 C -31.235065,343.09258 -39.718645,346.69258 -48.073165,351.09258 C -56.427685,355.49258 -65.245425,359.10636 -67.668165,359.1232 C -70.090905,359.14004 -73.319745,359.94332 -74.843345,360.90824 C -80.162405,364.27684 -69.801005,367.47134 -58.240665,366.02698 C -50.364865,365.04296 -46.038665,365.52482 -41.451405,367.89698 C -33.750165,371.87944 -26.996705,371.96924 -21.955425,368.15618 C -17.154805,364.5252 -14.446225,364.28322 -15.646685,367.59258 C -16.145465,368.96758 -15.366385,373.01758 -13.915405,376.59258 C -12.243765,380.71126 -12.036245,383.09258 -13.348945,383.09258 C -14.488365,383.09258 -16.401185,380.49474 -17.599665,377.3196 C -19.611725,371.98906 -20.227765,371.70316 -25.637665,373.58906 C -30.164965,375.16728 -33.054905,374.8884 -38.352745,372.36204 C -42.123605,370.56384 -45.962385,369.09258 -46.883345,369.09258 C -47.804325,369.09258 -49.155165,373.81758 -49.885245,379.59258 C -50.615345,385.36758 -51.730585,393.01298 -52.363585,396.58236 C -53.469245,402.81702 -53.093045,403.26832 -42.793825,408.06282 C -36.897465,410.8077 -30.273165,413.11934 -28.073165,413.19982 C -24.154425,413.34316 -24.156765,413.37998 -28.188105,415.01246 C -31.364445,416.29872 -33.075145,420.27182 -35.688105,432.43138 C -39.735025,451.264 -39.840185,453.66566 -36.573165,452.64448 C -35.198165,452.2147 -31.196485,443.3647 -27.680525,432.97782 z"
       id="path2558"
       inkscape:export-filename="C:\Documents and Settings\Maen\My Documents\My Pictures\path2608s.png"
       inkscape:export-xdpi="90"
       inkscape:export-ydpi="90" />
    <path
       style="fill:#ffccaa"
       d="M -51.121145,427.2854 C -47.681225,413.8087 -47.344805,410.16076 -49.423405,408.87612 C -50.929125,407.94552 -52.563745,408.28386 -53.323265,409.6833 C -54.931345,412.6463 -57.934565,446.48514 -56.465845,445.09258 C -55.885765,444.54258 -53.480645,436.52936 -51.121145,427.2854 z"
       id="path2556"
       inkscape:export-filename="C:\Documents and Settings\Maen\My Documents\My Pictures\path2608s.png"
       inkscape:export-xdpi="90"
       inkscape:export-ydpi="90" />
    <path
       style="fill:#ffccaa"
       d="M 403.67384,426.94572 L 402.32724,410.79884 L 409.30858,412.10856 C 418.07968,413.75402 431.18574,410.33144 435.8501,405.17738 C 439.05614,401.63474 439.16856,399.9733 436.9852,388.4019 L 434.56182,375.5585 L 421.74468,375.82554 C 409.59116,376.07876 408.9275,376.34332 408.92718,380.9351 C 408.92672,387.35896 403.4856,393.09258 397.38986,393.09258 C 391.92068,393.09258 391.88972,390.76608 397.73598,419.09258 C 402.04952,439.99262 402.86012,443.09258 404.01174,443.09258 C 404.56652,443.09258 404.41446,435.82648 403.67384,426.94572 z"
       id="path2554"
       inkscape:export-filename="C:\Documents and Settings\Maen\My Documents\My Pictures\path2608s.png"
       inkscape:export-xdpi="90"
       inkscape:export-ydpi="90" />
    <path
       style="fill:#ffccaa"
       d="M 447.69354,434.59258 C 445.98504,424.79358 440.84544,409.27834 438.91212,408.08348 C 434.60324,405.42046 435.03872,412.51204 440.02332,426.17894 C 445.63898,441.57608 449.68494,446.0142 447.69354,434.59258 z"
       id="path2552"
       inkscape:export-filename="C:\Documents and Settings\Maen\My Documents\My Pictures\path2608s.png"
       inkscape:export-xdpi="90"
       inkscape:export-ydpi="90" />
    <path
       style="fill:#e3dedb"
       d="M 699.28562,399.3543 C 700.03294,398.66036 700.874,392.24258 701.15466,385.09258 L 701.66492,372.09258 L 690.79588,372.24312 C 684.8179,372.3259 635.15184,372.5509 580.42684,372.74312 L 480.92684,373.09258 L 480.92684,387.87946 L 480.92684,402.66636 L 589.42684,401.6412 C 649.10184,401.07736 698.53828,400.04826 699.28562,399.3543 z"
       id="path2550"
       inkscape:export-filename="C:\Documents and Settings\Maen\My Documents\My Pictures\path2608s.png"
       inkscape:export-xdpi="90"
       inkscape:export-ydpi="90" />
    <path
       style="fill:#ffccaa"
       d="M 403.82948,386.9484 C 404.87594,385.9248 405.77594,381.48182 405.82948,377.07514 C 405.90758,370.64798 406.52032,369.35514 408.92684,370.53982 C 410.57684,371.3521 417.32684,372.03376 423.92684,372.05462 C 432.90866,372.08304 437.68744,373.22252 442.92684,376.5851 C 449.89492,381.05714 456.92684,382.52576 456.92684,379.509 C 456.92684,375.69002 439.0722,361.28026 430.31248,358.0296 C 424.68188,355.94014 418.35068,351.61396 415.03286,347.58888 C 410.14002,341.653 408.80236,341.01846 405.2217,342.93478 C 402.94146,344.15512 401.5196,346.31014 402.06204,347.7237 C 402.64038,349.23082 400.1545,351.67378 396.05172,353.63026 C 389.86264,356.58162 388.8602,356.61834 387.36606,353.94848 C 385.49264,350.60084 378.91162,352.05388 378.95058,355.80656 C 378.99922,360.49086 384.4216,378.3204 387.76,384.77308 C 390.7498,390.552 391.93898,391.27516 396.57154,390.13156 C 399.51696,389.40444 402.78304,387.97202 403.82948,386.9484 z"
       id="path2548"
       inkscape:export-filename="C:\Documents and Settings\Maen\My Documents\My Pictures\path2608s.png"
       inkscape:export-xdpi="90"
       inkscape:export-ydpi="90" />
    <path
       style="fill:#ffccaa"
       d="M 300.04534,355.89712 C 298.42886,343.90462 295.2659,327.57898 293.01656,319.6179 C 290.63558,311.19096 288.92684,299.19492 288.92684,290.90658 C 288.92684,283.07644 287.38998,271.14004 285.5116,264.38126 C 283.28248,256.36052 282.0669,244.4681 282.0116,230.13942 L 281.92684,208.18626 L 265.92684,202.92196 C 240.20524,194.45906 240.35774,194.46912 236.61796,200.98534 C 233.39364,206.60338 233.5356,207.14762 244.29094,230.40094 C 258.22936,260.53616 282.1556,320.65312 293.2676,353.45946 C 297.99328,367.41124 302.1128,378.57328 302.42208,378.264 C 302.73138,377.95472 301.66184,367.88962 300.04534,355.89712 z"
       id="path2546"
       inkscape:export-filename="C:\Documents and Settings\Maen\My Documents\My Pictures\path2608s.png"
       inkscape:export-xdpi="90"
       inkscape:export-ydpi="90" />
    <path
       style="fill:#917c6f"
       d="M 627.33622,359.12402 L 702.74558,359.09258 L 703.73606,352.59258 C 704.28082,349.01758 705.13626,340.46758 705.63704,333.59258 L 706.54752,321.09258 L 700.79476,321.09258 C 695.41498,321.09258 694.76844,321.9931 690.8234,334.98132 C 688.50318,342.62012 685.44946,349.82892 684.03734,351.00088 C 682.27982,352.45948 651.27052,352.9678 585.74292,352.61214 L 490.016,352.09258 L 487.22782,337.59258 C 484.70458,324.4703 483.99064,323.09258 479.71392,323.09258 C 475.13552,323.09258 475.02174,323.48236 476.06446,335.59258 C 476.65642,342.46758 477.60794,351.14836 478.17894,354.8832 L 479.21714,361.67382 L 515.57198,360.41464 C 535.56716,359.7221 585.86106,359.14132 627.33622,359.12402 z"
       id="path2544"
       inkscape:export-filename="C:\Documents and Settings\Maen\My Documents\My Pictures\path2608s.png"
       inkscape:export-xdpi="90"
       inkscape:export-ydpi="90" />
    <path
       style="fill:#000000"
       d="M 392.92684,351.09258 C 392.92684,349.99258 391.97372,349.09258 390.8088,349.09258 C 389.64388,349.09258 389.247,349.99258 389.92684,351.09258 C 390.60668,352.19258 391.5598,353.09258 392.04488,353.09258 C 392.52996,353.09258 392.92684,352.19258 392.92684,351.09258 z"
       id="path2542"
       inkscape:export-filename="C:\Documents and Settings\Maen\My Documents\My Pictures\path2608s.png"
       inkscape:export-xdpi="90"
       inkscape:export-ydpi="90" />
    <path
       style="fill:#000000"
       d="M 394.07148,344.21646 C 408.48418,337.55738 408.88262,337.18372 406.69362,332.3794 L 404.43328,327.4185 L 389.18006,334.3643 C 371.00914,342.63876 369.46894,343.92608 372.8565,348.00782 C 376.33602,352.20038 377.07852,352.06768 394.07148,344.21646 z"
       id="path2540"
       inkscape:export-filename="C:\Documents and Settings\Maen\My Documents\My Pictures\path2608s.png"
       inkscape:export-xdpi="90"
       inkscape:export-ydpi="90" />
    <path
       style="fill:#000000"
       d="M 376.92684,343.09258 C 376.92684,341.99258 377.82684,341.09258 378.92684,341.09258 C 380.02684,341.09258 380.92684,341.99258 380.92684,343.09258 C 380.92684,344.19258 380.02684,345.09258 378.92684,345.09258 C 377.82684,345.09258 376.92684,344.19258 376.92684,343.09258 z"
       id="path2538"
       inkscape:export-filename="C:\Documents and Settings\Maen\My Documents\My Pictures\path2608s.png"
       inkscape:export-xdpi="90"
       inkscape:export-ydpi="90" />
    <path
       style="fill:#000000"
       d="M 396.92684,335.09258 C 396.92684,333.99258 397.82684,333.09258 398.92684,333.09258 C 400.02684,333.09258 400.92684,333.99258 400.92684,335.09258 C 400.92684,336.19258 400.02684,337.09258 398.92684,337.09258 C 397.82684,337.09258 396.92684,336.19258 396.92684,335.09258 z"
       id="path2536"
       inkscape:export-filename="C:\Documents and Settings\Maen\My Documents\My Pictures\path2608s.png"
       inkscape:export-xdpi="90"
       inkscape:export-ydpi="90" />
    <path
       style="fill:#ff6600"
       d="M 683.98008,347.00644 C 685.60562,344.37626 498.90934,344.6112 494.74938,347.24458 C 493.06902,348.3083 530.52434,349.04372 587.3088,349.06196 C 651.39722,349.08254 683.11378,348.40814 683.98008,347.00644 z"
       id="path2534"
       inkscape:export-filename="C:\Documents and Settings\Maen\My Documents\My Pictures\path2608s.png"
       inkscape:export-xdpi="90"
       inkscape:export-ydpi="90" />
    <path
       style="fill:#c87137"
       d="M 672.15944,341.52446 C 684.37136,340.76554 684.3959,340.75146 686.65944,333.19638 C 687.90652,329.03404 688.92684,324.563 688.92684,323.2607 C 688.92684,321.46718 669.40298,321.02496 608.42684,321.4374 C 564.15184,321.73688 519.28342,322.29048 508.71922,322.66762 L 489.51162,323.35334 L 491.13212,331.72296 C 492.0234,336.32624 492.79184,340.82238 492.83974,341.71436 C 492.92306,343.26578 646.76084,343.10288 672.15944,341.52446 z"
       id="path2532"
       inkscape:export-filename="C:\Documents and Settings\Maen\My Documents\My Pictures\path2608s.png"
       inkscape:export-xdpi="90"
       inkscape:export-ydpi="90" />
    <path
       style="fill:#ffccaa"
       d="M 375.91398,320.43608 C 375.65316,305.7683 374.84282,302.5546 368.01072,289.09258 C 363.82378,280.84258 358.67654,271.84258 356.57242,269.09258 C 348.70214,258.80646 319.949,231.0261 319.27274,233.05486 C 317.96608,236.97484 329.04534,271.75606 337.02454,288.7832 C 341.38388,298.08582 349.94832,313.6176 356.0566,323.29824 C 366.35966,339.62692 367.48942,340.7505 371.68358,338.8395 C 375.87992,336.92752 376.18372,335.60594 375.91398,320.43608 z"
       id="path2530"
       inkscape:export-filename="C:\Documents and Settings\Maen\My Documents\My Pictures\path2608s.png"
       inkscape:export-xdpi="90"
       inkscape:export-ydpi="90" />
    <path
       style="fill:#000000"
       d="M 16.640615,335.67506 C 18.272135,332.75972 16.156035,331.18826 2.2399953,324.98082 C -13.786485,317.832 -16.961665,317.78838 -17.042525,324.71592 C -17.074765,327.4773 5.4986753,338.8435 11.327455,339.0008 C 13.197795,339.05128 15.588735,337.5547 16.640615,335.67506 z"
       id="path2528"
       inkscape:export-filename="C:\Documents and Settings\Maen\My Documents\My Pictures\path2608s.png"
       inkscape:export-xdpi="90"
       inkscape:export-ydpi="90" />
    <path
       style="fill:#ffccaa"
       d="M 8.9268353,335.21062 C 8.9268353,334.0457 9.8268353,333.09258 10.926835,333.09258 C 12.026835,333.09258 12.926835,333.48946 12.926835,333.97454 C 12.926835,334.45962 12.026835,335.41274 10.926835,336.09258 C 9.8268353,336.77242 8.9268353,336.37554 8.9268353,335.21062 z"
       id="path2526"
       inkscape:export-filename="C:\Documents and Settings\Maen\My Documents\My Pictures\path2608s.png"
       inkscape:export-xdpi="90"
       inkscape:export-ydpi="90" />
    <path
       style="fill:#000000"
       d="M -2.0731647,329.09258 C -2.7529847,327.99258 -2.3561047,327.09258 -1.1911847,327.09258 C -0.026264656,327.09258 0.92683534,327.99258 0.92683534,329.09258 C 0.92683534,330.19258 0.52995534,331.09258 0.044875344,331.09258 C -0.44020466,331.09258 -1.3933247,330.19258 -2.0731647,329.09258 z"
       id="path2524"
       inkscape:export-filename="C:\Documents and Settings\Maen\My Documents\My Pictures\path2608s.png"
       inkscape:export-xdpi="90"
       inkscape:export-ydpi="90" />
    <path
       style="fill:#000000"
       d="M -13.073165,325.09258 C -13.073165,323.99258 -12.173165,323.09258 -11.073165,323.09258 C -9.9731647,323.09258 -9.0731647,323.99258 -9.0731647,325.09258 C -9.0731647,326.19258 -9.9731647,327.09258 -11.073165,327.09258 C -12.173165,327.09258 -13.073165,326.19258 -13.073165,325.09258 z"
       id="path2522"
       inkscape:export-filename="C:\Documents and Settings\Maen\My Documents\My Pictures\path2608s.png"
       inkscape:export-xdpi="90"
       inkscape:export-ydpi="90" />
    <path
       style="fill:#000000"
       d="M 382.92684,332.09258 C 382.92684,330.44258 382.05508,329.09258 380.9896,329.09258 C 379.92414,329.09258 379.57042,330.44258 380.20358,332.09258 C 380.83676,333.74258 381.7085,335.09258 382.14082,335.09258 C 382.57312,335.09258 382.92684,333.74258 382.92684,332.09258 z"
       id="path2520"
       inkscape:export-filename="C:\Documents and Settings\Maen\My Documents\My Pictures\path2608s.png"
       inkscape:export-xdpi="90"
       inkscape:export-ydpi="90" />
    <path
       style="fill:#000000"
       d="M 388.92684,329.09258 C 388.92684,327.99258 387.97372,327.09258 386.8088,327.09258 C 385.64388,327.09258 385.247,327.99258 385.92684,329.09258 C 386.60668,330.19258 387.5598,331.09258 388.04488,331.09258 C 388.52996,331.09258 388.92684,330.19258 388.92684,329.09258 z"
       id="path2518"
       inkscape:export-filename="C:\Documents and Settings\Maen\My Documents\My Pictures\path2608s.png"
       inkscape:export-xdpi="90"
       inkscape:export-ydpi="90" />
    <path
       style="fill:#ffccaa"
       d="M 33.153175,309.59258 C 46.087375,289.6349 56.248895,268.24808 61.668135,249.57752 C 64.612455,239.4336 64.587875,239.13326 60.971295,241.06878 C 55.272135,244.11888 32.086815,273.97128 24.661735,287.81936 C 21.042375,294.56962 17.915775,303.24258 17.713735,307.09258 C 17.511675,310.94258 16.776315,316.612 16.079595,319.6913 C 14.782635,325.42336 15.859695,329.09258 18.839235,329.09258 C 19.761215,329.09258 26.202475,320.31758 33.153175,309.59258 z"
       id="path2516"
       inkscape:export-filename="C:\Documents and Settings\Maen\My Documents\My Pictures\path2608s.png"
       inkscape:export-xdpi="90"
       inkscape:export-ydpi="90" />
    <path
       style="fill:#ffccaa"
       d="M 401.82964,325.24986 C 403.19344,323.04318 387.7369,267.23108 381.27146,251.01622 C 377.99864,242.80822 371.01524,227.14642 365.75278,216.21222 C 357.88526,199.86532 355.81994,193.19106 354.1326,178.66062 C 352.89592,168.01108 351.2553,161.30504 350.00368,161.78382 C 348.86142,162.22074 338.92684,164.62656 327.92684,167.13008 C 316.92684,169.63358 307.65764,171.89352 307.32862,172.15212 C 306.99962,172.41074 308.03208,178.35314 309.623,185.35746 C 311.21394,192.36178 313.5549,204.41276 314.82516,212.13744 C 317.0978,225.95788 317.32752,226.34136 329.2014,236.13744 C 350.70552,253.87854 364.77976,272.59394 375.96298,298.3192 C 379.72434,306.97164 383.72994,314.36028 384.86434,314.73842 C 385.99872,315.11654 386.92684,316.28258 386.92684,317.32962 C 386.92684,322.15944 393.27644,328.62668 397.04964,327.63996 C 399.21638,327.07334 401.36738,325.9978 401.82964,325.24986 z"
       id="path2514"
       inkscape:export-filename="C:\Documents and Settings\Maen\My Documents\My Pictures\path2608s.png"
       inkscape:export-xdpi="90"
       inkscape:export-ydpi="90" />
    <path
       style="fill:#000000"
       d="M 12.926835,320.85652 C 12.926835,319.75652 12.026835,319.41274 10.926835,320.09258 C 9.8268353,320.77242 8.9268353,322.22864 8.9268353,323.32864 C 8.9268353,324.42864 9.8268353,324.77242 10.926835,324.09258 C 12.026835,323.41274 12.926835,321.95652 12.926835,320.85652 z"
       id="path2512"
       inkscape:export-filename="C:\Documents and Settings\Maen\My Documents\My Pictures\path2608s.png"
       inkscape:export-xdpi="90"
       inkscape:export-ydpi="90" />
    <path
       style="fill:#000000"
       d="M 6.9268353,318.85652 C 6.9268353,317.75652 6.0268353,317.41274 4.9268353,318.09258 C 3.8268353,318.77242 2.9268353,320.22864 2.9268353,321.32864 C 2.9268353,322.42864 3.8268353,322.77242 4.9268353,322.09258 C 6.0268353,321.41274 6.9268353,319.95652 6.9268353,318.85652 z"
       id="path2510"
       inkscape:export-filename="C:\Documents and Settings\Maen\My Documents\My Pictures\path2608s.png"
       inkscape:export-xdpi="90"
       inkscape:export-ydpi="90" />
    <path
       style="fill:#ffccaa"
       d="M 4.0729353,312.08104 C 6.1497153,308.22468 9.3519553,304.59242 11.189035,304.00936 C 13.026115,303.4263 15.038975,300.9565 15.662055,298.52092 C 17.757075,290.33162 40.158615,258.21086 53.247375,244.62864 C 65.330315,232.09016 66.391235,230.24698 68.682255,217.81326 C 71.295475,203.6307 70.381775,201.19282 62.426835,201.1232 C 60.501835,201.10636 58.926835,200.19258 58.926835,199.09258 C 58.926835,197.99258 60.119955,197.09258 61.578215,197.09258 C 69.467375,197.09258 81.370595,172.87948 87.141515,145.09258 C 93.846575,112.80786 96.369255,88.46492 93.694415,81.85936 C 92.410055,78.68762 90.006115,68.12696 88.352295,58.3912 C 85.647195,42.46668 84.584555,39.91068 77.766055,32.92792 C 73.597435,28.65886 70.671675,24.68108 71.264375,24.08838 C 71.857055,23.4957 75.972555,26.94948 80.409915,31.76344 C 86.288735,38.1412 88.835275,42.90068 89.795075,49.30434 C 92.232715,65.5677 95.427535,78.04372 99.178355,85.94664 C 102.49676,92.9385 102.57778,94.16332 99.916395,97.10412 C 94.556455,103.0268 96.010715,130.64162 103.1305,158.136 C 108.6411,179.41616 109.08796,183.17096 107.1305,191.74516 C 103.5605,207.38268 103.39548,207.25932 119.51312,201.00082 C 137.05166,194.19058 167.49734,187.81002 191.48154,185.91826 C 201.13662,185.15672 209.59912,183.62286 210.28708,182.5097 C 213.0782,177.99358 204.1244,175.0512 188.9322,175.4921 C 176.10164,175.86446 172.60512,175.21998 166.2939,171.31944 C 153.15766,163.2008 149.32204,150.5333 153.6765,129.64924 C 155.28898,121.91568 159.09178,110.75168 162.12712,104.8404 C 166.07878,97.14462 167.68584,90.96892 167.7864,83.09258 C 167.91298,73.17892 168.38212,72.02804 172.53692,71.43906 C 182.51074,70.02516 186.61482,82.03504 177.52166,86.02602 C 174.5931,87.31136 170.37826,94.17852 164.94766,106.51262 C 150.6104,139.0757 152.0357,160.47536 169.12238,169.19234 C 173.3272,171.33748 177.92834,173.0528 179.34716,173.00418 C 180.76598,172.95558 178.67918,171.1994 174.70982,169.10158 C 155.8419,159.12984 160.03728,130.32882 184.83652,99.5825 C 190.60634,92.42902 194.92684,85.0407 194.92684,82.3274 C 194.92684,73.29102 204.96714,70.07358 209.70224,77.59258 C 212.5281,82.07982 209.21784,87.83914 203.30614,88.72074 C 197.07534,89.64992 179.12568,110.33488 172.61172,124.09258 C 163.9699,142.34438 165.024,159.79274 175.094,165.18204 C 179.0592,167.30416 179.08502,167.19982 176.04816,161.3272 C 171.79272,153.09808 172.13906,141.40912 176.86814,133.65306 C 181.27792,126.42068 193.2382,117.11346 207.42684,109.87304 C 213.89014,106.57482 216.92684,103.76954 216.92684,101.097 C 216.92684,96.22386 225.6619,93.553 229.95282,97.11414 C 237.104,103.0491 231.00052,112.30514 221.33558,110.18236 C 216.82528,109.19172 212.47,110.71164 201.19996,117.2093 C 193.29066,121.76934 184.69216,128.33356 182.09214,131.79644 C 172.44384,144.64676 173.72586,157.98846 185.28436,165.01762 C 191.93444,169.06176 195.48432,168.85006 191.2935,164.65924 C 187.127,160.49274 188.63146,150.09964 194.58912,141.89266 C 198.45818,136.56282 206.00576,130.93758 218.42146,124.13032 C 228.41498,118.65106 236.2545,113.62274 235.84258,112.95624 C 234.38746,110.60182 241.20324,103.09258 244.79536,103.09258 C 250.03054,103.09258 253.57042,108.2561 252.16744,113.846 C 250.75508,119.47328 245.951,121.86448 241.2939,119.25824 C 238.89534,117.91594 233.95264,119.58984 223.03934,125.44036 C 214.80836,129.8529 206.33634,134.68022 204.2126,136.16774 C 193.81258,143.4522 189.53414,159.559 196.42684,165.4784 C 203.16884,171.26836 204.01976,170.9585 203.25986,162.99016 C 201.79138,147.59172 210.41328,139.88766 243.92684,126.65238 C 252.94532,123.09078 256.08578,120.81642 256.56652,117.49856 C 258.0137,107.51078 272.92684,107.89316 272.92684,117.91806 C 272.92684,124.04414 268.1614,127.83606 262.30864,126.36712 C 257.60688,125.18706 226.96434,135.98706 217.59362,142.127 C 212.07832,145.74076 207.85504,152.1384 206.1651,159.4395 C 205.23672,163.45038 206.22118,166.32392 210.10494,170.9395 C 216.63576,178.70094 218.92684,178.7149 218.92684,170.99326 C 218.92684,156.88084 229.25814,147.29066 257.532,135.15744 C 270.61474,129.54322 273.58858,127.38034 275.92994,121.77668 C 278.48818,115.65394 280.82138,114.03358 285.74356,114.96132 C 291.0676,115.96478 292.62694,102.40982 287.95482,95.73944 C 285.25728,91.88816 285.42962,90.69262 289.82082,82.79444 C 292.48172,78.00842 295.7034,69.59258 296.98008,64.09258 C 300.91528,47.13968 307.15948,29.09258 309.0899,29.09258 C 311.49848,29.09258 311.43506,31.78436 308.96834,34.25108 C 307.89116,35.32826 305.15372,43.83326 302.88514,53.15108 C 300.61656,62.4689 297.45952,73.45672 295.86948,77.56846 C 293.28668,84.24746 293.4074,88.08488 297.00196,113.56846 C 301.00276,141.93196 305.15654,167.624 305.90046,168.60744 C 306.11466,168.89062 316.33322,166.73386 328.60838,163.81466 C 349.48624,158.84958 350.92684,158.19194 350.92684,153.6261 C 350.92684,145.50894 345.02816,98.73778 342.74796,88.77506 C 340.9555,80.94344 341.29384,77.03982 344.86948,64.29698 C 348.67454,50.73656 348.89366,47.4574 346.94546,33.22858 C 343.99774,11.69964 339.79636,-3.7055796 333.27782,-16.88658 C 328.92802,-25.6822 325.63444,-29.21984 316.96568,-34.40742 L 306.10378,-40.90742 L 262.1728,-40.90742 C 224.4999,-40.90742 217.73226,-41.36854 214.66492,-44.14446 C 209.63304,-48.69824 200.10018,-46.2846 201.52954,-40.81872 C 203.39082,-33.70118 199.94152,-35.0868 186.46318,-46.87104 C 170.84798,-60.52352 163.27288,-63.50596 147.02218,-62.39954 C 134.89586,-61.57394 132.4822,-60.33226 107.27706,-41.95308 C 103.61966,-39.28618 95.912235,-35.73346 90.149455,-34.05818 C 69.110215,-27.9419 55.575275,-13.39002 46.495775,12.87546 C 42.852415,23.41506 41.907115,30.54934 41.829415,48.09258 C 41.775835,60.19258 40.660575,80.44258 39.351075,93.09258 C 38.041575,105.74258 36.179775,131.04142 35.213755,149.31222 L 33.457335,182.53186 L 23.565235,201.31222 C 4.1412553,238.18906 -4.3646447,260.90348 -9.9504647,290.81352 C -14.032445,312.67108 -13.916265,314.8826 -8.5731647,317.03026 C -1.2511647,319.97334 0.10939534,319.44086 4.0729353,312.08104 z"
       id="path2508"
       inkscape:export-filename="C:\Documents and Settings\Maen\My Documents\My Pictures\path2608s.png"
       inkscape:export-xdpi="90"
       inkscape:export-ydpi="90" />
    <path
       style="fill:#000000"
       d="M 119.6499,90.09208 C 117.95602,85.6779 121.43042,82.60748 127.19616,83.42326 C 130.3704,83.87236 131.92684,85.40862 131.92684,88.09258 C 131.92684,93.3183 121.53724,95.01042 119.6499,90.09208 z"
       id="path2506"
       inkscape:export-filename="C:\Documents and Settings\Maen\My Documents\My Pictures\path2608s.png"
       inkscape:export-xdpi="90"
       inkscape:export-ydpi="90" />
    <path
       style="fill:#000000"
       d="M 129.84142,89.23078 C 131.32052,86.83758 127.55818,84.46632 124.89422,86.11274 C 122.6575,87.4951 124.12588,91.09258 126.92684,91.09258 C 127.897,91.09258 129.20856,90.25476 129.84142,89.23078 z"
       id="path2504"
       inkscape:export-filename="C:\Documents and Settings\Maen\My Documents\My Pictures\path2608s.png"
       inkscape:export-xdpi="90"
       inkscape:export-ydpi="90" />
    <path
       style="fill:#000000"
       d="M 257.0426,88.23206 C 253.5364,84.00736 261.2952,80.07862 267.05598,83.1617 C 270.3585,84.92916 270.70986,85.94418 268.81108,88.23206 C 267.50538,89.80534 264.85746,91.09258 262.92684,91.09258 C 260.99622,91.09258 258.3483,89.80534 257.0426,88.23206 z"
       id="path2502"
       inkscape:export-filename="C:\Documents and Settings\Maen\My Documents\My Pictures\path2608s.png"
       inkscape:export-xdpi="90"
       inkscape:export-ydpi="90" />
    <path
       style="fill:#000000"
       d="M 265.30184,85.72636 C 263.85808,85.14862 262.1331,85.21966 261.4685,85.88424 C 260.80392,86.54884 261.98518,87.02152 264.0935,86.93468 C 266.4234,86.83872 266.8973,86.3648 265.30184,85.72636 z"
       id="path2500"
       inkscape:export-filename="C:\Documents and Settings\Maen\My Documents\My Pictures\path2608s.png"
       inkscape:export-xdpi="90"
       inkscape:export-ydpi="90" />
    <path
       style="fill:#d45500"
       d="M 704.38604,316.30004 C 705.017,315.6691 704.48528,303.6643 703.20446,289.62272 C 698.03662,232.96734 695.00696,197.89274 694.96798,194.2681 C 694.92784,190.5375 692.58252,190.47596 599.42684,191.7608 C 546.90184,192.48524 498.75184,193.08126 492.42684,193.08528 C 482.29224,193.09172 480.92684,193.56386 480.92684,197.06192 C 480.92684,200.66724 481.98148,200.94708 492.42684,200.11344 C 498.75184,199.60862 545.4792,198.7131 596.26544,198.12336 L 688.60402,197.0511 L 689.76966,209.57184 C 691.67906,230.08144 696.92684,300.60624 696.92684,305.75678 L 696.92684,310.52808 L 628.42684,311.81694 C 590.75184,312.52582 543.27684,313.2605 522.92684,313.44956 L 485.92684,313.7933 L 485.79958,277.94582 C 485.68716,246.27992 485.28724,242.02418 482.37104,241.46258 C 477.88838,240.5993 477.38192,244.06206 476.01748,284.90278 L 474.8545,319.71298 L 589.0467,318.5801 C 651.8524,317.957 703.7551,316.93098 704.38604,316.30004 z"
       id="path2498"
       inkscape:export-filename="C:\Documents and Settings\Maen\My Documents\My Pictures\path2608s.png"
       inkscape:export-xdpi="90"
       inkscape:export-ydpi="90" />
    <path
       style="fill:#ffd42a"
       d="M 669.8194,307.9979 C 682.9603,307.43482 693.82426,306.77578 693.96152,306.53336 C 694.20892,306.09642 689.53748,250.75884 689.1359,249.36916 C 688.81536,248.26 491.35064,249.9884 490.34156,251.1092 C 489.85462,251.65006 488.83076,265.41242 488.0663,281.6922 L 486.6764,311.29182 L 566.30162,310.15674 C 610.0955,309.53246 656.6785,308.56098 669.8194,307.9979 z"
       id="path2496"
       inkscape:export-filename="C:\Documents and Settings\Maen\My Documents\My Pictures\path2608s.png"
       inkscape:export-xdpi="90"
       inkscape:export-ydpi="90" />
    <path
       style="fill:#000000"
       d="M 564.352,301.85106 C 563.56816,301.06724 562.92684,297.87592 562.92684,294.75924 C 562.92684,289.5972 563.56148,289.09258 570.05356,289.09258 C 576.88918,289.09258 577.15468,289.35808 576.55356,295.59258 C 576.0457,300.85976 574.96432,302.20482 570.852,302.6844 C 568.06082,303.0099 565.13582,302.6349 564.352,301.85106 z"
       id="path2494"
       inkscape:export-filename="C:\Documents and Settings\Maen\My Documents\My Pictures\path2608s.png"
       inkscape:export-xdpi="90"
       inkscape:export-ydpi="90" />
    <path
       style="fill:#000000"
       d="M 654.47712,294.05582 C 637.40736,284.5392 644.42414,257.09258 663.92684,257.09258 C 673.99392,257.09258 682.92684,265.93832 682.92684,275.90718 C 682.92684,290.21462 666.44554,300.72836 654.47712,294.05582 z"
       id="path2492"
       inkscape:export-filename="C:\Documents and Settings\Maen\My Documents\My Pictures\path2608s.png"
       inkscape:export-xdpi="90"
       inkscape:export-ydpi="90" />
    <path
       style="fill:#000000"
       d="M 673.65712,288.94742 C 684.49208,280.42464 678.54652,261.09258 665.09042,261.09258 C 656.45982,261.09258 653.12122,262.91532 649.72602,269.48092 C 641.32098,285.73448 659.22588,300.29902 673.65712,288.94742 z"
       id="path2490"
       inkscape:export-filename="C:\Documents and Settings\Maen\My Documents\My Pictures\path2608s.png"
       inkscape:export-xdpi="90"
       inkscape:export-ydpi="90" />
    <path
       style="fill:#c83737"
       d="M 655.74292,282.09258 C 652.7081,277.46084 652.7081,276.72432 655.74292,272.09258 C 659.63794,266.14802 666.89652,265.53414 671.61686,270.75006 C 675.7738,275.34342 675.83152,279.9022 671.78398,283.94972 C 667.0224,288.7113 659.50978,287.84152 655.74292,282.09258 z"
       id="path2488"
       inkscape:export-filename="C:\Documents and Settings\Maen\My Documents\My Pictures\path2608s.png"
       inkscape:export-xdpi="90"
       inkscape:export-ydpi="90" />
    <path
       style="fill:#000000"
       d="M 590.92684,287.09258 C 590.92684,281.75924 591.5935,281.09258 596.92684,281.09258 C 602.26018,281.09258 602.92684,281.75924 602.92684,287.09258 C 602.92684,292.42592 602.26018,293.09258 596.92684,293.09258 C 591.5935,293.09258 590.92684,292.42592 590.92684,287.09258 z"
       id="path2486"
       inkscape:export-filename="C:\Documents and Settings\Maen\My Documents\My Pictures\path2608s.png"
       inkscape:export-xdpi="90"
       inkscape:export-ydpi="90" />
    <path
       style="fill:#c83737"
       d="M 600.92684,288.09258 C 600.92684,286.42592 599.14906,285.09258 596.92684,285.09258 C 592.94236,285.09258 591.7246,287.22366 594.26018,289.75924 C 596.69604,292.1951 600.92684,291.1374 600.92684,288.09258 z"
       id="path2484"
       inkscape:export-filename="C:\Documents and Settings\Maen\My Documents\My Pictures\path2608s.png"
       inkscape:export-xdpi="90"
       inkscape:export-ydpi="90" />
    <path
       style="fill:#000000"
       d="M 512.50726,279.59258 C 511.49022,264.78354 512.27318,262.74114 518.68234,263.48438 C 523.3443,264.02502 523.997,265.07446 524.55842,272.93216 C 525.49982,286.10782 523.7199,291.09258 518.07384,291.09258 C 513.6835,291.09258 513.23314,290.16216 512.50726,279.59258 z"
       id="path2482"
       inkscape:export-filename="C:\Documents and Settings\Maen\My Documents\My Pictures\path2608s.png"
       inkscape:export-xdpi="90"
       inkscape:export-ydpi="90" />
    <path
       style="fill:#c83737"
       d="M 520.92684,282.09258 C 520.92684,278.98146 519.7935,277.09258 517.92684,277.09258 C 516.06018,277.09258 514.92684,278.98146 514.92684,282.09258 C 514.92684,285.2037 516.06018,287.09258 517.92684,287.09258 C 519.7935,287.09258 520.92684,285.2037 520.92684,282.09258 z"
       id="path2480"
       inkscape:export-filename="C:\Documents and Settings\Maen\My Documents\My Pictures\path2608s.png"
       inkscape:export-xdpi="90"
       inkscape:export-ydpi="90" />
    <path
       style="fill:#c83737"
       d="M 520.92684,271.09258 C 520.92684,268.87036 519.5935,267.09258 517.92684,267.09258 C 516.26018,267.09258 514.92684,268.87036 514.92684,271.09258 C 514.92684,273.3148 516.26018,275.09258 517.92684,275.09258 C 519.5935,275.09258 520.92684,273.3148 520.92684,271.09258 z"
       id="path2478"
       inkscape:export-filename="C:\Documents and Settings\Maen\My Documents\My Pictures\path2608s.png"
       inkscape:export-xdpi="90"
       inkscape:export-ydpi="90" />
    <path
       style="fill:#000000"
       d="M 562.4072,277.93494 C 561.31978,272.24648 563.86314,270.3834 571.28138,271.43442 C 574.6569,271.91266 576.09984,273.59612 576.55968,277.59258 C 577.14184,282.65202 576.63986,283.09258 570.29284,283.09258 C 564.46516,283.09258 563.23996,282.29124 562.4072,277.93494 z"
       id="path2476"
       inkscape:export-filename="C:\Documents and Settings\Maen\My Documents\My Pictures\path2608s.png"
       inkscape:export-xdpi="90"
       inkscape:export-ydpi="90" />
    <path
       style="fill:#000000"
       d="M 589.6501,274.09258 C 587.60554,268.76458 590.54886,265.09258 596.86408,265.09258 C 602.26714,265.09258 602.92684,265.74544 602.92684,271.09258 C 602.92684,276.43972 602.26714,277.09258 596.86408,277.09258 C 593.31992,277.09258 590.32306,275.8463 589.6501,274.09258 z"
       id="path2474"
       inkscape:export-filename="C:\Documents and Settings\Maen\My Documents\My Pictures\path2608s.png"
       inkscape:export-xdpi="90"
       inkscape:export-ydpi="90" />
    <path
       style="fill:#000000"
       d="M 563.08668,266.28518 C 558.7854,261.10244 561.29426,256.15658 568.58014,255.45566 C 574.97766,254.84018 575.17924,255.04232 574.56376,261.45566 C 574.08884,266.4046 572.865,268.2443 569.75182,268.6891 C 567.45558,269.01718 564.45626,267.93542 563.08668,266.28518 z"
       id="path2472"
       inkscape:export-filename="C:\Documents and Settings\Maen\My Documents\My Pictures\path2608s.png"
       inkscape:export-xdpi="90"
       inkscape:export-ydpi="90" />
    <path
       style="fill:#ffcc00"
       d="M 675.42684,245.10302 C 684.15256,245.09628 688.92684,244.29032 688.92684,242.8241 C 688.92684,241.15924 674.6907,240.87668 635.42684,241.76222 C 606.00184,242.42586 561.00184,242.99668 535.42684,243.0307 C 501.49714,243.07586 488.92684,243.72028 488.92684,245.41456 C 488.92684,247.1616 510.34414,247.4118 575.42684,246.425 C 623.00184,245.70366 668.00184,245.10876 675.42684,245.10302 z"
       id="path2470"
       inkscape:export-filename="C:\Documents and Settings\Maen\My Documents\My Pictures\path2608s.png"
       inkscape:export-xdpi="90"
       inkscape:export-ydpi="90" />
    <path
       style="fill:#ffffff"
       d="M 594.42684,237.832 C 596.90184,237.16874 598.92684,235.91014 598.92684,235.03512 C 598.92684,233.38592 583.38516,229.95038 580.01454,230.8545 C 568.8201,233.85722 560.39216,234.35138 558.31412,232.12684 C 556.4557,230.1374 555.48622,230.2872 553.57416,232.85922 C 551.54862,235.58388 550.5092,235.6886 546.9673,233.52482 C 544.65556,232.11256 541.93974,231.46658 540.93216,232.0893 C 539.92456,232.71202 530.41532,233.24524 519.8005,233.27424 C 504.17478,233.31694 499.76446,232.6606 496.63276,229.82644 C 492.98708,226.52716 492.43546,226.52042 487.0372,229.70924 C 480.65532,233.47912 471.83178,234.17484 469.90668,231.05996 C 469.21576,229.94202 467.94522,229.46318 467.08328,229.9959 C 466.22134,230.5286 463.84028,229.73904 461.792,228.2413 C 459.28238,226.40622 456.5948,226.07822 453.55086,227.23552 C 450.60208,228.35666 446.1505,227.9356 440.72888,226.02274 C 430.57556,222.44044 430.92684,222.43994 430.92684,226.03672 C 430.92684,229.63802 447.72718,234.81198 466.54722,237.00664 C 482.54756,238.87248 588.00448,239.55314 594.42684,237.832 z"
       id="path2468"
       inkscape:export-filename="C:\Documents and Settings\Maen\My Documents\My Pictures\path2608s.png"
       inkscape:export-xdpi="90"
       inkscape:export-ydpi="90" />
    <path
       style="fill:#ffffff"
       d="M 537.259,228.75678 C 543.2037,226.9757 545.60996,226.9757 547.39104,228.75678 C 551.3727,232.73844 552.3206,231.48976 555.107,218.59258 L 557.80758,206.09258 L 558.86722,218.09258 C 559.9203,230.01858 559.96384,230.08906 565.92684,229.52032 C 569.22684,229.20558 578.00184,228.90936 585.42684,228.86202 C 598.70792,228.77736 598.92648,228.68934 598.90482,223.43428 C 598.89272,220.49634 598.36148,214.94258 597.72432,211.09258 L 596.5658,204.09258 L 522.93828,204.09258 L 449.31076,204.09258 L 449.6188,208.91494 C 449.86526,212.77336 448.62758,214.08404 443.42684,215.47212 C 435.4793,217.5933 435.11184,220.4835 442.42684,223.3373 C 446.19694,224.80814 449.65402,224.84824 453.4182,223.4648 C 456.67922,222.26628 459.36714,222.18698 460.03622,223.26958 C 460.6559,224.27222 462.4598,225.09258 464.04488,225.09258 C 466.06664,225.09258 466.92684,222.74 466.92684,217.21062 C 466.92684,205.14 470.29952,205.76058 471.84314,218.11522 C 473.03888,227.68568 473.78,229.09258 477.62574,229.09258 C 480.05184,229.09258 484.07578,227.66444 486.56784,225.91892 C 490.60856,223.0887 491.5924,223.06864 495.65954,225.73352 C 503.90134,231.13376 524.36216,232.62076 537.259,228.75678 z"
       id="path2466"
       inkscape:export-filename="C:\Documents and Settings\Maen\My Documents\My Pictures\path2608s.png"
       inkscape:export-xdpi="90"
       inkscape:export-ydpi="90" />
    <path
       style="fill:#ffffff"
       d="M 87.926835,217.29058 C 98.346015,210.71962 100.23498,208.56142 102.2659,200.90762 C 105.86978,187.32586 105.35138,177.71486 99.921795,157.44826 C 97.174575,147.19388 94.834955,136.84388 94.722675,134.44826 C 94.446415,128.55484 92.565395,135.08602 84.874055,168.64422 C 81.527035,183.24764 77.820935,197.64764 76.638295,200.64422 C 75.455635,203.64082 73.400835,211.21142 72.072075,217.4678 C 69.905595,227.66842 69.979875,228.6373 72.791495,226.85074 C 74.515935,225.755 81.326835,221.45292 87.926835,217.29058 z"
       id="path2464"
       inkscape:export-filename="C:\Documents and Settings\Maen\My Documents\My Pictures\path2608s.png"
       inkscape:export-xdpi="90"
       inkscape:export-ydpi="90" />
    <path
       style="fill:#ffffff"
       d="M 308.94214,197.53666 C 306.54672,185.74242 303.9832,175.45746 303.24546,174.68122 C 301.7841,173.14358 284.96404,176.71742 282.25448,179.14128 C 279.58138,181.5325 283.1087,203.30954 286.6902,206.52656 C 292.4922,211.73812 311.90896,222.29052 312.61214,220.61432 C 312.98906,219.71584 311.33756,209.3309 308.94214,197.53666 z"
       id="path2462"
       inkscape:export-filename="C:\Documents and Settings\Maen\My Documents\My Pictures\path2608s.png"
       inkscape:export-xdpi="90"
       inkscape:export-ydpi="90" />
    <path
       style="fill:#000000"
       d="M 439.63436,214.07102 C 447.1906,210.2307 447.31816,209.98092 446.13436,201.34406 C 445.47022,196.49868 444.92684,188.5868 444.92684,183.76208 L 444.92684,174.98986 L 439.42212,177.83646 C 427.88976,183.80008 426.29984,187.41662 427.86544,204.12394 C 428.64788,212.4738 429.8818,219.00912 430.60746,218.64686 C 431.33312,218.28462 435.39522,216.22548 439.63436,214.07102 z"
       id="path2460"
       inkscape:export-filename="C:\Documents and Settings\Maen\My Documents\My Pictures\path2608s.png"
       inkscape:export-xdpi="90"
       inkscape:export-ydpi="90" />
    <path
       style="fill:#ffccaa"
       d="M 279.61626,192.59258 C 278.92916,185.71758 278.20104,179.87566 277.9982,179.61052 C 277.66588,179.17616 267.77806,181.56904 246.42684,187.2509 C 242.30184,188.34862 238.92684,189.91272 238.92684,190.7267 C 238.92684,191.54066 245.41186,193.8772 253.33798,195.91902 C 261.26412,197.96084 270.48912,200.82496 273.83798,202.28372 C 277.18686,203.74248 280.13804,204.97124 280.39618,205.0143 C 280.6543,205.05736 280.30334,199.46758 279.61626,192.59258 z"
       id="path2458"
       inkscape:export-filename="C:\Documents and Settings\Maen\My Documents\My Pictures\path2608s.png"
       inkscape:export-xdpi="90"
       inkscape:export-ydpi="90" />
    <path
       style="fill:#000000"
       d="M 75.911555,192.09258 C 77.043075,186.73738 76.916155,186.52246 74.730435,190.09258 C 73.383555,192.29258 70.968775,194.87272 69.364255,195.82624 C 66.932795,197.27118 66.900475,197.84022 69.170175,199.24296 C 72.640415,201.3877 74.325115,199.60078 75.911555,192.09258 z"
       id="path2456"
       inkscape:export-filename="C:\Documents and Settings\Maen\My Documents\My Pictures\path2608s.png"
       inkscape:export-xdpi="90"
       inkscape:export-ydpi="90" />
    <path
       style="fill:#ffccaa"
       d="M 259.90426,180.42274 L 277.88168,175.85154 L 282.3354,156.97206 C 287.84502,133.61652 287.88868,131.81064 282.97464,130.52558 C 277.18728,129.01216 237.34752,146.8913 229.8053,154.38674 C 221.19956,162.9391 218.77722,177.09258 225.91924,177.09258 C 227.3297,177.09258 230.6084,178.86264 233.20528,181.02604 C 239.07038,185.91216 238.242,185.93088 259.90426,180.42274 z"
       id="path2454"
       inkscape:export-filename="C:\Documents and Settings\Maen\My Documents\My Pictures\path2608s.png"
       inkscape:export-xdpi="90"
       inkscape:export-ydpi="90" />
    <path
       style="fill:#ffffff"
       d="M 295.41524,171.97882 L 302.90362,170.65178 L 301.61488,162.37218 C 300.90608,157.8184 298.82516,145.54258 296.9906,135.09258 L 293.65506,116.09258 L 290.24498,134.09258 C 288.36944,143.99258 285.57802,157.30524 284.04182,163.67628 C 281.47304,174.32974 281.51688,175.1815 284.58778,174.2829 C 286.42426,173.74552 291.29662,172.70868 295.41524,171.97882 z"
       id="path2452"
       inkscape:export-filename="C:\Documents and Settings\Maen\My Documents\My Pictures\path2608s.png"
       inkscape:export-xdpi="90"
       inkscape:export-ydpi="90" />
    <path
       style="fill:#ffccaa"
       d="M 195.79798,-57.52914 C 192.97906,-63.5836 190.95066,-71.65702 190.92928,-76.90742 L 190.89264,-85.90742 L 179.03556,-89.60322 C 166.25382,-93.5872 162.92684,-92.96476 162.92684,-86.58938 C 162.92684,-82.53382 153.33276,-71.86532 145.99786,-67.76454 C 142.86936,-66.01548 143.54088,-65.78232 149.652,-66.49574 C 159.92116,-67.69462 172.96176,-62.30598 185.32036,-51.75686 C 192.88996,-45.29558 196.26678,-43.5297 198.1168,-45.06508 C 200.0979,-46.70924 199.60692,-49.3483 195.79798,-57.52914 z"
       id="path2450"
       inkscape:export-filename="C:\Documents and Settings\Maen\My Documents\My Pictures\path2608s.png"
       inkscape:export-xdpi="90"
       inkscape:export-ydpi="90" />
    <path
       style="fill:#ffccaa"
       d="M 271.80092,-46.85954 C 280.16808,-50.04074 277.76996,-53.72956 262.59446,-61.02104 C 239.84076,-71.95368 231.36894,-78.04688 227.40502,-86.33038 C 225.40062,-90.51902 222.4706,-93.74274 220.853,-93.53918 C 215.88052,-92.9134 196.57718,-87.22444 195.38662,-86.03386 C 192.7861,-83.43334 194.57878,-67.22704 198.42692,-58.54888 C 201.5984,-51.3967 203.44318,-49.40336 206.2518,-50.09388 C 208.27308,-50.5908 212.62684,-49.11002 215.92684,-46.80324 C 221.43202,-42.95498 223.772,-42.704 244.30092,-43.75988 C 256.60666,-44.39282 268.98166,-45.78766 271.80092,-46.85954 z"
       id="path2448"
       inkscape:export-filename="C:\Documents and Settings\Maen\My Documents\My Pictures\path2608s.png"
       inkscape:export-xdpi="90"
       inkscape:export-ydpi="90" />
    <path
       style="fill:#ffccaa"
       d="M 285.30544,-47.40742 C 281.453,-51.25108 280.52374,-51.46992 278.93424,-48.9079 C 277.60078,-46.75854 278.0446,-45.52294 280.50008,-44.54846 C 287.91696,-41.60508 289.92414,-42.79926 285.30544,-47.40742 z"
       id="path2446"
       inkscape:export-filename="C:\Documents and Settings\Maen\My Documents\My Pictures\path2608s.png"
       inkscape:export-xdpi="90"
       inkscape:export-ydpi="90" />
    <path
       style="fill:#ffccaa"
       d="M 184.19656,-95.05258 C 177.67638,-100.18136 177.49162,-105.654 183.63136,-111.79376 L 188.33586,-116.49826 L 182.39236,-118.20284 C 175.16778,-120.27482 174.29728,-123.33978 180.51376,-124.81726 C 187.02258,-126.3642 205.12756,-124.85022 203.89862,-122.86176 C 203.33444,-121.9489 198.15998,-121.47532 192.39984,-121.80936 C 186.63968,-122.14342 184.40184,-122.0201 187.42684,-121.53536 C 194.2629,-120.43988 194.43362,-116.9389 187.92684,-111.28132 C 185.12004,-108.84084 182.92684,-104.77008 182.92684,-102.00094 C 182.92684,-92.24484 207.57228,-90.50202 218.57302,-99.48018 C 228.2861,-107.40742 237.89938,-145.76054 237.5516,-175.1971 C 237.30178,-196.34308 234.77506,-206.03652 226.59262,-217.23978 C 223.44202,-221.55352 227.45576,-226.96106 233.01376,-225.89068 C 235.11968,-225.48512 237.36476,-225.99796 238.00282,-227.03036 C 238.64086,-228.06274 237.67906,-228.90742 235.86546,-228.90742 C 234.05186,-228.90742 230.9945,-230.85062 229.07132,-233.22564 C 225.1983,-238.00862 220.92684,-236.79282 220.92684,-230.90742 C 220.92684,-228.83726 220.02684,-226.58726 218.92684,-225.90742 C 217.82684,-225.22758 216.92684,-223.66758 216.92684,-222.44076 C 216.92684,-221.21394 219.00984,-222.16704 221.55574,-224.5588 C 227.48508,-230.12912 230.75408,-230.24148 225.74154,-224.70266 C 218.45504,-216.65118 212.10516,-214.90742 190.07226,-214.90742 C 170.12164,-214.90742 168.85616,-214.6588 165.90868,-210.16038 C 164.19796,-207.54952 162.25186,-200.79952 161.58398,-195.16038 L 160.36968,-184.90742 L 170.40336,-184.90742 C 184.2508,-184.90742 185.64948,-182.6677 184.4586,-162.40072 C 183.92558,-153.3294 183.13788,-144.55742 182.70816,-142.90742 C 182.08664,-140.52102 183.86992,-139.97366 191.42684,-140.23122 C 196.65184,-140.40932 200.92684,-140.16204 200.92684,-139.68172 C 200.92684,-137.38734 189.57308,-134.88694 184.357,-136.03258 C 178.84262,-137.24374 178.5553,-137.78096 179.67538,-144.78558 C 180.3317,-148.89002 181.41332,-157.7878 182.07898,-164.55842 C 183.2542,-176.51204 183.1354,-176.92714 177.97784,-178.88802 C 175.05658,-179.9987 169.49824,-180.90742 165.62598,-180.90742 L 158.58554,-180.90742 L 159.25618,-193.91162 C 159.62504,-201.06392 159.72258,-206.91392 159.47294,-206.91162 C 156.44614,-206.88364 152.58154,-193.86484 150.96106,-178.23736 C 148.83576,-157.74162 150.95568,-142.83934 160.37686,-112.04788 C 163.61192,-101.47464 164.95724,-99.68504 172.78072,-95.54788 C 177.60712,-92.99562 183.3358,-90.90742 185.51112,-90.90742 C 189.02848,-90.90742 188.88298,-91.36624 184.19656,-95.05258 z"
       id="path2444"
       inkscape:export-filename="C:\Documents and Settings\Maen\My Documents\My Pictures\path2608s.png"
       inkscape:export-xdpi="90"
       inkscape:export-ydpi="90" />
    <path
       style="fill:#000000"
       d="M 206.31616,-166.30738 C 200.12092,-167.91332 203.85922,-171.88224 212.08228,-172.42924 C 220.72184,-173.00396 226.1982,-170.58256 224.06504,-167.13102 C 222.70598,-164.93202 213.30492,-164.49576 206.31616,-166.30738 z"
       id="path2442"
       inkscape:export-filename="C:\Documents and Settings\Maen\My Documents\My Pictures\path2608s.png"
       inkscape:export-xdpi="90"
       inkscape:export-ydpi="90" />
    <path
       style="fill:#000000"
       d="M 162.92684,-170.93804 C 160.26018,-172.6886 160.26018,-173.12624 162.92684,-174.8768 C 169.15886,-178.96786 180.92684,-176.11126 180.92684,-170.50742 C 180.92684,-168.23346 166.52184,-168.57808 162.92684,-170.93804 z"
       id="path2440"
       inkscape:export-filename="C:\Documents and Settings\Maen\My Documents\My Pictures\path2608s.png"
       inkscape:export-xdpi="90"
       inkscape:export-ydpi="90" />
    <path
       style="fill:#000000"
       d="M 201.81914,-177.08168 C 201.08006,-178.27754 201.44696,-180.22754 202.63444,-181.41502 C 205.66276,-184.44334 222.55642,-184.11346 225.4935,-180.96866 C 227.46092,-178.8621 227.00488,-178.58674 223.1117,-179.5305 C 220.46338,-180.1725 215.17848,-179.39494 211.36746,-177.8026 C 203.07884,-174.33938 203.49458,-174.37078 201.81914,-177.08168 z"
       id="path2438"
       inkscape:export-filename="C:\Documents and Settings\Maen\My Documents\My Pictures\path2608s.png"
       inkscape:export-xdpi="90"
       inkscape:export-ydpi="90" />
    <path
       style="fill:#784421"
       d="M 149.01436,-143.4858 C 147.77032,-149.47838 145.37858,-156.07474 143.6994,-158.1444 C 140.88812,-161.6094 140.73398,-161.15234 141.75306,-152.37296 C 142.85262,-142.89998 148.28356,-129.59748 150.24904,-131.56294 C 150.81402,-132.12794 150.25842,-137.49322 149.01436,-143.4858 z"
       id="path2436"
       inkscape:export-filename="C:\Documents and Settings\Maen\My Documents\My Pictures\path2608s.png"
       inkscape:export-xdpi="90"
       inkscape:export-ydpi="90" />
    <path
       style="fill:#784421"
       d="M 243.09116,-141.65416 C 247.1114,-150.50732 248.14636,-160.90742 245.00712,-160.90742 C 243.20152,-160.90742 241.59824,-156.33156 237.11582,-138.38524 C 234.67928,-128.63 238.00242,-130.44798 243.09116,-141.65416 z"
       id="path2434"
       inkscape:export-filename="C:\Documents and Settings\Maen\My Documents\My Pictures\path2608s.png"
       inkscape:export-xdpi="90"
       inkscape:export-ydpi="90" />
    <path
       style="fill:#784421"
       d="M 244.92684,-170.02546 C 244.92684,-170.51054 244.02684,-170.90742 242.92684,-170.90742 C 241.82684,-170.90742 240.92684,-169.9543 240.92684,-168.78938 C 240.92684,-167.62446 241.82684,-167.22758 242.92684,-167.90742 C 244.02684,-168.58726 244.92684,-169.54038 244.92684,-170.02546 z"
       id="path2432"
       inkscape:export-filename="C:\Documents and Settings\Maen\My Documents\My Pictures\path2608s.png"
       inkscape:export-xdpi="90"
       inkscape:export-ydpi="90" />
    <path
       style="fill:#784421"
       d="M 144.15728,-180.43804 C 145.38402,-181.2462 146.97904,-183.8044 147.70176,-186.12292 C 148.9432,-190.1055 148.63562,-190.21944 142.13538,-188.1849 C 136.38878,-186.38624 135.5691,-185.44438 137.16126,-182.46938 C 139.23054,-178.6029 140.71664,-178.1714 144.15728,-180.43804 z"
       id="path2430"
       inkscape:export-filename="C:\Documents and Settings\Maen\My Documents\My Pictures\path2608s.png"
       inkscape:export-xdpi="90"
       inkscape:export-ydpi="90" />
    <path
       style="fill:#784421"
       d="M 248.92684,-182.90742 C 251.12684,-185.10742 252.92684,-189.00154 252.92684,-191.56104 C 252.92684,-195.59408 252.12672,-196.09722 246.92684,-195.33404 C 241.44044,-194.5288 240.92684,-193.78806 240.92684,-186.68042 C 240.92684,-177.98844 243.02046,-177.00104 248.92684,-182.90742 z"
       id="path2428"
       inkscape:export-filename="C:\Documents and Settings\Maen\My Documents\My Pictures\path2608s.png"
       inkscape:export-xdpi="90"
       inkscape:export-ydpi="90" />
    <path
       style="fill:#784421"
       d="M 152.26002,-204.81202 C 163.8311,-216.3831 167.17726,-217.87804 185.92684,-219.85318 C 193.62684,-220.66432 202.17684,-222.55536 204.92684,-224.05552 C 211.68878,-227.74422 221.91964,-238.58128 220.23268,-240.26826 C 219.48422,-241.01672 212.80922,-242.36892 205.39934,-243.27316 C 182.42942,-246.0762 161.91914,-236.5338 152.89532,-218.84562 C 148.33612,-209.90888 140.4589,-200.90742 137.1975,-200.90742 C 134.69408,-200.90742 134.17548,-198.32546 136.26018,-196.24076 C 139.13706,-193.36386 142.74426,-195.29626 152.26002,-204.81202 z"
       id="path2426"
       inkscape:export-filename="C:\Documents and Settings\Maen\My Documents\My Pictures\path2608s.png"
       inkscape:export-xdpi="90"
       inkscape:export-ydpi="90" />
    <path
       style="fill:#784421"
       d="M 245.91268,-200.88452 C 246.61336,-202.01824 245.81056,-202.35352 244.03072,-201.67054 C 240.56588,-200.34096 239.93194,-198.90742 242.8088,-198.90742 C 243.84388,-198.90742 245.24064,-199.79712 245.91268,-200.88452 z"
       id="path2424"
       inkscape:export-filename="C:\Documents and Settings\Maen\My Documents\My Pictures\path2608s.png"
       inkscape:export-xdpi="90"
       inkscape:export-ydpi="90" />
    <path
       style="fill:#784421"
       d="M 252.92684,-201.02546 C 252.92684,-202.19038 252.02684,-202.58726 250.92684,-201.90742 C 249.82684,-201.22758 248.92684,-200.27446 248.92684,-199.78938 C 248.92684,-199.3043 249.82684,-198.90742 250.92684,-198.90742 C 252.02684,-198.90742 252.92684,-199.86054 252.92684,-201.02546 z"
       id="path2422"
       inkscape:export-filename="C:\Documents and Settings\Maen\My Documents\My Pictures\path2608s.png"
       inkscape:export-xdpi="90"
       inkscape:export-ydpi="90" />
    <path
       style="fill:#784421"
       d="M 248.81508,-213.77276 C 250.22268,-215.4688 250.86958,-218.17188 250.25264,-219.77958 C 249.27552,-222.32594 248.33464,-222.30542 242.95242,-219.62042 C 239.55424,-217.92516 235.4583,-217.043 233.85036,-217.66002 C 229.64338,-219.2744 230.25306,-215.5812 234.97268,-210.86158 C 239.27034,-206.56392 243.58544,-207.47142 248.81508,-213.77276 z"
       id="path2420"
       inkscape:export-filename="C:\Documents and Settings\Maen\My Documents\My Pictures\path2608s.png"
       inkscape:export-xdpi="90"
       inkscape:export-ydpi="90" />
    <path
       style="fill:#784421"
       d="M 215.07822,-226.40742 L 219.92684,-231.90742 L 213.92684,-226.90742 C 210.62684,-224.15742 207.55184,-221.68242 207.0935,-221.40742 C 206.63518,-221.13242 207.1533,-220.90742 208.24488,-220.90742 C 209.33646,-220.90742 212.41146,-223.38242 215.07822,-226.40742 z"
       id="path2396"
       inkscape:export-filename="C:\Documents and Settings\Maen\My Documents\My Pictures\path2608s.png"
       inkscape:export-xdpi="90"
       inkscape:export-ydpi="90" />
  </g>
</svg>
